<?xml version="1.0" encoding="UTF-8" standalone="no"?>
<svg
   viewBox="0 0 377.95276 377.95275"
   version="1.1"
   id="svg4"
   sodipodi:docname="+b.svg"
   width="100mm"
   height="100mm"
   inkscape:version="1.3.2 (091e20ef0f, 2023-11-25)"
   xml:space="preserve"
   xmlns:inkscape="http://www.inkscape.org/namespaces/inkscape"
   xmlns:sodipodi="http://sodipodi.sourceforge.net/DTD/sodipodi-0.dtd"
   xmlns:xlink="http://www.w3.org/1999/xlink"
   xmlns="http://www.w3.org/2000/svg"
   xmlns:svg="http://www.w3.org/2000/svg"><defs
     id="defs4"><linearGradient
       id="linearGradient23"
       inkscape:collect="always"><stop
         style="stop-color:#fad028;stop-opacity:1;"
         offset="0"
         id="stop23" /><stop
         style="stop-color:#856a02;stop-opacity:1;"
         offset="1"
         id="stop24" /></linearGradient><linearGradient
       id="a"
       gradientUnits="userSpaceOnUse"
       x1="23.898348"
       x2="85.692467"
       y1="24.665611"
       y2="24.665611"
       gradientTransform="matrix(3.5434,0,0,3.5434,-9.1609105,-10.181225)"><stop
         offset="0"
         stop-color="#fae4ed"
         id="stop1-2"
         style="stop-color:#E8C232;stop-opacity:1;" /><stop
         offset="1"
         stop-color="#1f1a17"
         stop-opacity=".992157"
         id="stop2-1" /></linearGradient><linearGradient
       inkscape:collect="always"
       xlink:href="#linearGradient23"
       id="linearGradient2"
       x1="130.1644"
       y1="194.16879"
       x2="272.9382"
       y2="194.16879"
       gradientUnits="userSpaceOnUse" /></defs><sodipodi:namedview
     id="namedview4"
     pagecolor="#ffffff"
     bordercolor="#000000"
     borderopacity="0.25"
     inkscape:showpageshadow="2"
     inkscape:pageopacity="0.0"
     inkscape:pagecheckerboard="0"
     inkscape:deskcolor="#d1d1d1"
     inkscape:zoom="4"
     inkscape:cx="141.5"
     inkscape:cy="127.875"
     inkscape:window-width="3840"
     inkscape:window-height="2160"
     inkscape:window-x="0"
     inkscape:window-y="0"
     inkscape:window-maximized="1"
     inkscape:current-layer="svg4"
     showguides="true"
     inkscape:document-units="mm"><sodipodi:guide
       position="-161.22035,35.713073"
       orientation="0,-1"
       id="guide1"
       inkscape:locked="false" /></sodipodi:namedview><g
     id="g30"
     style="stroke-width:10.3937;stroke-dasharray:none;fill-opacity:1;fill:url(#linearGradient2)"
     transform="matrix(1.0277108,0,0,1.0277108,-5.3790052,18.057909)"
     inkscape:export-filename="g30.svg"
     inkscape:export-xdpi="96"
     inkscape:export-ydpi="96"><g
       id="g22"
       style="fill:url(#linearGradient2);stroke-width:10.3937;stroke-dasharray:none;fill-opacity:1"><path
         style="fill:url(#linearGradient2);fill-rule:evenodd;stroke:#000000;stroke-width:10.3937;stroke-dasharray:none;fill-opacity:1"
         d="M 121.44362,94.062725 88.239911,42.648508 c 0,0 10.120692,33.329648 5.549127,56.263268 l 10.519552,21.841454"
         id="path16-1"
         sodipodi:nodetypes="cccc" /><path
         style="fill:url(#linearGradient2);fill-rule:evenodd;stroke:#000000;stroke-width:10.3937;stroke-dasharray:none;fill-opacity:1"
         d="m 86.1915,119.82053 -24.30464,-5.11288 c 13.054134,-6.67456 21.044122,-3.31458 41.02369,-9.7735 l -26.662426,-20.537676 70.801166,9.463422 2.52856,0.07541 2.15575,0.06428"
         id="path16"
         sodipodi:nodetypes="ccccccc" /><g
         id="g6"
         transform="matrix(1.146429,0,0,1.146429,-38.776759,-37.767352)"
         style="fill:url(#linearGradient2);stroke-width:9.06615;stroke-dasharray:none;fill-opacity:1"><g
           id="g29"
           style="fill:url(#linearGradient2);stroke-width:9.06615;stroke-dasharray:none;fill-opacity:1"><path
             style="fill:url(#linearGradient2);fill-opacity:1;fill-rule:evenodd;stroke:#000000;stroke-width:9.06615;stroke-dasharray:none"
             d="m 147.09055,303.37815 124.12447,0.20131 -0.67418,-21.12896 c 14.60323,5.89991 25.09716,8.43305 29.16647,15.16841 4.04451,-16.56392 -9.27295,-24.58615 -19.85631,-34.54106 11.54467,-3.02694 18.30561,-0.18127 39.20802,-5.14996 -11.85914,-5.74587 -30.73825,-15.19235 -41.21287,-25.73962 22.64652,6.00129 35.30157,-8.23257 44.01114,-16.67744 -24.79754,-5.22659 -41.44863,-16.10551 -54.76124,-28.007 28.54104,-3.63079 22.97731,-11.12911 42.54814,-28.36335 -30.29989,-2.33572 -31.38751,-4.55382 -63.96251,-19.77965 10.04524,-5.02737 23.95468,-18.89117 47.4593,-33.56575 -28.0865,-0.59582 -73.01089,-10.523689 -95.78843,6.78279 -0.76646,-12.41905 20.11948,-19.394559 26.84515,-36.099558 -13.84353,0.477788 -47.44291,11.917562 -54.37498,24.456718 l 1.44677,15.19111 -10.04688,-19.326067 -24.84615,-19.831326 -1.45068,18.824218 c 1.27833,7.410195 4.22613,17.433405 4.94483,24.925615 -11.06101,1.79304 -18.08785,7.54794 -28.24857,14.67125 -12.121851,11.78124 2.91898,39.24714 -12.669137,67.81953 -7.196147,12.74788 -7.508374,44.04311 9.108797,49.21192 6.19099,-13.87354 9.38882,-19.44135 10.55287,-20.59238 0.55936,1.32348 -2.63223,15.87759 -3.2137,20.61883 6.95521,-0.94716 12.83733,-4.19141 15.99931,-9.38954 25.69897,-42.2478 35.69096,-17.3534 44.60153,-50.68597 1.3014,4.56139 5.3803,40.84246 -2.73123,59.11086 -17.376,17.93043 -26.17993,36.52172 -26.17993,51.89507 z"
             id="path5"
             sodipodi:nodetypes="cccccccccccccccccccccccccsccc" /><path
             style="fill:url(#linearGradient2);fill-rule:evenodd;stroke:#000000;stroke-width:9.06615;stroke-dasharray:none;fill-opacity:1"
             d="M 269.14664,304.30075 C 268.88399,240.39478 258.08953,137.86738 168.08227,113.6906"
             id="path6"
             sodipodi:nodetypes="cc" /></g></g></g></g><path
     d="m 123.89919,145.84564 -16.47967,14.38765 -1.53562,24.28117 c 6.18863,-3.45736 16.85424,-12.03262 19.225,-15.40521 0.81407,-5.03581 -0.26563,-19.98612 -1.20971,-23.26361 z m 0.55247,-1.36946 -16.47965,14.38765 -1.53563,24.28117 c 6.18861,-3.45735 16.85425,-12.0326 19.22504,-15.40519 0.81404,-5.03583 -0.26564,-19.98614 -1.20976,-23.26363 z"
     fill="#1f1a17"
     fill-opacity="0.992157"
     opacity="0.99"
     id="path13-9"
     style="stroke-width:5.47276" /></svg>
