<?xml version="1.0" encoding="UTF-8" standalone="no"?>
<!-- Created with Inkscape (http://www.inkscape.org/) -->

<svg
   width="100mm"
   height="100mm"
   viewBox="0 0 99.999999 100"
   version="1.1"
   id="svg1"
   sodipodi:docname="+l.svg"
   inkscape:version="1.3.2 (091e20ef0f, 2023-11-25)"
   xml:space="preserve"
   xmlns:inkscape="http://www.inkscape.org/namespaces/inkscape"
   xmlns:sodipodi="http://sodipodi.sourceforge.net/DTD/sodipodi-0.dtd"
   xmlns:xlink="http://www.w3.org/1999/xlink"
   xmlns="http://www.w3.org/2000/svg"
   xmlns:svg="http://www.w3.org/2000/svg"><sodipodi:namedview
     id="namedview1"
     pagecolor="#ffffff"
     bordercolor="#000000"
     borderopacity="0.25"
     inkscape:showpageshadow="2"
     inkscape:pageopacity="0.0"
     inkscape:pagecheckerboard="0"
     inkscape:deskcolor="#d1d1d1"
     inkscape:document-units="mm"
     inkscape:zoom="1.6731746"
     inkscape:cx="296.44246"
     inkscape:cy="144.3364"
     inkscape:window-width="3840"
     inkscape:window-height="2160"
     inkscape:window-x="0"
     inkscape:window-y="0"
     inkscape:window-maximized="1"
     inkscape:current-layer="layer1"
     showguides="true"><sodipodi:guide
       position="-44.391183,9.9876494"
       orientation="0,-1"
       id="guide1"
       inkscape:locked="false" /><sodipodi:guide
       position="9.9623492,104.11144"
       orientation="1,0"
       id="guide2"
       inkscape:locked="false" /><sodipodi:guide
       position="-40.007529,88.851656"
       orientation="0,-1"
       id="guide3"
       inkscape:locked="false" /><sodipodi:guide
       position="-53.00106,80.208464"
       orientation="0,-1"
       id="guide22"
       inkscape:locked="false" /></sodipodi:namedview><defs
     id="defs1"><inkscape:path-effect
       effect="mirror_symmetry"
       start_point="175.83806,165.20154"
       end_point="175.83806,265.20154"
       center_point="175.83806,215.20154"
       id="path-effect23"
       is_visible="true"
       lpeversion="1.2"
       lpesatellites=""
       mode="vertical"
       discard_orig_path="false"
       fuse_paths="false"
       oposite_fuse="false"
       split_items="false"
       split_open="false"
       link_styles="false" /><linearGradient
       id="linearGradient11"
       inkscape:collect="always"><stop
         style="stop-color:#fad028;stop-opacity:1;"
         offset="0"
         id="stop12" /><stop
         style="stop-color:#856a02;stop-opacity:1;"
         offset="1"
         id="stop11" /></linearGradient><inkscape:path-effect
       effect="mirror_symmetry"
       start_point="27.826867,-9.2753474"
       end_point="27.826867,54.142362"
       center_point="27.826867,22.433507"
       id="path-effect4"
       is_visible="true"
       lpeversion="1.2"
       lpesatellites=""
       mode="vertical"
       discard_orig_path="false"
       fuse_paths="true"
       oposite_fuse="false"
       split_items="false"
       split_open="false"
       link_styles="false" /><linearGradient
       id="linearGradient1"
       inkscape:collect="always"><stop
         style="stop-color:#fad028;stop-opacity:1;"
         offset="0"
         id="stop3" /><stop
         style="stop-color:#856a02;stop-opacity:1;"
         offset="1"
         id="stop4" /></linearGradient><linearGradient
       id="a"
       gradientUnits="userSpaceOnUse"
       x1="23.898348"
       x2="85.692467"
       y1="24.665611"
       y2="24.665611"
       gradientTransform="matrix(3.5434,0,0,3.5434,-9.1609105,-10.181225)"><stop
         offset="0"
         stop-color="#fae4ed"
         id="stop1"
         style="stop-color:#E8C232;stop-opacity:1;" /><stop
         offset="1"
         stop-color="#1f1a17"
         stop-opacity=".992157"
         id="stop2" /></linearGradient><linearGradient
       inkscape:collect="always"
       xlink:href="#linearGradient1"
       id="linearGradient4"
       x1="134.56917"
       y1="224.95859"
       x2="214.88802"
       y2="226.35831"
       gradientUnits="userSpaceOnUse" /><linearGradient
       inkscape:collect="always"
       xlink:href="#linearGradient1"
       id="linearGradient2"
       gradientUnits="userSpaceOnUse"
       x1="460.69315"
       y1="230.84178"
       x2="479.98874"
       y2="230.87344" /><linearGradient
       inkscape:collect="always"
       xlink:href="#linearGradient1"
       id="linearGradient16"
       gradientUnits="userSpaceOnUse"
       gradientTransform="matrix(1.918188,0,0,1.918188,194.85539,-413.80989)"
       x1="55.18763"
       y1="287.60236"
       x2="84.777214"
       y2="287.60236" /><inkscape:path-effect
       effect="mirror_symmetry"
       start_point="330.38724,96.377135"
       end_point="330.38724,166.50731"
       center_point="330.38724,131.44222"
       id="path-effect3"
       is_visible="true"
       lpeversion="1.2"
       lpesatellites=""
       mode="vertical"
       discard_orig_path="false"
       fuse_paths="true"
       oposite_fuse="false"
       split_items="false"
       split_open="false"
       link_styles="false" /><linearGradient
       inkscape:collect="always"
       xlink:href="#linearGradient1"
       id="linearGradient3"
       gradientUnits="userSpaceOnUse"
       x1="134.56917"
       y1="224.95859"
       x2="214.88802"
       y2="226.35831" /><linearGradient
       inkscape:collect="always"
       xlink:href="#linearGradient1"
       id="linearGradient5"
       gradientUnits="userSpaceOnUse"
       x1="134.56917"
       y1="224.95859"
       x2="214.88802"
       y2="226.35831" /><linearGradient
       inkscape:collect="always"
       xlink:href="#linearGradient1"
       id="linearGradient6"
       gradientUnits="userSpaceOnUse"
       x1="134.56917"
       y1="224.95859"
       x2="214.88802"
       y2="226.35831" /><linearGradient
       inkscape:collect="always"
       xlink:href="#linearGradient1"
       id="linearGradient7"
       gradientUnits="userSpaceOnUse"
       x1="134.56917"
       y1="224.95859"
       x2="214.88802"
       y2="226.35831" /><linearGradient
       inkscape:collect="always"
       xlink:href="#linearGradient1"
       id="linearGradient8"
       gradientUnits="userSpaceOnUse"
       x1="134.56917"
       y1="224.95859"
       x2="214.88802"
       y2="226.35831" /><linearGradient
       inkscape:collect="always"
       xlink:href="#linearGradient1"
       id="linearGradient9"
       gradientUnits="userSpaceOnUse"
       x1="134.56917"
       y1="224.95859"
       x2="214.88802"
       y2="226.35831" /><linearGradient
       inkscape:collect="always"
       xlink:href="#linearGradient1"
       id="linearGradient10"
       gradientUnits="userSpaceOnUse"
       x1="134.56917"
       y1="224.95859"
       x2="214.88802"
       y2="226.35831" /><linearGradient
       inkscape:collect="always"
       xlink:href="#linearGradient11"
       id="linearGradient12"
       x1="8.8171846"
       y1="25.118209"
       x2="46.836549"
       y2="25.118209"
       gradientUnits="userSpaceOnUse" /><linearGradient
       inkscape:collect="always"
       xlink:href="#linearGradient11"
       id="linearGradient18"
       gradientUnits="userSpaceOnUse"
       x1="8.8171846"
       y1="25.118209"
       x2="46.836549"
       y2="25.118209" /><linearGradient
       inkscape:collect="always"
       xlink:href="#linearGradient11"
       id="linearGradient21"
       gradientUnits="userSpaceOnUse"
       x1="8.8171846"
       y1="25.118209"
       x2="46.836549"
       y2="25.118209" /><linearGradient
       inkscape:collect="always"
       xlink:href="#linearGradient11"
       id="linearGradient22"
       gradientUnits="userSpaceOnUse"
       x1="8.8171846"
       y1="25.118209"
       x2="46.836549"
       y2="25.118209" /></defs><g
     inkscape:label="Layer 1"
     inkscape:groupmode="layer"
     id="layer1"
     transform="translate(-125.14792,-166.6875)"><g
       id="g4"
       transform="translate(-101.73851,0.18222298)"><g
         id="g2"
         style="fill:url(#linearGradient4);fill-opacity:1"
         transform="matrix(0.88681355,0,0,0.88681355,19.824285,28.959291)"><g
           id="g1"
           transform="translate(4.9852698,15.436571)"
           style="fill:url(#linearGradient10);fill-opacity:1"><g
             style="clip-rule:evenodd;fill:url(#linearGradient9);fill-opacity:1;fill-rule:evenodd;image-rendering:optimizeQuality;shape-rendering:geometricPrecision"
             id="g2-9-4-0-5-7"
             transform="matrix(1.8737982,0,0,1.8737982,122.531,154.06806)"><g
               stroke="#1f1a17"
               stroke-width="1.53126"
               transform="matrix(1.2108754,0,0,-1.0098715,-392.5823,266.33544)"
               id="g4-8-4-2-4-4"
               style="fill:url(#linearGradient8);fill-opacity:1"><g
                 transform="translate(-125.28541,-2.813869)"
                 id="g3-4-7-3-7-1"
                 style="fill:url(#linearGradient6);fill-opacity:1"><g
                   id="g22"
                   style="fill:url(#linearGradient3);fill-opacity:1"><path
                     d="m 475.40581,243.46445 -10.77444,0.1815 -4.58004,-13.75434 9.36845,-3.32597 h 1.31068 l 9.49859,3.32597 z"
                     fill="url(#a)"
                     stroke-width="1.53126"
                     id="path2-3-8-6-7-6-8"
                     style="fill:url(#linearGradient2);fill-opacity:1"
                     sodipodi:nodetypes="ccccccc" /></g><path
                   d="m 469.4849,226.49242 v -5.17688 h 1.28718 c 0,3.12599 0.006,-1.49822 0.0307,5.16792 z"
                   fill="none"
                   stroke-width="1.53126"
                   id="path3-1-3-5-5-5"
                   style="fill:url(#linearGradient5);fill-opacity:1" /></g><path
                 d="m 344.92235,238.45561 -0.0625,-9.50404"
                 fill="none"
                 id="path4-0-1-9-6-9"
                 style="fill:url(#linearGradient7);fill-opacity:1"
                 sodipodi:nodetypes="cc" /></g></g></g></g><path
         d="m 311.76953,111.27148 c -1.53265,0.0603 -3.1697,1.0279 -5.33789,2.99219 6.1029,1.30316 7.00201,3.00454 8.17773,7.26172 0.32217,6.59974 9.20566,12.99849 15.77735,13.13672 6.57169,-0.13823 15.45518,-6.53698 15.77734,-13.13672 1.17573,-4.25718 2.07483,-5.95856 8.17774,-7.26172 -4.33639,-3.92858 -6.54652,-3.86752 -10.05078,-0.54297 -1.87743,-0.86806 -3.45703,-1.20805 -5.83399,2.52149 4.16512,1.43985 3.16002,11.86612 -6.20312,13.16797 -0.64466,0.0896 -1.26778,0.13185 -1.86719,0.1289 -0.59941,0.003 -1.22058,-0.0393 -1.86524,-0.1289 -9.36314,-1.30185 -10.36824,-11.72812 -6.20312,-13.16797 -2.37696,-3.72954 -3.95851,-3.38955 -5.83594,-2.52149 -1.75213,-1.66228 -3.18024,-2.5095 -4.71289,-2.44922 z"
         fill="#ffe680"
         stroke-width="8.05594"
         id="path16"
         style="fill:url(#linearGradient16);fill-opacity:1;stroke:#000000;stroke-width:2.05572;stroke-dasharray:none"
         sodipodi:nodetypes="cscccscccc"
         transform="matrix(1.4259197,0,0,1.4259197,-295.95776,29.261444)" /></g><g
       style="clip-rule:evenodd;fill:url(#linearGradient12);fill-rule:evenodd;image-rendering:optimizeQuality;shape-rendering:geometricPrecision"
       id="g3"
       transform="matrix(1.5768466,0,0,1.5768466,131.26922,181.3133)"><path
         d="M 27.806977,1.4017681 C 27.54902,15.617307 19.329631,28.288151 12.593322,33.869714 c 5.458681,0.806704 10.430929,2.520592 15.233545,5.380612 4.802615,-2.86002 9.774863,-4.573908 15.233544,-5.380612 C 36.324102,28.288151 28.104713,15.617307 27.846756,1.4017681"
         fill="url(#a)"
         stroke="#1f1a17"
         stroke-width="1.80251"
         id="path4"
         style="fill:url(#linearGradient18)"
         sodipodi:nodetypes="ccc"
         inkscape:path-effect="#path-effect4"
         inkscape:original-d="M 27.806977,1.4017681 C 27.54902,15.617307 19.329631,28.288151 12.593322,33.869714 c 5.460107,0.806915 10.433527,2.521487 15.237308,5.382853" /><g
         stroke-linecap="square"
         id="g7"
         style="fill:url(#linearGradient22)"><path
           d="m 26.199126,38.148912 -0.0091,8.737181 c 0.800218,-0.03892 2.474914,-0.01348 3.210687,0.004 l 0.05854,-8.02154 c -1.05461,-0.09638 -2.128838,-0.143722 -3.260085,-0.04852 z"
           fill="#1f1a17"
           stroke="#1f1a17"
           stroke-width="1.75654"
           id="path5"
           style="fill:#000000;fill-opacity:1;stroke:#000000;stroke-opacity:1"
           sodipodi:nodetypes="cccccc" /><path
           d="m 27.953369,2.287671 c -4.337411,4.7158945 -12.921791,10.728503 -12.193952,18.766883 0.535458,3.743943 3.386357,5.3783 7.937636,7.369362 8.274189,3.619733 20.339735,5.666855 22.628195,6.016119 -1.04583,-0.873394 -5.387839,-2.923238 -4.762687,-2.802405 l 5.66338,0.111378 C 45.957321,30.857253 28.239988,26.701693 23.603587,24.177305 17.864114,21.052325 18.131155,15.843642 27.363679,2.486427 Z"
           fill="#1f1a17"
           id="path7"
           sodipodi:nodetypes="ccscccscc"
           style="fill:url(#linearGradient21);stroke:#1f1a17;stroke-width:1.90253;stroke-dasharray:none;stroke-opacity:1" /></g></g><g
       style="clip-rule:evenodd;fill-rule:evenodd;image-rendering:optimizeQuality;shape-rendering:geometricPrecision"
       id="g23"
       transform="matrix(1.7366091,0,0,1.7366091,220.16672,175.66586)"><path
         d="m 27.662958,38.197427 12.08761,0.627774 C 33.179675,33.097456 25.711114,16.636708 26.025297,2.4498969 25.76734,16.665436 19.098237,33.206539 12.361928,38.788102 l 12.040926,-0.639157"
         fill="url(#b)"
         stroke="#1f1a17"
         stroke-width="1.80251"
         id="path2" /><g
         stroke-linecap="square"
         id="g5"><path
           d="m 24.402873,38.148912 -0.0091,8.737181 c 0.800218,-0.03892 2.474914,-0.01348 3.210687,0.004 L 27.663,38.197382 c -1.05461,-0.09638 -2.128838,-0.143722 -3.260085,-0.04852 z"
           fill="#1f1a17"
           stroke="#1f1a17"
           stroke-width="1.75654"
           id="path3" /><path
           d="M 26.025297,3.3747524 C 22.079635,9.011651 15.019756,13.407269 16.093167,20.95623 19.579066,32.277372 34.070023,30.953274 42.78623,33.207337 l -3.433417,-2.439104 3.956282,-0.139806 C 37.958313,26.760195 25.468994,30.180937 20.535525,19.649065 18.399613,13.309671 24.076279,8.737338 26.025297,3.3747524 Z"
           fill="url(#c)"
           stroke-width="1.80251"
           id="path4-9" /><path
           d="m 25.184926,2.428253 c -1.891129,2.7017273 -4.528081,5.6331451 -6.720082,8.468231 -2.192001,2.835087 -3.842577,6.116242 -3.263672,10.1875 l 0.0098,0.07031 0.02148,0.06641 c 1.849215,6.005689 6.729899,8.730395 12.015625,10.132813 5.938574,1.005515 12.499961,2.841294 18.043178,2.688632 l -1.982631,-1.569496 -1.265625,-0.898437 3.921875,-0.138672 -2.126953,-1.53711 C 40.790475,27.695375 36.255369,27.677629 31.955078,26.755859 27.66897,25.83713 23.708962,24.237533 21.378906,19.308594 20.437055,16.454211 21.204415,14.069261 22.542969,11.570313 23.890042,9.0554589 25.830675,6.5496537 26.873047,3.6816406 Z m -4.245473,8.333466 c -1.433358,2.687406 -2.41829,5.731479 -1.257812,9.175781 l 0.01563,0.04687 0.02148,0.04687 c 2.60656,5.564433 7.341999,7.520398 11.857422,8.488281 2.605022,0.558388 4.490401,0.259846 10.465905,1.769859 l -3.850129,0.07617 2.363281,1.677735 C 36.857842,31.448909 31.381142,30.585631 27.708984,29.611328 22.721286,28.287984 18.635816,26.018177 16.984375,20.753906 16.521704,17.314952 17.850464,14.6387 19.890625,12 c 0.313862,-0.405942 0.707048,-0.837099 1.048828,-1.238281 z"
           fill="#1f1a17"
           id="path5-1" /></g></g><path
       style="fill:#000000;fill-opacity:1;stroke:#000000;stroke-width:3;stroke-dasharray:none;stroke-opacity:1"
       d="m 174.75109,232.06232 -21.78833,0.15425 m 23.96227,-0.15425 21.78832,0.15425"
       id="path23"
       inkscape:path-effect="#path-effect23"
       inkscape:original-d="M 174.75109,232.06232 H 154.4836"
       transform="translate(-0.69013875,1.4859558)" /></g></svg>
