<?xml version="1.0" encoding="UTF-8" standalone="no"?>
<!-- Created with Inkscape (http://www.inkscape.org/) -->

<svg
   width="100mm"
   height="100mm"
   viewBox="0 0 99.999999 100"
   version="1.1"
   id="svg1"
   inkscape:version="1.3.2 (091e20ef0f, 2023-11-25)"
   sodipodi:docname="+n.svg"
   xml:space="preserve"
   xmlns:inkscape="http://www.inkscape.org/namespaces/inkscape"
   xmlns:sodipodi="http://sodipodi.sourceforge.net/DTD/sodipodi-0.dtd"
   xmlns:xlink="http://www.w3.org/1999/xlink"
   xmlns="http://www.w3.org/2000/svg"
   xmlns:svg="http://www.w3.org/2000/svg"><sodipodi:namedview
     id="namedview1"
     pagecolor="#ffffff"
     bordercolor="#000000"
     borderopacity="0.25"
     inkscape:showpageshadow="2"
     inkscape:pageopacity="0.0"
     inkscape:pagecheckerboard="0"
     inkscape:deskcolor="#d1d1d1"
     inkscape:document-units="mm"
     inkscape:zoom="4"
     inkscape:cx="133.5"
     inkscape:cy="250.625"
     inkscape:window-width="3840"
     inkscape:window-height="2160"
     inkscape:window-x="0"
     inkscape:window-y="0"
     inkscape:window-maximized="1"
     inkscape:current-layer="layer1"
     showguides="true"
     showgrid="false"><sodipodi:guide
       position="-84.402082,10.041667"
       orientation="0,-1"
       id="guide1"
       inkscape:locked="false" /><sodipodi:guide
       position="-20.673298,89.803667"
       orientation="0,-1"
       id="guide12"
       inkscape:locked="false" /><sodipodi:guide
       position="-81.757747,58.934037"
       orientation="0,-1"
       id="guide13"
       inkscape:locked="false" /></sodipodi:namedview><defs
     id="defs1"><linearGradient
       id="linearGradient5"
       inkscape:collect="always"><stop
         style="stop-color:#fad028;stop-opacity:1;"
         offset="0"
         id="stop4" /><stop
         style="stop-color:#856a02;stop-opacity:1;"
         offset="1"
         id="stop5" /></linearGradient><linearGradient
       inkscape:collect="always"
       xlink:href="#linearGradient5"
       id="linearGradient2"
       x1="299.80045"
       y1="122.19883"
       x2="314.75555"
       y2="133.49402"
       gradientUnits="userSpaceOnUse" /><linearGradient
       inkscape:collect="always"
       xlink:href="#linearGradient5"
       id="linearGradient7"
       gradientUnits="userSpaceOnUse"
       x1="297.14981"
       y1="119.20802"
       x2="316.32809"
       y2="133.6537" /></defs><g
     inkscape:label="Layer 1"
     inkscape:groupmode="layer"
     id="layer1"
     transform="translate(-80.072018,-72.833421)"><g
       id="g13"><path
         d="m 118.40588,99.325441 c -1.60124,-1.246609 -4.00336,-2.977585 -8.09142,-2.607496 5.85344,4.425515 9.12234,14.585735 3.86909,16.492605 l 3.99915,0.80819 c -1.33677,-0.0389 1.90695,0.30712 0.7858,-0.0581 3.1295,-2.08282 4.41472,-9.49063 4.71308,-14.343401 0.39698,-6.45684 -2.05541,-11.963967 -3.57177,-12.735542 0.0475,2.787509 -0.53242,9.643281 -1.70393,12.443744 z"
         fill="#ffe680"
         stroke-width="8.05594"
         id="use1"
         style="fill:#856a02;fill-opacity:1;stroke:#000000;stroke-width:3.11529;stroke-dasharray:none"
         sodipodi:nodetypes="cccccscc" /><path
         d="m 129.96566,97.953355 c 3.37698,-0.04529 4.74857,0.955024 5.4582,1.794739 2.52685,-2.702062 2.77781,-11.257836 2.93978,-12.478229 2.30732,1.866706 6.0186,25.877975 -18.06647,30.352855 3.9443,-0.68841 -4.47686,-0.21875 -0.35798,-3.29856 7.62722,-4.30873 11.77382,-6.57027 12.49156,-9.50021 0.57874,-2.36254 -0.57347,-5.158425 -2.46509,-6.870595 z"
         fill="#ffe680"
         stroke-width="8.05594"
         id="use1-9"
         style="fill:#856a02;fill-opacity:1;stroke:#000000;stroke-width:3.11529;stroke-dasharray:none"
         sodipodi:nodetypes="cccccsc" /><g
         id="g9"
         transform="matrix(1.9781189,0,0,1.9781189,-474.91238,-106.78256)"
         style="fill:url(#linearGradient2);fill-opacity:1;stroke-width:1.39559;stroke-dasharray:none"><path
           id="path1517-2"
           style="clip-rule:evenodd;fill:url(#linearGradient7);fill-opacity:1;fill-rule:evenodd;stroke:#000000;stroke-width:1.39559;stroke-dasharray:none;stroke-opacity:1;image-rendering:optimizeQuality;shape-rendering:geometricPrecision"
           d="m 316.44449,135.48458 c 0,-25.27449 -14.0513,-20.80242 -11.16783,-22.86793 1.14069,-1.89359 1.46057,-4.65557 0.0241,-6.3659 -4.34436,2.28367 -3.29296,3.1467 -4.26967,4.89305 l -1.98989,-0.20923 c -1.50009,-3.13215 -1.28451,-4.09818 -3.98251,-4.79998 -0.65791,0.70274 -0.26373,5.92613 -0.16173,6.21032 -1.0825,1.3314 -1.7301,3.03217 -1.67648,3.86133 0.12155,1.87945 1.17632,1.95988 -0.3753,6.04194 -0.29086,1.58734 -0.37323,3.89285 1.90225,4.8217 2.27548,0.92885 2.76198,0.42468 6.31393,-2.45595 2.04865,-1.21354 3.36523,-0.64129 4.00422,-3.55715 0.61219,0.62885 -1.13348,2.16058 -1.28749,2.43828 0.47299,6.34144 -4.60204,6.03348 -4.29553,12.03649 z"
           sodipodi:nodetypes="cccccccsczccccc" /></g><path
         style="fill:#000000;fill-opacity:1;stroke:#000000;stroke-width:3.17578;stroke-opacity:1"
         d="m 104.53905,140.55026 c 1.71471,1.04036 5.41182,1.22555 7.08592,4.92376"
         id="path12"
         sodipodi:nodetypes="cc" /></g><path
       d="m 124.1096,121.90724 -3.68414,2.24829 -1.10808,4.67029 c 1.31865,-0.46598 3.67845,-1.77787 4.25189,-2.35464 0.32617,-0.95207 0.61465,-3.89516 0.54033,-4.56394 z m 0.15308,-0.24788 -3.68413,2.24829 -1.10808,4.67029 c 1.31864,-0.46596 3.67845,-1.77786 4.25189,-2.35462 0.32617,-0.95209 0.61464,-3.89517 0.54032,-4.56396 z"
       fill="#1f1a17"
       fill-opacity="0.992157"
       opacity="0.99"
       id="path13-9"
       style="stroke-width:1.07971" /></g></svg>
