<?xml version="1.0" encoding="UTF-8" standalone="no"?>
<!-- Created with Inkscape (http://www.inkscape.org/) -->

<svg
   width="100mm"
   height="100mm"
   viewBox="0 0 99.999999 100"
   version="1.1"
   id="svg1"
   inkscape:version="1.3.2 (091e20ef0f, 2023-11-25)"
   sodipodi:docname="+n.svg"
   xml:space="preserve"
   xmlns:inkscape="http://www.inkscape.org/namespaces/inkscape"
   xmlns:sodipodi="http://sodipodi.sourceforge.net/DTD/sodipodi-0.dtd"
   xmlns:xlink="http://www.w3.org/1999/xlink"
   xmlns="http://www.w3.org/2000/svg"
   xmlns:svg="http://www.w3.org/2000/svg"><sodipodi:namedview
     id="namedview1"
     pagecolor="#ffffff"
     bordercolor="#000000"
     borderopacity="0.25"
     inkscape:showpageshadow="2"
     inkscape:pageopacity="0.0"
     inkscape:pagecheckerboard="0"
     inkscape:deskcolor="#d1d1d1"
     inkscape:document-units="mm"
     inkscape:zoom="2.8284271"
     inkscape:cx="223.26897"
     inkscape:cy="57.098873"
     inkscape:window-width="3840"
     inkscape:window-height="2160"
     inkscape:window-x="0"
     inkscape:window-y="0"
     inkscape:window-maximized="1"
     inkscape:current-layer="layer1"
     showguides="true"
     showgrid="false"><sodipodi:guide
       position="-84.402082,10.041667"
       orientation="0,-1"
       id="guide1"
       inkscape:locked="false" /><sodipodi:guide
       position="-20.673298,89.803667"
       orientation="0,-1"
       id="guide12"
       inkscape:locked="false" /><sodipodi:guide
       position="-81.757747,58.934037"
       orientation="0,-1"
       id="guide13"
       inkscape:locked="false" /></sodipodi:namedview><defs
     id="defs1"><linearGradient
       id="linearGradient5"
       inkscape:collect="always"><stop
         style="stop-color:#fad028;stop-opacity:1;"
         offset="0"
         id="stop4" /><stop
         style="stop-color:#856a02;stop-opacity:1;"
         offset="1"
         id="stop5" /></linearGradient><linearGradient
       inkscape:collect="always"
       xlink:href="#linearGradient5"
       id="linearGradient2"
       x1="299.80045"
       y1="122.19883"
       x2="314.75555"
       y2="133.49402"
       gradientUnits="userSpaceOnUse" /><linearGradient
       inkscape:collect="always"
       xlink:href="#linearGradient5"
       id="linearGradient6"
       gradientUnits="userSpaceOnUse"
       x1="293.12946"
       y1="123.72872"
       x2="320.61707"
       y2="123.72872"
       gradientTransform="translate(1.3534712,-1.4548296)" /><linearGradient
       inkscape:collect="always"
       xlink:href="#linearGradient5"
       id="linearGradient7"
       gradientUnits="userSpaceOnUse"
       x1="297.49634"
       y1="119.75937"
       x2="316.32809"
       y2="133.6537" /></defs><g
     inkscape:label="Layer 1"
     inkscape:groupmode="layer"
     id="layer1"
     transform="translate(-80.072018,-72.833421)"><g
       id="g13"><path
         d="m 118.40588,99.325441 c -1.60124,-1.246609 -4.00336,-2.977585 -8.09142,-2.607496 5.85344,4.425515 9.12234,14.585735 3.86909,16.492605 l 3.99915,0.80819 c -1.33677,-0.0389 1.90695,0.30712 0.7858,-0.0581 3.1295,-2.08282 4.41472,-9.49063 4.71308,-14.343401 0.39698,-6.45684 -2.05541,-11.963967 -3.57177,-12.735542 0.0475,2.787509 -0.53242,9.643281 -1.70393,12.443744 z"
         fill="#ffe680"
         stroke-width="8.05594"
         id="use1"
         style="fill:#856a02;fill-opacity:1;stroke:#000000;stroke-width:3.11529;stroke-dasharray:none"
         sodipodi:nodetypes="cccccscc" /><path
         d="m 130.49483,97.953355 c 3.37698,-0.04529 4.74857,0.955024 5.4582,1.794739 2.52685,-2.702062 4.36531,-11.257836 4.52728,-12.478229 2.30732,1.866706 3.90193,25.877975 -20.18314,30.352855 3.9443,-0.68841 -4.47686,-0.21875 -0.35798,-3.29856 7.62722,-4.30873 11.77382,-6.57027 12.49156,-9.50021 0.57874,-2.36254 -0.0443,-5.158425 -1.93592,-6.870595 z"
         fill="#ffe680"
         stroke-width="8.05594"
         id="use1-9"
         style="fill:#856a02;fill-opacity:1;stroke:#000000;stroke-width:3.11529;stroke-dasharray:none"
         sodipodi:nodetypes="cccccsc" /><g
         id="g9"
         transform="matrix(1.9781189,0,0,1.9781189,-474.91238,-106.78256)"
         style="fill:url(#linearGradient2);fill-opacity:1;stroke-width:1.39559;stroke-dasharray:none"><path
           id="path1517-2"
           style="clip-rule:evenodd;fill:url(#linearGradient7);fill-opacity:1;fill-rule:evenodd;stroke:#000000;stroke-width:1.39559;stroke-dasharray:none;stroke-opacity:1;image-rendering:optimizeQuality;shape-rendering:geometricPrecision"
           d="m 316.44449,135.48458 c 0.0957,-8.33544 0.0354,-11.60283 -1.72385,-14.80106 -4.9997,-9.08916 -9.55877,-6.31482 -9.44398,-8.06687 0.86529,-2.04434 1.12504,-3.61738 0.12259,-5.07045 -2.518,1.12614 -3.03162,1.94923 -4.36817,3.5976 l -1.98989,-0.20923 c -1.08658,-1.29336 -1.71304,-1.15121 -2.69687,-2.6224 -0.55801,-0.83443 -1.16066,-1.19161 -2.20066,-1.57421 -0.28253,0.84632 0.92155,5.42631 0.75329,5.60695 -1.20006,1.20006 -2.07384,2.94669 -1.87626,3.71301 0.57525,2.23106 1.3761,2.1082 -0.17552,6.19026 -0.29086,1.58734 -0.43387,3.24643 2.05749,4.91353 3.73008,1.36326 2.60674,0.33285 6.15869,-2.54778 2.04865,-1.21354 4.1803,-1.60905 4.81929,-4.52491 0.61219,0.62885 -1.56413,3.53431 -1.71814,3.81201 1.36199,6.34144 -5.15917,7.17344 -4.97692,11.92866 z"
           sodipodi:nodetypes="csccccscccccccccc" /><path
           style="clip-rule:evenodd;fill:url(#linearGradient6);fill-opacity:1;fill-rule:evenodd;stroke:#1f1a17;stroke-width:1.39559;stroke-linecap:butt;stroke-linejoin:miter;stroke-miterlimit:4;stroke-dasharray:none;stroke-opacity:1;image-rendering:optimizeQuality;shape-rendering:geometricPrecision"
           d="m 300.35585,118.33718 1.4456,-1.65973"
           id="path11999-4"
           sodipodi:nodetypes="cc" /></g><path
         style="fill:#1f1a17;stroke:#1f1a17;stroke-width:3.17578"
         d="m 105.28978,141.89256 c 3.86424,0.67177 4.50773,1.87399 5.89439,3.61401"
         id="path12"
         sodipodi:nodetypes="cc" /></g></g></svg>
