<?xml version="1.0" encoding="UTF-8" standalone="no"?>
<!-- Created with Inkscape (http://www.inkscape.org/) -->

<svg
   width="100mm"
   height="100mm"
   viewBox="0 0 99.999999 100"
   version="1.1"
   id="svg1"
   inkscape:version="1.3.2 (091e20ef0f, 2023-11-25)"
   sodipodi:docname="+n.svg"
   xml:space="preserve"
   xmlns:inkscape="http://www.inkscape.org/namespaces/inkscape"
   xmlns:sodipodi="http://sodipodi.sourceforge.net/DTD/sodipodi-0.dtd"
   xmlns:xlink="http://www.w3.org/1999/xlink"
   xmlns="http://www.w3.org/2000/svg"
   xmlns:svg="http://www.w3.org/2000/svg"><sodipodi:namedview
     id="namedview1"
     pagecolor="#ffffff"
     bordercolor="#000000"
     borderopacity="0.25"
     inkscape:showpageshadow="2"
     inkscape:pageopacity="0.0"
     inkscape:pagecheckerboard="0"
     inkscape:deskcolor="#d1d1d1"
     inkscape:document-units="mm"
     inkscape:zoom="2"
     inkscape:cx="301"
     inkscape:cy="204.25"
     inkscape:window-width="3840"
     inkscape:window-height="2160"
     inkscape:window-x="0"
     inkscape:window-y="0"
     inkscape:window-maximized="1"
     inkscape:current-layer="layer1"
     showguides="true"><sodipodi:guide
       position="-84.402082,10.041667"
       orientation="0,-1"
       id="guide1"
       inkscape:locked="false" /></sodipodi:namedview><defs
     id="defs1"><linearGradient
       id="linearGradient5"
       inkscape:collect="always"><stop
         style="stop-color:#fad028;stop-opacity:1;"
         offset="0"
         id="stop4" /><stop
         style="stop-color:#856a02;stop-opacity:1;"
         offset="1"
         id="stop5" /></linearGradient><linearGradient
       id="linearGradient1"
       inkscape:collect="always"><stop
         style="stop-color:#fad028;stop-opacity:1;"
         offset="0"
         id="stop1" /><stop
         style="stop-color:#e8c232;stop-opacity:0;"
         offset="1"
         id="stop2" /></linearGradient><linearGradient
       inkscape:collect="always"
       xlink:href="#linearGradient5"
       id="linearGradient2"
       x1="293.12946"
       y1="123.72872"
       x2="320.61707"
       y2="123.72872"
       gradientUnits="userSpaceOnUse" /><linearGradient
       inkscape:collect="always"
       xlink:href="#linearGradient1"
       id="linearGradient3"
       x1="107.73389"
       y1="130.2356"
       x2="154.49745"
       y2="130.2356"
       gradientUnits="userSpaceOnUse"
       gradientTransform="matrix(1.0983814,0,0,1.0983814,-13.196312,-7.3691775)" /><linearGradient
       inkscape:collect="always"
       xlink:href="#linearGradient5"
       id="linearGradient6"
       gradientUnits="userSpaceOnUse"
       x1="293.12946"
       y1="123.72872"
       x2="320.61707"
       y2="123.72872"
       gradientTransform="translate(0.10990429,-1.4500906)" /><linearGradient
       inkscape:collect="always"
       xlink:href="#linearGradient5"
       id="linearGradient7"
       gradientUnits="userSpaceOnUse"
       x1="292.46869"
       y1="137.96658"
       x2="319.92484"
       y2="137.96658" /><linearGradient
       inkscape:collect="always"
       xlink:href="#linearGradient1"
       id="linearGradient8"
       gradientUnits="userSpaceOnUse"
       gradientTransform="matrix(-1.0983814,0,0,1.0983814,259.96849,-5.803083)"
       x1="107.73389"
       y1="130.2356"
       x2="154.49745"
       y2="130.2356" /></defs><g
     inkscape:label="Layer 1"
     inkscape:groupmode="layer"
     id="layer1"
     transform="translate(-80.072018,-72.833421)"><path
       d="m 120.48771,83.318403 c -5.22763,10.453274 -6.53592,12.624396 -7.13577,16.67835 -3.32039,-0.828608 -4.9788,-4.703086 -10.66176,-5.737046 13.25478,7.573203 5.85222,21.556223 26.9822,23.921583 l -4.79823,-2.00475 c -1.24295,-0.0362 2.21442,-3.97235 1.17196,-4.31164 -13.98148,-6.59347 -6.77828,-14.194227 -5.5584,-28.546497 z"
       fill="#ffe680"
       stroke-width="8.05594"
       id="use1"
       style="fill:url(#linearGradient3);fill-opacity:1;stroke:#000000;stroke-width:2.89663;stroke-dasharray:none"
       sodipodi:nodetypes="ccccccc" /><path
       d="m 128.21032,92.099161 c 4.43853,3.470792 5.30171,4.008977 7.2998,6.449382 2.3495,-2.512406 3.38842,-6.241031 7.62326,-11.762925 -0.29329,5.827056 -3.28157,27.392152 -24.73639,30.642892 3.66745,-0.6401 -1.5007,-1.13388 2.32907,-3.99751 13.98148,-6.59347 15.10791,-8.04839 7.48426,-21.331839 z"
       fill="#ffe680"
       stroke-width="8.05594"
       id="use1-9"
       style="fill:url(#linearGradient8);fill-opacity:1;stroke:#000000;stroke-width:2.89663;stroke-dasharray:none"
       sodipodi:nodetypes="cccccc" /><g
       id="g9"
       transform="matrix(1.8686311,0,0,1.8686311,-441.55591,-95.524165)"
       style="fill:url(#linearGradient2);fill-opacity:1;stroke-width:1.39559;stroke-dasharray:none"><path
         id="path1517-2"
         style="clip-rule:evenodd;fill:url(#linearGradient7);fill-opacity:1;fill-rule:evenodd;stroke:#000000;stroke-width:1.39559;stroke-dasharray:none;stroke-opacity:1;image-rendering:optimizeQuality;shape-rendering:geometricPrecision"
         d="m 317.66774,137.41985 c 0.0957,-8.33544 0.58141,-9.95386 -2.24182,-17.02339 -0.91989,-1.50798 -2.78914,-5.14453 -7.47169,-7.27516 -4.35171,-1.11851 -3.13393,-0.20834 -3.1047,-0.65447 0.79606,-3.38202 1.86932,-4.48966 0.86687,-5.94273 -1.17471,1.23847 -4.00448,3.08523 -5.34103,4.7336 l -1.33418,-0.32313 c -1.08658,-1.29336 -1.85881,-1.15121 -2.84264,-2.6224 -0.55801,-0.83443 -1.82461,-1.96749 -2.4333,-2.19296 0.30147,3.56061 1.29996,6.04506 1.1317,6.2257 -1.20006,1.20006 -2.07384,2.94669 -1.87626,3.71301 0.57525,2.23106 1.3761,2.37571 -0.17552,6.45777 -0.29086,1.58734 -0.96889,2.71141 1.52247,4.37851 3.73008,1.36326 3.85585,-0.30688 7.4078,-3.1875 0.65908,-0.31782 1.14754,-0.27094 2.05304,-0.73306 0.81315,-1.07977 1.97968,-1.19609 1.87182,-3.6692 0.8409,0.59723 -0.5205,3.78005 -0.3904,4.51402 1.17524,3.52421 0.3773,5.16671 -1.46425,7.70114 -2.59966,2.29023 -3.80719,3.87558 -3.7482,5.87425 z"
         sodipodi:nodetypes="cccccccscccccccccccc" /><path
         style="clip-rule:evenodd;fill:url(#linearGradient6);fill-opacity:1;fill-rule:evenodd;stroke:#1f1a17;stroke-width:1.39559;stroke-linecap:butt;stroke-linejoin:miter;stroke-miterlimit:4;stroke-dasharray:none;stroke-opacity:1;image-rendering:optimizeQuality;shape-rendering:geometricPrecision"
         d="m 299.11229,118.34191 1.4456,-1.65973"
         id="path11999-4"
         sodipodi:nodetypes="cc" /></g></g></svg>
