<?xml version="1.0" encoding="UTF-8" standalone="no"?>
<!-- Created with Inkscape (http://www.inkscape.org/) -->

<svg
   width="100mm"
   height="100mm"
   viewBox="0 0 100 100"
   version="1.1"
   id="svg1"
   xml:space="preserve"
   sodipodi:docname="bg.svg"
   inkscape:version="1.3.2 (091e20ef0f, 2023-11-25)"
   xmlns:inkscape="http://www.inkscape.org/namespaces/inkscape"
   xmlns:sodipodi="http://sodipodi.sourceforge.net/DTD/sodipodi-0.dtd"
   xmlns="http://www.w3.org/2000/svg"
   xmlns:svg="http://www.w3.org/2000/svg"><sodipodi:namedview
     id="namedview1"
     pagecolor="#ffffff"
     bordercolor="#000000"
     borderopacity="0.25"
     inkscape:showpageshadow="2"
     inkscape:pageopacity="0.0"
     inkscape:pagecheckerboard="0"
     inkscape:deskcolor="#d1d1d1"
     inkscape:document-units="mm"
     inkscape:zoom="4"
     inkscape:cx="214.625"
     inkscape:cy="127.375"
     inkscape:window-width="3840"
     inkscape:window-height="2160"
     inkscape:window-x="0"
     inkscape:window-y="0"
     inkscape:window-maximized="1"
     inkscape:current-layer="svg1"
     showguides="true"><sodipodi:guide
       position="-100.54167,10.30625"
       orientation="0,-1"
       id="guide1"
       inkscape:locked="false" /></sodipodi:namedview><defs
     id="defs1"><inkscape:path-effect
       effect="mirror_symmetry"
       start_point="69.982178,272.96586"
       end_point="69.982178,302.4311"
       center_point="69.982178,287.69848"
       id="path-effect5-0-7-9"
       is_visible="true"
       lpeversion="1.2"
       lpesatellites=""
       mode="free"
       discard_orig_path="false"
       fuse_paths="true"
       oposite_fuse="false"
       split_items="false"
       split_open="false"
       link_styles="false" /><linearGradient
       id="a"
       gradientUnits="userSpaceOnUse"
       x1="23.898348"
       x2="85.692467"
       y1="24.665611"
       y2="24.665611"
       gradientTransform="matrix(3.5434,0,0,3.5434,-9.1609105,-10.181225)"><stop
         offset="0"
         stop-color="#fae4ed"
         id="stop1"
         style="stop-color:#5984bd;stop-opacity:1;" /><stop
         offset="1"
         stop-color="#1f1a17"
         stop-opacity=".992157"
         id="stop2" /></linearGradient></defs><g
     id="g5-3-1-8"
     transform="matrix(2.8516428,0,0,2.8516428,-149.56241,-770.68553)"
     inkscape:path-effect="#path-effect5-0-7-9"
     style="fill:#5883bc;fill-opacity:1;stroke-width:1.19663;stroke-dasharray:none"><path
       d="m 59.740001,285.13526 c -0.05248,5.82587 0.102878,9.46654 -0.13071,16.3046 2.353363,-6.25402 5.103118,-5.78797 6.741338,-6.16381 m 13.873726,-10.14079 c 0.05248,5.82587 -0.102878,9.46654 0.13071,16.3046 -2.353363,-6.25402 -5.103118,-5.78797 -6.741338,-6.16381"
       stroke-width="1.0694"
       id="path4-08-2-0-8-7-0"
       style="fill:#5883bc;fill-opacity:1;stroke:#000000;stroke-width:1.19663;stroke-dasharray:none"
       sodipodi:nodetypes="cccccccc"
       inkscape:original-d="m 59.740001,285.13526 c -0.05248,5.82587 0.102878,9.46654 -0.13071,16.3046 2.353363,-6.25402 5.103118,-5.78797 6.741338,-6.16381 m 12.424537,-7.8999 0.39314,6.61055 c 0.3877,1.85568 1.30345,1.12233 2.21605,-0.27014 0.12268,3.69197 0.14013,5.90501 0.2654,8.4964 -1.75625,-2.41465 -7.33126,-6.92299 -8.96947,-7.29883" /><path
       d="m 64.301516,285.24007 c -1.79298,-1.62202 -6.022338,-2.33154 -8.387197,-2.31257 l 0.0073,2.65027 c 3.59927,0.18841 5.705633,1.65646 8.299493,6.19014 0.47755,-1.90904 -0.27168,-2.0546 0.44732,-4.80842 m 10.994408,-1.71942 c 1.79298,-1.62202 6.022338,-2.33154 8.387197,-2.31257 l -0.0073,2.65027 c -3.59927,0.18841 -5.705633,1.65646 -8.299493,6.19014 -0.47755,-1.90904 0.27168,-2.0546 -0.44732,-4.80842"
       stroke-width="1.0694"
       id="path3-11-6-36-56-5-2"
       style="fill:#5883bc;fill-opacity:1;stroke:#000000;stroke-width:1.19663;stroke-dasharray:none"
       sodipodi:nodetypes="cccccccccc"
       inkscape:original-d="m 64.301516,285.24007 c -1.79298,-1.62202 -6.022338,-2.33154 -8.387197,-2.31257 l 0.0073,2.65027 c 3.59927,0.18841 5.705633,1.65646 8.299493,6.19014 0.47755,-1.90904 -0.27168,-2.0546 0.44732,-4.80842 m 11.00264,-1.71942 c 1.79297,-1.62202 5.53443,-2.64686 7.85803,-2.31257 l 0.3487,2.64152 c -3.59927,0.18841 -5.53244,1.66521 -8.1263,6.19889 -0.47755,-1.90904 0.27168,-2.0546 -0.44732,-4.80842" /><path
       d="m 65.015625,284.21289 c -0.396992,-0.0131 -0.644374,0.20357 -0.644531,0.78906 v 0.3711 l -0.05469,10.78711 c 2.164824,0.92927 3.959615,1.43155 5.666016,1.5664 1.706401,-0.13485 3.501192,-0.63713 5.666015,-1.5664 l -0.05469,-10.78711 v -0.3711 c -6.31e-4,-2.34198 -3.95949,1.21707 -5.611328,1.77539 -1.238879,-0.41874 -3.775821,-2.52525 -4.966797,-2.56445 z"
       stroke-width="1.02976"
       id="path5-5-8-62-1-9-1"
       style="fill:#5883bc;fill-opacity:1;stroke:#000000;stroke-width:1.19663;stroke-dasharray:none"
       sodipodi:nodetypes="ccccccsc"
       inkscape:original-d="m 64.371276,285.37312 -0.0545,10.78728 c 2.16625,0.92989 3.96136,1.43183 5.66877,1.56629 1.70741,-0.13446 3.50488,-0.6364 5.67114,-1.56629 l -0.0545,-11.15841 c -2.33378,0.21436 -3.96679,1.22222 -5.61659,1.77678 -1.64979,-0.55456 -5.613589,-4.12038 -5.61422,-1.77678 z" /><path
       d="m 66.691406,273.99023 c -3.375175,2.41 -3.331353,2.91357 -4.173828,3.90039 -0.869282,-0.92953 -3.34883,-0.96855 -5.359375,-1.01757 9.297562,5.72476 5.006521,9.28111 12.824219,10.15625 7.817698,-0.87514 3.526657,-4.43149 12.824219,-10.15625 -2.010545,0.049 -4.492046,0.088 -5.361329,1.01757 -0.842475,-0.98682 -0.798652,-1.49039 -4.173828,-3.90039 2.820621,4.91465 3.22565,8.25977 -1.947265,10.69922 -0.385686,0.12547 -0.881934,0.1623 -1.341797,0.17578 -0.459863,-0.0135 -0.956111,-0.0503 -1.341797,-0.17578 -5.172915,-2.43945 -4.769839,-5.78457 -1.949219,-10.69922 z"
       fill="#ffe680"
       stroke-width="8.05594"
       id="path2-0-4-6-5-2-1"
       style="fill:#5883bc;fill-opacity:1;stroke:#000000;stroke-width:1.0717;stroke-dasharray:none"
       sodipodi:nodetypes="ccccccccccc"
       inkscape:original-d="m 57.157558,276.87354 c 9.299025,5.72566 5.005572,9.28084 12.828289,10.15528 7.822725,-0.87444 9.053882,-7.55388 13.684378,-13.09856 -0.638726,-0.32195 -4.285411,3.28106 -5.547297,3.60906 -0.335994,-2.36926 -4.469197,-2.58607 -5.348105,-1.53055 3.818014,-0.72685 4.919363,7.62547 -1.444149,8.68134 -0.386712,0.1258 -0.883933,0.16098 -1.344827,0.1743 -0.460895,-0.0134 -0.958106,-0.0485 -1.344818,-0.1743 -5.17292,-2.43946 -4.769715,-5.78513 -1.949092,-10.69978 -3.375179,2.41 -3.331236,2.91431 -4.173712,3.90114 -0.869283,-0.92954 -3.35012,-0.96891 -5.360667,-1.01793 z" /></g></svg>
