<?xml version="1.0" encoding="UTF-8" standalone="no"?>
<svg
   height="100mm"
   width="100mm"
   version="1.1"
   id="svg3"
   xml:space="preserve"
   xmlns:xlink="http://www.w3.org/1999/xlink"
   xmlns="http://www.w3.org/2000/svg"
   xmlns:svg="http://www.w3.org/2000/svg"><defs
     id="defs3"><linearGradient
       id="linearGradient15"><stop
         style="stop-color:#fad028;stop-opacity:1;"
         offset="0"
         id="stop15" /><stop
         style="stop-color:#856a02;stop-opacity:1;"
         offset="1"
         id="stop16" /></linearGradient><linearGradient
       id="linearGradient1"><stop
         style="stop-color:#fad028;stop-opacity:1;"
         offset="0"
         id="stop3" /><stop
         style="stop-color:#856a02;stop-opacity:1;"
         offset="1"
         id="stop4" /></linearGradient><linearGradient
       xlink:href="#linearGradient1"
       id="linearGradient10"
       gradientUnits="userSpaceOnUse"
       x1="11.55808"
       y1="14.482181"
       x2="29.345848"
       y2="14.781514" /><linearGradient
       xlink:href="#linearGradient15"
       id="linearGradient24"
       gradientUnits="userSpaceOnUse"
       gradientTransform="matrix(1.0129572,0,0,1.0129572,-4.5651033,58.441256)"
       x1="78.383995"
       y1="130.82718"
       x2="313.14941"
       y2="130.82718" /></defs><g
     id="g17"
     transform="translate(-1163.8583)"><g
       id="use8"
       transform="rotate(45,1167.6451,639.88365)"><g
         id="g18"
         transform="matrix(0.96355173,0,0,0.96355173,788.68028,14.39362)"><path
           style="fill:url(#linearGradient24);fill-opacity:1;stroke:#000000;stroke-width:11.3386;stroke-dasharray:none"
           d="m 43.17343,181.19471 c 0.0323,-18.46627 2.262532,-36.01771 11.708574,-52.51024 1.980871,-2.36138 5.776522,-1.59829 8.115178,-0.32197 9.757819,5.32531 18.572328,5.70703 32.594138,10.89842 3.725999,-4.39186 12.26984,-8.60048 14.61172,1.99869 38.91367,6.71739 68.78645,3.79259 92.77376,-0.25923 4.15095,-7.60799 6.50469,-8.65302 10.93594,-2.11441 44.11721,-14.89589 88.51123,-3.28095 103.67368,19.11787 0,14.40433 0.1042,12.08349 -0.15002,22.48201 -0.0573,2.3425 6.68701,-9.37268 6.93938,0.56326 -0.24208,9.93619 -6.99849,-1.772 -6.93879,0.57044 0.26499,10.39825 0.15838,8.07752 0.1733,22.48184 -15.13925,22.41451 -59.52121,34.07542 -103.65383,19.22523 -4.42447,6.54319 -6.77929,5.5006 -10.93812,-2.10309 -23.99149,-4.02697 -53.86729,-6.92084 -92.77398,-0.16315 -2.3309,10.60159 -10.879097,6.40182 -14.609642,2.01382 -14.016426,5.20591 -22.830535,5.59675 -32.582834,10.93217 -2.337333,1.27874 -6.132192,2.04576 -8.115507,-0.31357 C 45.473261,217.21006 43.224852,199.66094 43.17343,181.19471 Z"
           id="path17"
           transform="matrix(1.0684955,0,0,1.0684955,-12.398879,-12.410476)" /><path
           style="fill:none;stroke:#000000;stroke-width:12.1152"
           d="M 97.036065,227.8975 C 89.18192,197.39985 86.063209,161.71309 99.142469,136.28877"
           id="path18" /></g><path
         style="fill:none;stroke:#000000;stroke-width:11.3386"
         d="m 842.35542,138.10699 c -16.72098,38.89651 -11.71666,71.62508 -0.46184,102.0085"
         id="path19" /><path
         style="fill:none;stroke:#000000;stroke-width:11.3386"
         d="m 214.75499,146.94874 c -8.3191,27.41115 -6.25982,56.35565 -0.36673,85.20901 m 0.36673,-1.15373 c -8.3191,-27.41115 -6.25982,-56.35565 -0.36673,-85.20901"
         id="path20"
         transform="translate(775.90552)" /><path
         style="fill:none;stroke:#000000;stroke-width:11.3386"
         d="m 1094.106,155.92541 c 0.7451,22.70094 0.4139,45.01525 0,65.97435"
         id="path21" /></g><g
       id="g8"
       transform="matrix(1.1379099,0,0,1.1379099,1154.0396,-86.587123)"><g
         id="g2-9-8"
         transform="matrix(0.74691527,0,0,0.74691527,44.38016,85.666374)"><g
           id="g6-2-5"
           transform="translate(22,-16)"><g
             id="g5-8-9"
             transform="translate(266.24219,137.64258)"><g
               id="g26"><g
                 id="g27" /><g
                 id="g28" /></g></g></g></g><g
         style="clip-rule:evenodd;fill:url(#linearGradient10);fill-opacity:1;fill-rule:evenodd;image-rendering:optimizeQuality;shape-rendering:geometricPrecision"
         id="g14-4-7"
         transform="matrix(3.5434,0,0,3.5434,21.564666,134.55487)" /></g></g><g
     id="use29"
     transform="translate(-1544.018,-27.619544)"><path
       id="circle30"
       style="fill:none;stroke:#000000;stroke-width:15.1805"
       transform="matrix(0.84992228,0,0,0.84992228,1449.5237,114.28023)"
       d="m 371.30122,178.85864 a 65.205429,65.205429 0 0 1 -65.20543,65.20543 65.205429,65.205429 0 0 1 -65.20542,-65.20543 65.205429,65.205429 0 0 1 65.20542,-65.20543 65.205429,65.205429 0 0 1 65.20543,65.20543 z" /><path
       id="path30"
       style="fill:none;stroke:#000000;stroke-width:15.1805"
       transform="matrix(0.84775658,-0.06063555,0.06063555,0.84775658,2013.8508,316.69491)"
       d="m -352.61684,-86.179451 44.21607,51.458103 -44.61226,-51.115002 -5.12089,67.65186 4.59813,-67.6894 -51.4581,44.216075 51.115,-44.612266 -67.65186,-5.120887 67.6894,4.598129 -44.21608,-51.458101 44.61227,51.115 5.12089,-67.65186 -4.59813,67.6894 51.4581,-44.21607 -51.115,44.612261 67.65186,5.120887 z" /></g></svg>
