<?xml version="1.0" encoding="UTF-8" standalone="no"?>
<svg
   viewBox="0 0 377.95276 377.95275"
   version="1.1"
   id="svg4"
   sodipodi:docname="cn.svg"
   width="100mm"
   height="100mm"
   inkscape:version="1.3.2 (091e20ef0f, 2023-11-25)"
   xml:space="preserve"
   xmlns:inkscape="http://www.inkscape.org/namespaces/inkscape"
   xmlns:sodipodi="http://sodipodi.sourceforge.net/DTD/sodipodi-0.dtd"
   xmlns:xlink="http://www.w3.org/1999/xlink"
   xmlns="http://www.w3.org/2000/svg"
   xmlns:svg="http://www.w3.org/2000/svg"><defs
     id="defs4"><linearGradient
       id="linearGradient23"
       inkscape:collect="always"><stop
         style="stop-color:#fad028;stop-opacity:1;"
         offset="0"
         id="stop23" /><stop
         style="stop-color:#856a02;stop-opacity:1;"
         offset="1"
         id="stop24" /></linearGradient><linearGradient
       id="a"
       gradientUnits="userSpaceOnUse"
       x1="23.898348"
       x2="85.692467"
       y1="24.665611"
       y2="24.665611"
       gradientTransform="matrix(3.5434,0,0,3.5434,-9.1609105,-10.181225)"><stop
         offset="0"
         stop-color="#fae4ed"
         id="stop1-2"
         style="stop-color:#E8C232;stop-opacity:1;" /><stop
         offset="1"
         stop-color="#1f1a17"
         stop-opacity=".992157"
         id="stop2-1" /></linearGradient><linearGradient
       inkscape:collect="always"
       xlink:href="#linearGradient23"
       id="linearGradient10"
       gradientUnits="userSpaceOnUse"
       x1="130.1644"
       y1="194.16879"
       x2="272.9382"
       y2="194.16879" /><linearGradient
       inkscape:collect="always"
       xlink:href="#linearGradient23"
       id="linearGradient11"
       gradientUnits="userSpaceOnUse"
       x1="130.1644"
       y1="194.16879"
       x2="272.9382"
       y2="194.16879" /><linearGradient
       inkscape:collect="always"
       xlink:href="#linearGradient23"
       id="linearGradient12"
       gradientUnits="userSpaceOnUse"
       x1="128.765"
       y1="194.16879"
       x2="272.9382"
       y2="194.16879" /><linearGradient
       inkscape:collect="always"
       xlink:href="#linearGradient23"
       id="linearGradient13"
       gradientUnits="userSpaceOnUse"
       x1="130.1644"
       y1="194.16879"
       x2="272.9382"
       y2="194.16879" /><linearGradient
       inkscape:collect="always"
       xlink:href="#linearGradient23"
       id="linearGradient15"
       gradientUnits="userSpaceOnUse"
       x1="130.1644"
       y1="194.16879"
       x2="272.9382"
       y2="194.16879" /><linearGradient
       inkscape:collect="always"
       xlink:href="#linearGradient23"
       id="linearGradient16"
       gradientUnits="userSpaceOnUse"
       x1="130.1644"
       y1="194.16879"
       x2="272.9382"
       y2="194.16879" /></defs><sodipodi:namedview
     id="namedview4"
     pagecolor="#ffffff"
     bordercolor="#000000"
     borderopacity="0.25"
     inkscape:showpageshadow="2"
     inkscape:pageopacity="0.0"
     inkscape:pagecheckerboard="0"
     inkscape:deskcolor="#d1d1d1"
     inkscape:zoom="2"
     inkscape:cx="240"
     inkscape:cy="138.25"
     inkscape:window-width="3840"
     inkscape:window-height="2160"
     inkscape:window-x="0"
     inkscape:window-y="0"
     inkscape:window-maximized="1"
     inkscape:current-layer="svg4"
     showguides="true"
     inkscape:document-units="mm"><sodipodi:guide
       position="-161.22035,35.713073"
       orientation="0,-1"
       id="guide1"
       inkscape:locked="false" /><sodipodi:guide
       position="37.123106,426.03601"
       orientation="1,0"
       id="guide9"
       inkscape:locked="false" /><sodipodi:guide
       position="-259.86174,340.12254"
       orientation="0,-1"
       id="guide16"
       inkscape:locked="false" /><sodipodi:guide
       position="340.11836,422.14692"
       orientation="1,0"
       id="guide17"
       inkscape:locked="false" /></sodipodi:namedview><g
     id="g22"
     style="fill:url(#linearGradient16);fill-opacity:1;stroke-width:10.3937;stroke-dasharray:none"
     transform="matrix(1.2964299,0,0,1.2964299,-24.535456,-15.11863)"><path
       style="fill:url(#linearGradient10);fill-opacity:1;fill-rule:evenodd;stroke:#000000;stroke-width:10.3937;stroke-dasharray:none"
       d="M 126.2536,90.150838 103.67328,48.886342 c 0,0 2.32004,34.005815 0.68061,50.422852 l 3.84685,21.444036"
       id="path16-1"
       sodipodi:nodetypes="cccc" /><path
       style="fill:url(#linearGradient11);fill-opacity:1;fill-rule:evenodd;stroke:#000000;stroke-width:10.3937;stroke-dasharray:none"
       d="m 106.06938,106.0561 -6.0182,-22.805698 c 17.15007,4.758586 19.08102,3.50298 24.15542,13.072643 l 11.09084,-16.380389 13.83344,15.187159 0.44697,-1.194509 2.15575,0.06428"
       id="path16"
       sodipodi:nodetypes="ccccccc" /><g
       id="g6"
       transform="matrix(1.146429,0,0,1.146429,-38.776759,-37.767352)"
       style="fill:url(#linearGradient15);fill-opacity:1;stroke-width:9.06615;stroke-dasharray:none"><path
         style="fill:url(#linearGradient12);fill-opacity:1;fill-rule:evenodd;stroke:#000000;stroke-width:7.62891;stroke-dasharray:none"
         d="m 134.09211,269.55426 104.70331,-0.0366 1.06832,-18.09021 c 11.37555,2.107 13.10492,6.67422 16.47082,12.19903 3.35984,-11.80115 -2.0355,-22.5225 -9.93865,-31.98601 1.36838,-1.06835 17.98743,-2.93567 25.05365,-4.92511 -7.40889,-4.62044 -15.31427,-8.8509 -20.59015,-13.17129 11.54187,1.95252 15.45339,-6.06326 22.76364,-14.99791 -12.55078,-2.67909 -24.75956,-8.24439 -33.40748,-18.72603 12.91091,-4.57088 13.6377,-15.21641 27.11979,-23.61765 -16.28631,-2.49882 -26.51702,-10.76083 -38.27061,-16.82988 8.28058,-4.51952 11.52707,-10.88868 28.23048,-23.69721 -27.73124,0.96475 -52.05714,-5.38354 -62.95496,3.67504 0.76118,-12.52776 2.72692,-6.29682 17.06755,-23.797229 -13.84353,0.477788 -26.90736,1.187467 -41.76432,10.044129 l 1.25913,17.63603 -3.87346,-26.754496 -11.51854,-16.823436 -9.47741,16.167767 c 1.27833,7.410195 -0.0913,15.705635 0.62742,23.197845 -11.06101,1.79304 -11.38667,0.89898 -21.54739,8.02229 -10.93912,6.82759 -0.92357,16.84391 -22.13643,33.62419 -8.267592,6.52496 -28.650366,30.32439 -20.962242,42.53182 6.430666,-2.87473 11.75688,-3.46008 13.65126,-3.88872 -0.54032,1.33136 -5.203716,5.52573 -8.967441,8.46713 5.587821,4.24834 16.496093,5.44675 22.401123,3.98074 9.61623,-2.38738 17.76434,-10.3601 25.55354,-10.18599 17.63454,-0.26183 30.13196,-7.80627 34.68494,-16.19133 0.44812,0.52123 -6.58248,8.79103 -6.58248,10.07523 0,3.32403 -0.28043,21.67952 -2.83249,29.3192 -5.67143,16.97759 -25.83092,26.22548 -25.83092,44.77866 z"
         id="path5"
         sodipodi:nodetypes="cccccccccccccccccccccccccsccssc" /><path
         style="fill:url(#linearGradient13);fill-opacity:1;fill-rule:evenodd;stroke:#000000;stroke-width:7.62891;stroke-dasharray:none"
         d="m 238.88128,272.70712 c -0.26265,-63.90597 1.2729,-122.71341 -70.5904,-153.13362"
         id="path6"
         sodipodi:nodetypes="cc" /></g></g><path
     d="m 150.01272,147.50955 -22.95482,10.42153 -9.73764,26.29128 c 7.97578,-1.76612 22.58819,-7.69812 26.32199,-10.63527 2.56653,-5.28857 6.32687,-22.14734 6.37047,-26.07754 z m 1.06339,-1.32851 -22.95479,10.42152 -9.73766,26.29127 c 7.97575,-1.76612 22.5882,-7.69809 26.32203,-10.63526 2.5665,-5.28855 6.32686,-22.14733 6.37042,-26.07753 z"
     fill="#1f1a17"
     fill-opacity="0.992157"
     opacity="0.99"
     id="path13-9"
     style="stroke-width:6.30661" /></svg>
