<?xml version="1.0" encoding="UTF-8" standalone="no"?>
<svg
   viewBox="0 0 377.95323 377.95323"
   version="1.1"
   id="svg4"
   sodipodi:docname="cn.svg"
   width="100mm"
   height="100mm"
   inkscape:version="1.3.2 (091e20ef0f, 2023-11-25)"
   xml:space="preserve"
   xmlns:inkscape="http://www.inkscape.org/namespaces/inkscape"
   xmlns:sodipodi="http://sodipodi.sourceforge.net/DTD/sodipodi-0.dtd"
   xmlns:xlink="http://www.w3.org/1999/xlink"
   xmlns="http://www.w3.org/2000/svg"
   xmlns:svg="http://www.w3.org/2000/svg"><defs
     id="defs4"><linearGradient
       id="linearGradient23"
       inkscape:collect="always"><stop
         style="stop-color:#fad028;stop-opacity:1;"
         offset="0"
         id="stop23" /><stop
         style="stop-color:#856a02;stop-opacity:1;"
         offset="1"
         id="stop24" /></linearGradient><linearGradient
       id="a"
       gradientUnits="userSpaceOnUse"
       x1="23.898348"
       x2="85.692467"
       y1="24.665611"
       y2="24.665611"
       gradientTransform="matrix(3.5434,0,0,3.5434,-9.1609105,-10.181225)"><stop
         offset="0"
         stop-color="#fae4ed"
         id="stop1-2"
         style="stop-color:#E8C232;stop-opacity:1;" /><stop
         offset="1"
         stop-color="#1f1a17"
         stop-opacity=".992157"
         id="stop2-1" /></linearGradient><linearGradient
       inkscape:collect="always"
       xlink:href="#linearGradient23"
       id="linearGradient10"
       gradientUnits="userSpaceOnUse"
       x1="130.1644"
       y1="194.16879"
       x2="272.9382"
       y2="194.16879"
       gradientTransform="translate(3.0482962)" /><linearGradient
       inkscape:collect="always"
       xlink:href="#linearGradient23"
       id="linearGradient11"
       gradientUnits="userSpaceOnUse"
       x1="130.1644"
       y1="194.16879"
       x2="272.9382"
       y2="194.16879" /><linearGradient
       inkscape:collect="always"
       xlink:href="#linearGradient23"
       id="linearGradient12"
       gradientUnits="userSpaceOnUse"
       x1="128.765"
       y1="194.16879"
       x2="272.9382"
       y2="194.16879" /><linearGradient
       inkscape:collect="always"
       xlink:href="#linearGradient23"
       id="linearGradient13"
       gradientUnits="userSpaceOnUse"
       x1="130.1644"
       y1="194.16879"
       x2="272.9382"
       y2="194.16879" /><linearGradient
       inkscape:collect="always"
       xlink:href="#linearGradient23"
       id="linearGradient15"
       gradientUnits="userSpaceOnUse"
       x1="130.1644"
       y1="194.16879"
       x2="272.9382"
       y2="194.16879" /><linearGradient
       inkscape:collect="always"
       xlink:href="#linearGradient23"
       id="linearGradient16"
       gradientUnits="userSpaceOnUse"
       x1="130.1644"
       y1="194.16879"
       x2="272.9382"
       y2="194.16879" /></defs><sodipodi:namedview
     id="namedview4"
     pagecolor="#ffffff"
     bordercolor="#000000"
     borderopacity="0.25"
     inkscape:showpageshadow="2"
     inkscape:pageopacity="0.0"
     inkscape:pagecheckerboard="0"
     inkscape:deskcolor="#d1d1d1"
     inkscape:zoom="4.0000001"
     inkscape:cx="164.875"
     inkscape:cy="146.875"
     inkscape:window-width="3840"
     inkscape:window-height="2160"
     inkscape:window-x="0"
     inkscape:window-y="0"
     inkscape:window-maximized="1"
     inkscape:current-layer="svg4"
     showguides="true"
     inkscape:document-units="mm"
     showgrid="false"><sodipodi:guide
       position="37.123106,426.03601"
       orientation="1,0"
       id="guide9"
       inkscape:locked="false" /><sodipodi:guide
       position="-259.86174,340.12254"
       orientation="0,-1"
       id="guide16"
       inkscape:locked="false" /><sodipodi:guide
       position="340.11836,422.14692"
       orientation="1,0"
       id="guide17"
       inkscape:locked="false" /></sodipodi:namedview><g
     id="g1"
     transform="matrix(1.012172,0,0,1.012172,-2.321368,-4.2559789)"
     style="stroke-width:11.20224317;stroke-dasharray:none"><g
       id="g22"
       style="fill:url(#linearGradient16);fill-opacity:1;stroke-width:8.64083987;stroke-dasharray:none"
       transform="matrix(1.2964299,0,0,1.2964299,-24.535456,-15.11863)"><path
         style="fill:url(#linearGradient10);fill-opacity:1;fill-rule:evenodd;stroke:#000000;stroke-width:8.64084;stroke-dasharray:none"
         d="M 129.3019,90.150838 118.22965,67.668924 c 0,0 -6.82218,17.956727 -5.24586,33.808906 l -1.73475,19.2754"
         id="path16-1"
         sodipodi:nodetypes="cccc" /><path
         style="fill:url(#linearGradient11);fill-opacity:1;fill-rule:evenodd;stroke:#000000;stroke-width:8.64084;stroke-dasharray:none"
         d="m 113.17364,106.40737 -5.23157,-20.11016 c 17.15007,4.758586 15.75922,2.580849 22.81993,11.463603 l 4.53544,-17.818157 13.83344,15.187159 0.44697,-1.194509 2.15575,0.06428"
         id="path16"
         sodipodi:nodetypes="ccccccc" /><g
         id="g6"
         transform="matrix(1.146429,0,0,1.146429,-38.776759,-37.767352)"
         style="fill:url(#linearGradient15);fill-opacity:1;stroke-width:7.53717838;stroke-dasharray:none"><g
           id="g2"><path
             style="fill:url(#linearGradient12);fill-opacity:1;fill-rule:evenodd;stroke:#000000;stroke-width:7.53718;stroke-dasharray:none"
             d="m 134.09211,269.55426 106.51933,-0.0366 -0.7477,-18.09021 c 11.37555,2.107 13.10492,5.32856 16.47082,10.85337 3.35984,-11.80115 -2.0355,-21.17684 -9.93865,-30.64035 1.36838,-1.06835 17.98743,-2.93567 25.05365,-4.92511 -7.40889,-4.62044 -15.31427,-8.8509 -20.59015,-13.17129 11.54187,1.95252 15.45339,-6.06326 22.76364,-14.99791 -12.55078,-2.67909 -24.75956,-8.24439 -33.40748,-18.72603 12.91091,-4.57088 13.6377,-15.21641 27.11979,-23.61765 -16.28631,-2.49882 -26.51702,-10.76083 -38.27061,-16.82988 8.28058,-4.51952 11.52707,-10.88868 28.23048,-23.69721 -27.73124,0.96475 -52.05714,-5.38354 -62.95496,3.67504 0.76118,-12.52776 2.72692,-6.29682 17.06755,-23.797229 -13.84353,0.477788 -31.65024,0.103326 -46.5072,8.959989 l 4.37959,16.39526 -3.62229,-13.14867 -9.93621,-17.690644 c -5.56033,7.400465 -10.05405,18.600734 -9.06107,28.951904 -11.06135,1.79386 -25.87338,8.48013 -31.77257,27.29981 -5.8992,18.81968 -43.57223,38.95521 -29.648609,57.55845 4.39765,-0.9023 12.16987,-3.60798 14.629079,-3.73024 -0.54032,1.33136 -7.413151,4.92472 -11.176876,7.86612 5.51588,9.86979 35.269616,-7.68746 45.799756,-7.4307 20.1974,2.76147 34.28277,-6.25287 35.84239,-15.49803 0.44812,0.52123 -0.80263,12.70759 -9.64343,15.3723 -3.1826,0.95927 -1.03652,17.17228 -4.75577,24.31685 -8.66306,14.70518 -21.8425,18.30363 -21.8425,44.77866 z"
             id="path5"
             sodipodi:nodetypes="ccccccccccccccccccczcccccscc" /></g><path
           style="fill:url(#linearGradient13);fill-opacity:1;fill-rule:evenodd;stroke:#000000;stroke-width:7.53718;stroke-dasharray:none"
           d="M 239.90857,269.34346 C 239.64592,205.43749 239.09336,148.97954 167.23006,118.55933"
           id="path6"
           sodipodi:nodetypes="cc" /></g></g><path
       d="m 150.01272,147.50955 -22.95482,10.42153 -7.18473,26.29128 22.85355,-9.9401 z"
       fill="#1f1a17"
       fill-opacity="0.992157"
       opacity="0.99"
       id="path13-9"
       style="stroke-width:11.2022;stroke-dasharray:none"
       sodipodi:nodetypes="ccccc" /></g></svg>
