<?xml version="1.0" encoding="UTF-8" standalone="no"?>
<svg
   height="100mm"
   width="100mm"
   version="1.1"
   id="svg3"
   xml:space="preserve"
   xmlns:xlink="http://www.w3.org/1999/xlink"
   xmlns="http://www.w3.org/2000/svg"
   xmlns:svg="http://www.w3.org/2000/svg"><defs
     id="defs3"><linearGradient
       id="linearGradient114"><stop
         style="stop-color:#fad028;stop-opacity:1;"
         offset="0"
         id="stop114" /><stop
         style="stop-color:#856a02;stop-opacity:1;"
         offset="1"
         id="stop115" /></linearGradient><linearGradient
       xlink:href="#linearGradient114"
       id="linearGradient115"
       x1="454.93338"
       y1="190.59755"
       x2="700.75708"
       y2="190.59755"
       gradientUnits="userSpaceOnUse" /></defs><path
     style="opacity:1;fill:url(#linearGradient115);stroke:#000000;stroke-width:11.3386;stroke-dasharray:none;stroke-opacity:1"
     d="m 579.20383,339.0708 c -0.6979,-0.0282 -1.71414,-0.14154 -1.82019,-0.27121 -14.86868,-18.17919 -31.01239,-33.92904 -39.5311,-47.79666 l 1.52832,17.81348 -14.07519,-10.17969 c -2.57712,-12.64854 -7.10478,-20.7199 -22.85888,-11.1709 2.67793,-19.92431 4.72655,-40.23937 8.79735,-59.29883 -7.38965,1.83054 -10.7651,1.61981 -13.28197,6.71065 -1.81016,3.66137 -2.47837,12.17136 -7.14527,16.28862 2.81514,-21.93365 -10.74944,-48.13574 9.39307,-61.28149 l -26.15235,25.16504 c -7.1472,-27.86441 2.69373,-38.75531 10.02539,-52.15332 l -9.83887,5.61816 c 1.51194,-13.38911 4.81465,-23.59283 8.8833,-32.43408 l -14.81005,7.70166 c 4.49532,-8.5911 8.20827,-17.43421 16.91455,-24.66895 l -14.56933,-2.78857 c 5.54761,-7.76868 24.23444,-13.37168 21.21923,-19.667971 -4.1573,-3.220743 -8.98812,-5.25143 -11.66064,-11.095703 12.97548,-4.747962 21.28793,-1.949379 34.4331,-4.523926 -4.65316,-3.647949 -11.5766,-6.356325 -13.95947,-10.943848 10.71249,1.82906 26.00942,-0.726248 30.86523,-5.695313 3.62744,1.933818 -4.81919,-5.320902 -11.23339,-9.624023 13.68522,-4.937835 19.11446,-4.224004 33.25878,4.333985 l -1.47314,-10.360352 c 4.14197,0.573595 7.37085,0.788358 9.92295,0.71952 8.24373,-0.22236 12.47317,-3.474968 14.97801,-5.22271 2.53052,1.710329 6.80783,4.899733 15.05395,4.999573 2.55284,0.03091 5.77818,-0.23181 9.91117,-0.866888 l -1.31904,10.381098 c 14.0156,-8.767217 19.43363,-9.561643 33.19071,-4.827705 -6.34955,4.397956 -14.68745,11.777385 -11.08914,9.78988 4.92911,4.896363 20.26232,7.224089 30.94645,5.236052 -2.31444,4.622424 -9.19687,7.433378 -13.79531,11.150066 13.18197,2.378936 21.45192,-0.542854 34.49652,4.011779 -2.58539,5.883339 -7.3855,7.985584 -11.49448,11.267745 -2.92132,6.340401 15.8467,11.665111 21.50913,19.350501 l -14.52628,3.00475 c 8.81282,7.10457 12.65676,15.89153 17.27924,24.41489 l -14.92285,-7.48075 c 4.19957,8.77982 7.65353,18.93334 9.36426,32.29851 l -9.92127,-5.47135 c 7.52994,13.28759 17.53161,24.03106 10.79924,51.9986 l -26.52339,-24.77366 c 20.33562,12.84499 7.16188,39.24575 10.30262,61.13515 -4.72756,-4.04746 -5.52215,-12.54658 -7.38651,-16.18065 -2.59224,-5.05288 -5.96419,-4.79202 -13.38022,-6.51255 4.35356,18.99687 6.70382,39.27924 9.67751,59.16156 -15.89425,-9.31385 -20.30148,-1.17611 -22.69037,11.50933 l -13.92237,10.38771 1.26346,-17.83422 c -8.31171,13.99267 -24.21961,29.98066 -38.81652,48.37878 -0.10411,0.13123 -1.11855,0.25962 -1.81595,0.29823 z"
     id="path112"
     transform="translate(-387.95276)" /><g
     id="g118"
     transform="translate(-387.95276)"><g
       id="g117"><path
         style="opacity:1;fill:none;fill-opacity:1;stroke:#000000;stroke-width:11.3386;stroke-dasharray:none;stroke-opacity:1"
         d="m 562.99512,165.86915 -4.66016,-2.19141 m 32.19254,2.19141 4.66016,-2.19141"
         id="path118" /><path
         style="opacity:1;fill:none;fill-opacity:1;stroke:#000000;stroke-width:11.3386;stroke-dasharray:none;stroke-opacity:1"
         d="m 659.93277,97.453126 c -20.01473,8.573644 -46.06012,11.127794 -60.51619,23.041684 -8.36006,1.27241 -10.59494,0.10395 -12.30978,-1.27175 0.0677,4.22259 -4.58139,7.13441 -9.64278,11.72274 l 36.9423,9.17287 c 5.82435,-3.08204 11.10907,-4.40075 13.8462,-9.89684 0.25496,-0.51195 1.42912,3.06665 2.01671,3.18558 -0.6227,-0.70079 -0.68584,-6.05941 -0.40675,-6.72952 2.70337,-6.49084 4.57975,-12.10509 7.05173,-17.85415 M 493.58985,97.453126 c 20.01473,8.573644 46.06012,11.127794 60.51619,23.041684 8.36006,1.27241 10.59494,0.10395 12.30978,-1.27175 -0.0677,4.22259 4.58139,7.13441 9.64278,11.72274 l -36.9423,9.17287 c -5.82435,-3.08204 -11.10907,-4.40075 -13.8462,-9.89684 -0.25496,-0.51195 -1.42912,3.06665 -2.01671,3.18558 0.6227,-0.70079 0.68584,-6.05941 0.40675,-6.72952 -2.70337,-6.49084 -4.57975,-12.10509 -7.05173,-17.85415"
         id="path117" /><path
         style="opacity:1;fill:none;fill-opacity:1;stroke:#000000;stroke-width:11.3386;stroke-dasharray:none;stroke-opacity:1"
         d="m 576.93008,237.30915 c -1.46303,0.0342 -2.02085,-3.12974 -5.32194,-5.16672 -11.26757,-6.95278 -24.53695,-28.26954 -26.20872,-48.05649 l -31.17578,8.15821 c 4.09936,3.37582 24.10966,0.50467 25.19294,5.44934 -18.3772,1.0187 -8.04647,2.71542 -25.54207,-5.81165 26.47795,0.61543 29.56694,-3.35522 25.36329,-18.11572 1.65365,-8.30621 6.64198,-16.97851 10.35449,-25.51075 l 27.62207,-11.62744 m -0.62182,100.68122 c 1.46303,0.0342 2.02085,-3.12974 5.32194,-5.16672 11.26757,-6.95278 24.53695,-28.26954 26.20872,-48.05649 l 31.17578,8.15821 c -4.09936,3.37582 -24.10966,0.50467 -25.19294,5.44934 18.3772,1.0187 8.04647,2.71542 25.54207,-5.81165 -26.47795,0.61543 -29.56694,-3.35522 -25.36329,-18.11572 -1.65365,-8.30621 -6.64198,-16.97851 -10.35449,-25.51075 l -27.62207,-11.62744"
         id="path116" /></g></g></svg>
