<?xml version="1.0" encoding="UTF-8" standalone="no"?>
<svg
   viewBox="0 0 304.15465 284.74304"
   version="1.1"
   id="svg4"
   width="80.474251mm"
   height="75.338264mm"
   xml:space="preserve"
   xmlns:xlink="http://www.w3.org/1999/xlink"
   xmlns="http://www.w3.org/2000/svg"
   xmlns:svg="http://www.w3.org/2000/svg"><defs
     id="defs4"><linearGradient
       id="linearGradient23"><stop
         style="stop-color:#fad028;stop-opacity:1;"
         offset="0"
         id="stop23" /><stop
         style="stop-color:#856a02;stop-opacity:1;"
         offset="1"
         id="stop24" /></linearGradient><linearGradient
       xlink:href="#linearGradient23"
       id="linearGradient24"
       x1="72.206757"
       y1="336.70593"
       x2="265.39099"
       y2="337.85046"
       gradientUnits="userSpaceOnUse" /><linearGradient
       xlink:href="#linearGradient23"
       id="linearGradient29"
       gradientUnits="userSpaceOnUse"
       x1="78.803329"
       y1="335.39752"
       x2="265.39099"
       y2="337.85046" /><linearGradient
       xlink:href="#linearGradient23"
       id="linearGradient30"
       gradientUnits="userSpaceOnUse"
       x1="72.206757"
       y1="336.70593"
       x2="265.39099"
       y2="337.85046" /><linearGradient
       xlink:href="#linearGradient23"
       id="linearGradient31"
       gradientUnits="userSpaceOnUse"
       x1="72.206757"
       y1="336.70593"
       x2="265.39099"
       y2="337.85046" /><linearGradient
       xlink:href="#linearGradient23"
       id="linearGradient33"
       gradientUnits="userSpaceOnUse"
       x1="72.206757"
       y1="336.70593"
       x2="265.39099"
       y2="337.85046" /><linearGradient
       xlink:href="#linearGradient23"
       id="linearGradient34"
       gradientUnits="userSpaceOnUse"
       x1="72.206757"
       y1="336.70593"
       x2="265.39099"
       y2="337.85046" /></defs><g
     id="g30"
     style="stroke-width:10.3937;stroke-dasharray:none"
     transform="matrix(1.0277108,0,0,1.0277108,-47.72705,-40.932864)"><g
       id="g22"
       style="fill:url(#linearGradient24);stroke-width:10.3937;stroke-dasharray:none"><path
         style="fill:url(#linearGradient30);fill-rule:evenodd;stroke:#000000;stroke-width:10.3937;stroke-dasharray:none"
         d="M 121.44362,94.062725 88.239911,42.648508 c 0,0 10.120692,33.329648 5.549127,56.263268 l 10.519552,21.841454"
         id="path16-1" /><path
         style="fill:url(#linearGradient31);fill-rule:evenodd;stroke:#000000;stroke-width:10.3937;stroke-dasharray:none"
         d="m 86.1915,119.82053 -24.30464,-5.11288 c 13.054134,-6.67456 21.044122,-3.31458 41.02369,-9.7735 l -26.662426,-20.537676 70.801166,9.463422 2.52856,0.07541 2.15575,0.06428"
         id="path16" /><g
         id="g6"
         transform="matrix(1.146429,0,0,1.146429,-38.776759,-37.767352)"
         style="fill:url(#linearGradient34);stroke-width:9.06615;stroke-dasharray:none"><g
           id="g29"
           style="fill:url(#linearGradient33);stroke-width:9.06615;stroke-dasharray:none"><path
             style="fill:url(#linearGradient29);fill-rule:evenodd;stroke:#000000;stroke-width:9.06615;stroke-dasharray:none"
             d="m 147.09055,303.37815 124.12447,0.20131 -0.67418,-21.12896 c 14.60323,5.89991 25.09716,8.43305 29.16647,15.16841 4.04451,-16.56392 -9.27295,-24.58615 -19.85631,-34.54106 11.54467,-3.02694 18.30561,-0.18127 39.20802,-5.14996 -11.85914,-5.74587 -30.73825,-15.19235 -41.21287,-25.73962 22.64652,6.00129 35.30157,-8.23257 44.01114,-16.67744 -24.79754,-5.22659 -41.44863,-16.10551 -54.76124,-28.007 28.54104,-3.63079 22.97731,-11.12911 42.54814,-28.36335 -30.29989,-2.33572 -31.38751,-4.55382 -63.96251,-19.77965 10.04524,-5.02737 23.95468,-18.89117 47.4593,-33.56575 -28.0865,-0.59582 -73.01089,-10.523689 -95.78843,6.78279 -0.76646,-12.41905 20.11948,-19.394559 26.84515,-36.099558 -13.84353,0.477788 -47.44291,11.917562 -54.37498,24.456718 l 1.44677,15.19111 -10.04688,-19.326067 -21.45113,-19.831326 -4.8457,18.824218 c 1.27833,7.410195 4.22613,17.433405 4.94483,24.925615 -11.06101,1.79304 -18.08785,7.54794 -28.24857,14.67125 -12.121851,11.78124 4.84525,43.59028 -10.74287,72.16267 -6.604082,12.37209 -8.575141,47.25022 5.49314,50.44585 6.19099,-13.87354 8.50341,-21.52725 9.66746,-22.67828 0.55936,1.32348 -0.59847,16.14718 -1.17994,20.88842 6.95521,-0.94716 13.22909,-3.37446 16.36795,-8.58658 5.11158,-8.48782 4.56877,-17.53718 14.509,-23.93474 18.6767,-4.27804 29.68746,-15.87399 31.14114,-35.53659 3.3561,3.90364 11.03562,39.90937 -2.94691,60.68394 -18.20356,19.34174 -27.99741,35.55385 -26.84046,54.54363 z"
             id="path5" /><path
             style="fill:none;fill-rule:evenodd;stroke:#000000;stroke-width:9.06615;stroke-dasharray:none"
             d="M 269.14664,304.30075 C 268.88399,240.39478 258.08953,137.86738 168.08227,113.6906"
             id="path6" /></g></g></g></g><path
     d="m 75.551145,84.854867 -16.47967,14.38765 -1.53562,24.281173 c 6.18863,-3.45736 16.85424,-12.03262 19.225,-15.40521 0.81407,-5.03581 -0.26563,-19.986123 -1.20971,-23.263613 z m 0.55247,-1.36946 -16.47965,14.38765 -1.53563,24.281173 c 6.18861,-3.45735 16.85425,-12.0326 19.22504,-15.40519 0.81404,-5.03583 -0.26564,-19.986143 -1.20976,-23.263633 z"
     fill="#1f1a17"
     fill-opacity="0.992157"
     opacity="0.99"
     id="path13-9"
     style="stroke-width:5.47276" /></svg>
