<?xml version="1.0" encoding="UTF-8" standalone="no"?>
<!-- Created with Inkscape (http://www.inkscape.org/) -->

<svg
   width="100mm"
   height="100mm"
   viewBox="0 0 99.999999 100"
   version="1.1"
   id="svg1"
   inkscape:version="1.3.2 (091e20ef0f, 2023-11-25)"
   sodipodi:docname="n.svg"
   xml:space="preserve"
   xmlns:inkscape="http://www.inkscape.org/namespaces/inkscape"
   xmlns:sodipodi="http://sodipodi.sourceforge.net/DTD/sodipodi-0.dtd"
   xmlns:xlink="http://www.w3.org/1999/xlink"
   xmlns="http://www.w3.org/2000/svg"
   xmlns:svg="http://www.w3.org/2000/svg"><sodipodi:namedview
     id="namedview1"
     pagecolor="#ffffff"
     bordercolor="#000000"
     borderopacity="0.25"
     inkscape:showpageshadow="2"
     inkscape:pageopacity="0.0"
     inkscape:pagecheckerboard="0"
     inkscape:deskcolor="#d1d1d1"
     inkscape:document-units="mm"
     inkscape:zoom="2"
     inkscape:cx="541.5"
     inkscape:cy="110.25"
     inkscape:window-width="3840"
     inkscape:window-height="2160"
     inkscape:window-x="0"
     inkscape:window-y="0"
     inkscape:window-maximized="1"
     inkscape:current-layer="layer1"
     showguides="true"
     showgrid="false"><sodipodi:guide
       position="-111.25729,10.30625"
       orientation="0,-1"
       id="guide1"
       inkscape:locked="false" /></sodipodi:namedview><defs
     id="defs1"><linearGradient
       id="linearGradient1"
       inkscape:collect="always"><stop
         style="stop-color:#fad028;stop-opacity:1;"
         offset="0"
         id="stop1" /><stop
         style="stop-color:#856a02;stop-opacity:1;"
         offset="1"
         id="stop2" /></linearGradient><linearGradient
       inkscape:collect="always"
       xlink:href="#linearGradient1"
       id="linearGradient2"
       x1="290.14095"
       y1="123.49524"
       x2="322.94266"
       y2="123.49524"
       gradientUnits="userSpaceOnUse" /><linearGradient
       inkscape:collect="always"
       xlink:href="#linearGradient1"
       id="linearGradient3"
       gradientUnits="userSpaceOnUse"
       x1="290.14095"
       y1="123.49524"
       x2="322.94266"
       y2="123.49524"
       gradientTransform="translate(1.5258055,-1.0172037)" /><linearGradient
       inkscape:collect="always"
       xlink:href="#linearGradient1"
       id="linearGradient4"
       gradientUnits="userSpaceOnUse"
       x1="290.14096"
       y1="143.58522"
       x2="322.94266"
       y2="143.58522" /></defs><g
     inkscape:label="Layer 1"
     inkscape:groupmode="layer"
     id="layer1"
     transform="translate(-80.072018,-72.833421)"><g
       id="g9"
       transform="matrix(1.9910006,0,0,1.9910006,-481.4019,-121.72902)"
       style="fill:url(#linearGradient2);fill-opacity:1;stroke-width:1.39559;stroke-dasharray:none"><path
         id="path1517-2"
         style="clip-rule:evenodd;fill:url(#linearGradient4);fill-opacity:1;fill-rule:evenodd;stroke:#000000;stroke-width:1.39559;stroke-dasharray:none;stroke-opacity:1;image-rendering:optimizeQuality;shape-rendering:geometricPrecision"
         d="m 321.325,142.05765 c 0,-3.99344 -0.21388,-16.82028 -2.85602,-22.32786 -1.32075,-2.64397 -4.01633,-4.94938 -5.93732,-6.10816 -1.92099,-1.16722 -4.34181,-2.14151 -6.43717,-2.4987 -0.83655,3.63504 -0.98521,-2.32364 -1.10798,-3.58738 -0.21763,-1.16153 -0.95424,-1.96959 -1.52818,-2.7329 -1.17471,1.23847 -2.99582,4.81157 -3.08301,6.45505 l -1.33418,-0.32313 c -0.9625,-2.65338 -1.11821,-3.68523 -2.69689,-4.67427 -0.57405,-0.39623 -1.95163,-0.78111 -2.65383,-1.1202 0.32484,2.70843 1.37474,7.02417 1.20648,7.20481 -0.32532,0.32532 -1.18344,1.45012 -1.28657,1.60012 -0.11063,0.14251 -1.03741,1.58276 -0.90073,2.11289 0.57525,2.23106 0.98044,4.9796 -0.57118,9.06166 -0.64346,2.23888 -2.07313,6.29028 1.80864,8.46806 4.66727,1.53321 4.85099,-5.65239 8.40294,-8.53301 0.65908,-0.31782 1.53747,-0.6787 2.04561,-1.17934 3.04808,-2.93142 0.60799,-3.48357 1.93459,-4.70753 0.97697,0.5945 -0.56205,3.50168 -0.01,5.28668 1.17524,3.52421 0.32348,6.69967 -1.51807,9.2341 -1.51297,1.94669 -2.95032,6.86042 -2.94845,8.37098 6.71766,0.0604 18.35697,-0.002 18.35697,-0.002 z"
         sodipodi:nodetypes="ccccccccccccccccccccccc" /><path
         style="clip-rule:evenodd;fill:url(#linearGradient3);fill-opacity:1;fill-rule:evenodd;stroke:#1f1a17;stroke-width:1.39559;stroke-linecap:butt;stroke-linejoin:miter;stroke-miterlimit:4;stroke-dasharray:none;stroke-opacity:1;image-rendering:optimizeQuality;shape-rendering:geometricPrecision"
         d="m 296.64742,118.64184 5.32636,-1.52678"
         id="path11999-4"
         sodipodi:nodetypes="cc" /></g></g></svg>
