<?xml version="1.0" encoding="UTF-8" standalone="no"?>
<svg
   id="svg3"
   width="100mm"
   height="100mm"
   clip-rule="evenodd"
   fill-rule="evenodd"
   image-rendering="optimizeQuality"
   shape-rendering="geometricPrecision"
   version="1.1"
   viewBox="0 0 106.66 106.66"
   sodipodi:docname="bR.svg"
   inkscape:version="1.4 (e7c3feb100, 2024-10-09)"
   xmlns:inkscape="http://www.inkscape.org/namespaces/inkscape"
   xmlns:sodipodi="http://sodipodi.sourceforge.net/DTD/sodipodi-0.dtd"
   xmlns="http://www.w3.org/2000/svg"
   xmlns:svg="http://www.w3.org/2000/svg">
  <sodipodi:namedview
     id="namedview1"
     pagecolor="#505050"
     bordercolor="#eeeeee"
     borderopacity="1"
     inkscape:showpageshadow="0"
     inkscape:pageopacity="0"
     inkscape:pagecheckerboard="0"
     inkscape:deskcolor="#505050"
     inkscape:document-units="mm"
     inkscape:zoom="3.666938"
     inkscape:cx="183.12281"
     inkscape:cy="187.62248"
     inkscape:window-width="3840"
     inkscape:window-height="2160"
     inkscape:window-x="0"
     inkscape:window-y="0"
     inkscape:window-maximized="1"
     inkscape:current-layer="svg3" />
  <defs
     id="defs3">
    <inkscape:path-effect
       effect="mirror_symmetry"
       start_point="14.065602,-1.42475"
       end_point="14.065602,29.756914"
       center_point="14.065602,14.166082"
       id="path-effect1"
       is_visible="true"
       lpeversion="1.2"
       lpesatellites=""
       mode="vertical"
       discard_orig_path="false"
       fuse_paths="true"
       oposite_fuse="false"
       split_items="false"
       split_open="false"
       link_styles="false" />
    <linearGradient
       id="linearGradient4"
       x1="3.8534"
       x2="24.368"
       y1="14.167"
       y2="14.167"
       gradientUnits="userSpaceOnUse">
      <stop
         id="stop3"
         stop-color="#fad028"
         offset="0" />
      <stop
         id="stop4"
         stop-color="#856a02"
         offset="1" />
    </linearGradient>
    <linearGradient
       id="linearGradient4-9"
       x1="3.8534"
       x2="24.368"
       y1="14.167"
       y2="14.167"
       gradientUnits="userSpaceOnUse"
       gradientTransform="matrix(3.4206,0,0,3.4206,104.67572,9.5030585)">
      <stop
         id="stop3-1"
         stop-color="#fad028"
         offset="0" />
      <stop
         id="stop4-2"
         stop-color="#856a02"
         offset="1" />
    </linearGradient>
  </defs>
  <path
     id="path4"
     d="m 14.065602,1.9097175 c -0.02937,-1.03e-5 -0.03613,1.3127553 -0.03613,1.9664153 L 11.47787,5.8505 C 9.87017,6.54839 8.57461,5.86094 8.77277,6.03563 l 1.8741,1.4887575 1.41714,-0.00125 v 0.00125 L 12.05196,9.8006489 H 10.6424 C 8.8035,11.337399 6.69148,10.28412 6.976,10.4957 l 2.3712,1.799482 h 1.645456 l -0.0042,2.494533 H 9.147 C 6.8775,16.513695 5.1208,15.41914 5.5039,15.723 c 0.7576,0.5834 1.54833,0.977848 2.306,1.561248 h 1.5967556 l 0.019851,2.80635 H 7.9035 C 6.101,21.722418 3.92029,20.73544 4.32,20.85982 l 2.4179114,1.7418 v 3.725311 h 7.3276906 7.327691 V 22.60162 l 2.417912,-1.7418 c 0.39971,-0.12438 -1.781,0.862598 -3.5835,-0.769222 h -1.523007 l 0.01985,-2.80635 h 1.596756 c 0.75767,-0.5834 1.5484,-0.977848 2.306,-1.561248 0.3831,-0.30386 -1.3736,0.790695 -3.6431,-0.933285 h -1.841456 l -0.0042,-2.494533 h 1.645456 l 2.3712,-1.799482 c 0.28452,-0.21158 -1.8275,0.841699 -3.6664,-0.6950511 h -1.40956 l -0.01205,-2.2762614 v -0.00125 l 1.41714,0.00125 1.8741,-1.4887575 c 0.19816,-0.17469 -1.0974,0.51276 -2.7051,-0.18513 L 14.101733,3.8761328 c 0,-0.65366 -0.0068,-1.9664256 -0.03613,-1.9664153"
     fill="url(#linearGradient4)"
     stroke="#000000"
     stroke-width="0.93549"
     style="font-variation-settings:'wdth' 80, 'wght' 749;stroke-width:0.93545;stroke-dasharray:none"
     sodipodi:nodetypes="cccccccsccccccccccccccc"
     transform="matrix(3.4206,0,0,3.4206,5.2172,4.8735)"
     inkscape:original-d="m 14.065602,1.9097175 c -0.02937,-1.03e-5 -0.03613,1.3127553 -0.03613,1.9664153 L 11.47787,5.8505 C 9.87017,6.54839 8.57461,5.86094 8.77277,6.03563 l 1.8741,1.4887575 1.41714,-0.00125 v 0.00125 L 12.05196,9.8006489 H 10.6424 C 8.8035,11.337399 6.69148,10.28412 6.976,10.4957 l 2.3712,1.799482 h 1.645456 l -0.0042,2.494533 H 9.147 C 6.8775,16.513695 5.1208,15.41914 5.5039,15.723 c 0.7576,0.5834 1.54833,0.977848 2.306,1.561248 h 1.5967556 l 0.019851,2.80635 H 7.9035 C 6.101,21.722418 3.92029,20.73544 4.32,20.85982 l 2.4179114,1.7418 v 3.725311 h 7.4747236"
     inkscape:path-effect="#path-effect1" />
  <path
     style="fill:#ea5858;fill-opacity:0.992157;stroke-width:3.1998"
     d="M 28.406386,83.042426 78.471284,82.443825"
     id="path1" />
  <path
     style="fill:none;fill-opacity:0.992157;stroke:#000000;stroke-width:3.1998;stroke-opacity:1"
     d="m 28.2649,82.184601 50.206384,0.259224"
     id="path6"
     sodipodi:nodetypes="cc" />
  <path
     style="fill:none;fill-opacity:0.992157;stroke:#000000;stroke-width:3.1998;stroke-opacity:1"
     d="M 37.461508,73.5954 H 69.198491"
     id="path7"
     sodipodi:nodetypes="cc" />
  <path
     style="fill:none;fill-opacity:0.992157;stroke:#000000;stroke-width:3.1998;stroke-opacity:1"
     d="M 37.393606,63.995999 H 69.266393"
     id="path8"
     sodipodi:nodetypes="cc" />
  <path
     style="fill:none;fill-opacity:0.992157;stroke:#000000;stroke-width:3.1998;stroke-opacity:1"
     d="M 42.804313,55.463199 H 63.855687"
     id="path9"
     sodipodi:nodetypes="cc" />
  <path
     style="fill:none;fill-opacity:0.992157;stroke:#000000;stroke-width:3.1998;stroke-opacity:1"
     d="M 42.818679,46.9304 H 63.84132"
     id="path10"
     sodipodi:nodetypes="cc" />
  <path
     style="fill:none;fill-opacity:0.992157;stroke:#000000;stroke-width:3.1998;stroke-opacity:1"
     d="M 46.442134,38.3976 H 60.217865"
     id="path11"
     sodipodi:nodetypes="cc" />
  <path
     style="fill:none;fill-opacity:0.992157;stroke:#000000;stroke-width:3.1998;stroke-opacity:1"
     d="m 46.483353,30.61142 13.693294,-0.0043"
     id="path12"
     sodipodi:nodetypes="cc" />
</svg>
