<?xml version="1.0" encoding="UTF-8" standalone="no"?>
<!-- Created with Inkscape (http://www.inkscape.org/) -->

<svg
   width="100mm"
   height="100mm"
   viewBox="0 0 99.999999 100"
   version="1.1"
   id="svg1"
   inkscape:version="1.3.2 (091e20ef0f, 2023-11-25)"
   sodipodi:docname="wn.svg"
   xml:space="preserve"
   xmlns:inkscape="http://www.inkscape.org/namespaces/inkscape"
   xmlns:sodipodi="http://sodipodi.sourceforge.net/DTD/sodipodi-0.dtd"
   xmlns="http://www.w3.org/2000/svg"
   xmlns:svg="http://www.w3.org/2000/svg"><sodipodi:namedview
     id="namedview1"
     pagecolor="#ffffff"
     bordercolor="#000000"
     borderopacity="0.25"
     inkscape:showpageshadow="2"
     inkscape:pageopacity="0.0"
     inkscape:pagecheckerboard="0"
     inkscape:deskcolor="#d1d1d1"
     inkscape:document-units="mm"
     inkscape:zoom="2"
     inkscape:cx="325.25"
     inkscape:cy="220.75"
     inkscape:window-width="3840"
     inkscape:window-height="2160"
     inkscape:window-x="0"
     inkscape:window-y="0"
     inkscape:window-maximized="1"
     inkscape:current-layer="layer1"
     showguides="true"><sodipodi:guide
       position="-84.402082,10.041667"
       orientation="0,-1"
       id="guide1"
       inkscape:locked="false" /></sodipodi:namedview><defs
     id="defs1" /><g
     inkscape:label="Layer 1"
     inkscape:groupmode="layer"
     id="layer1"
     transform="translate(-80.072018,-72.833421)"><path
       d="m 121.9755,82.224413 c -8.30541,5.930376 -8.19713,7.17043 -10.27025,9.59876 -2.13906,-2.287372 -8.24548,-2.384518 -13.192867,-2.50515 22.878827,14.087147 12.322267,22.833437 31.559637,24.986937 v -5.32451 c -1.13162,-0.033 -2.35237,-0.11723 -3.30146,-0.42613 C 114.0414,102.55143 115.0347,94.318074 121.9755,82.224413 Z"
       fill="#ffe680"
       stroke-width="8.05594"
       id="use1"
       style="fill:#ffffff;fill-opacity:1;stroke:#000000;stroke-width:2.63718;stroke-dasharray:none"
       sodipodi:nodetypes="ccccccc" /><g
       id="g9"
       transform="matrix(1.7012589,0,0,1.7012589,-390.95521,-80.258996)"
       style="fill:#ffffff;fill-opacity:1;stroke-width:1.39559;stroke-dasharray:none"><path
         fill="url(#0)"
         d="m 322.12234,142.05765 c -0.0507,0 0.1106,-1.65216 0.1106,-4.00042 0.0159,-1.93693 0.0159,-3.9376 0,-6.0086 -0.0159,-2.07193 -0.29344,-4.13542 -0.83346,-6.19985 -0.53157,-1.98474 -1.11096,-3.67509 -1.7466,-5.08044 -0.63471,-1.40535 -1.32566,-2.61195 -2.07193,-3.63572 -1.11097,-1.67442 -2.63538,-3.09571 -4.55637,-4.25449 -1.70685,-1.13456 -2.4349,-1.29831 -4.42288,-1.58768 -7.04373,-0.67063 -4.13069,1.12582 -4.10146,0.67969 0.79606,-3.38202 -0.0395,-4.95152 -1.0419,-6.40459 -1.17471,1.23847 -2.99582,4.04867 -3.08301,5.69215 l -1.33418,-0.32313 c -1.08658,-1.29336 -1.81084,-2.29484 -2.79467,-3.76603 -0.55801,-0.83443 -1.69306,-0.76281 -2.30175,-0.98828 0.30147,3.56061 1.12044,5.98401 0.95218,6.16465 -0.32532,0.32532 -1.18344,1.45012 -1.28657,1.60012 -0.11063,0.14251 -1.03741,1.58276 -0.90073,2.11289 0.57525,2.23106 0.72614,5.9968 -0.82548,10.07886 -1.38628,2.88275 -1.24413,2.93078 -1.60207,4.78259 -0.1425,0.52408 -0.1425,1.16722 0,1.91349 0.135,0.75377 0.4115,1.55534 0.87183,1.97629 0.38107,0.53866 0.77593,0.93237 1.77598,1.5758 5.64889,1.44664 6.15969,-8.4065 9.71164,-11.28712 0.65908,-0.31782 1.24597,-0.7219 1.75411,-1.22254 0.7144,-0.69845 1.26191,-1.55535 1.65098,-2.58006 0.20626,-0.57189 0.27751,-1.27785 0.2297,-2.11975 -0.13501,-0.52407 0.1275,-0.78564 0.79408,-0.78564 0.4997,0 0.25032,0.0893 0.31408,0.60497 0,1.7466 -1.5314,3.94906 -1.06405,5.45963 1.17524,3.52421 1.59498,6.69967 -0.24657,9.2341 -2.43071,3.25755 -4.33905,5.6304 -4.27735,8.37098 6.71766,0.0604 13.53549,-0.006 20.32581,-0.002 z"
         id="path1517-2"
         style="clip-rule:evenodd;fill:#ffffff;fill-opacity:1;fill-rule:evenodd;stroke:#000000;stroke-width:1.39559;stroke-dasharray:none;stroke-opacity:1;image-rendering:optimizeQuality;shape-rendering:geometricPrecision"
         sodipodi:nodetypes="ccscccccccccscccscccccccccscccccc" /><path
         style="clip-rule:evenodd;fill:#ffffff;fill-opacity:1;fill-rule:evenodd;stroke:#1f1a17;stroke-width:1.39559;stroke-linecap:butt;stroke-linejoin:miter;stroke-miterlimit:4;stroke-dasharray:none;stroke-opacity:1;image-rendering:optimizeQuality;shape-rendering:geometricPrecision"
         d="m 295.12162,119.65904 5.32636,-1.52678"
         id="path11999-4"
         sodipodi:nodetypes="cc" /></g></g></svg>
