<?xml version="1.0" encoding="UTF-8" standalone="no"?>
<!-- Created with Inkscape (http://www.inkscape.org/) -->

<svg
   width="100mm"
   height="100mm"
   viewBox="0 0 99.999999 100"
   version="1.1"
   id="svg1"
   inkscape:version="1.3.2 (091e20ef0f, 2023-11-25)"
   sodipodi:docname="wn.svg"
   xml:space="preserve"
   xmlns:inkscape="http://www.inkscape.org/namespaces/inkscape"
   xmlns:sodipodi="http://sodipodi.sourceforge.net/DTD/sodipodi-0.dtd"
   xmlns="http://www.w3.org/2000/svg"
   xmlns:svg="http://www.w3.org/2000/svg"><sodipodi:namedview
     id="namedview1"
     pagecolor="#ffffff"
     bordercolor="#000000"
     borderopacity="0.25"
     inkscape:showpageshadow="2"
     inkscape:pageopacity="0.0"
     inkscape:pagecheckerboard="0"
     inkscape:deskcolor="#d1d1d1"
     inkscape:document-units="mm"
     inkscape:zoom="2"
     inkscape:cx="304.25"
     inkscape:cy="150.25"
     inkscape:window-width="3840"
     inkscape:window-height="2160"
     inkscape:window-x="0"
     inkscape:window-y="0"
     inkscape:window-maximized="1"
     inkscape:current-layer="layer1"
     showguides="true"
     showgrid="false"><sodipodi:guide
       position="-111.25729,10.30625"
       orientation="0,-1"
       id="guide1"
       inkscape:locked="false" /></sodipodi:namedview><defs
     id="defs1" /><g
     inkscape:label="Layer 1"
     inkscape:groupmode="layer"
     id="layer1"
     transform="translate(-80.072018,-72.833421)"><g
       id="g9"
       transform="matrix(2.080868,0,0,2.080868,-508.97006,-134.40757)"
       style="fill:#ffffff;fill-opacity:1;stroke-width:1.39559;stroke-dasharray:none"><path
         fill="url(#0)"
         d="m 322.12234,142.05765 c 0.0349,0.007 0.1106,-1.65216 0.1106,-4.00042 0.0159,-1.93693 0.0159,-3.9376 0,-6.0086 -0.0159,-2.07193 -0.29344,-4.13542 -0.83346,-6.19985 -0.53157,-1.98474 -1.11096,-3.67509 -1.7466,-5.08044 -0.63471,-1.40535 -1.32566,-2.61195 -2.07193,-3.63572 -1.11097,-1.67442 -2.63538,-3.09571 -4.55637,-4.25449 -1.92099,-1.16722 -6.13706,-1.66238 -8.23242,-2.01957 -0.11928,0.66065 -0.32115,1.55771 -0.29192,1.11158 0.79606,-3.38202 -0.0395,-5.20582 -1.0419,-6.65889 -1.17471,1.23847 -2.99582,4.30297 -3.08301,5.94645 l -1.33418,-0.32313 c -2.23086,-3.83968 -3.64443,-4.16765 -5.35072,-5.00861 0.30147,3.56061 1.37474,6.23831 1.20648,6.41895 -0.32532,0.32532 -1.18344,1.45012 -1.28657,1.60012 -0.11063,0.14251 -1.03741,1.58276 -0.90073,2.11289 0.57525,2.23106 0.72614,5.9968 -0.82548,10.07886 -1.1729,2.50904 -1.23411,3.74078 -0.83917,4.91597 0.135,0.75377 0.4115,1.55534 0.87183,1.97629 0.38107,0.53866 0.77593,0.93237 1.77598,1.5758 5.64889,1.44664 5.39679,-6.62639 8.94874,-9.50701 0.65908,-0.31782 1.24597,-0.7219 1.75411,-1.22254 0.7144,-0.69845 1.26191,-1.55535 1.65098,-2.58006 0.20626,-0.57189 0.27751,-1.27785 0.2297,-2.11975 -0.13501,-0.52407 0.1275,-0.78564 0.79408,-0.78564 0.4997,0 0.25032,0.0893 0.31408,0.60497 0,1.7466 -1.5314,3.94906 -1.06405,5.45963 1.17524,3.52421 1.59498,6.69967 -0.24657,9.2341 -2.43071,3.25755 -4.33905,5.6304 -4.27735,8.37098 6.71766,0.0604 20.32581,-0.002 20.32581,-0.002 z"
         id="path1517-2"
         style="clip-rule:evenodd;fill:#ffffff;fill-opacity:1;fill-rule:evenodd;stroke:#000000;stroke-width:1.39559;stroke-dasharray:none;stroke-opacity:1;image-rendering:optimizeQuality;shape-rendering:geometricPrecision"
         sodipodi:nodetypes="ccsccccccccccccsccccccccscccccc" /><path
         style="clip-rule:evenodd;fill:#ffffff;fill-opacity:1;fill-rule:evenodd;stroke:#1f1a17;stroke-width:1.39559;stroke-linecap:butt;stroke-linejoin:miter;stroke-miterlimit:4;stroke-dasharray:none;stroke-opacity:1;image-rendering:optimizeQuality;shape-rendering:geometricPrecision"
         d="m 295.12162,119.65904 5.32636,-1.52678"
         id="path11999-4"
         sodipodi:nodetypes="cc" /></g></g></svg>
