<?xml version="1.0" encoding="UTF-8" standalone="no"?>
<svg
   clip-rule="evenodd"
   fill-rule="evenodd"
   height="100"
   image-rendering="optimizeQuality"
   shape-rendering="geometricPrecision"
   viewBox="0 0 28.221482 28.221482"
   width="100"
   version="1.1"
   id="svg3"
   sodipodi:docname="wr.svg"
   inkscape:version="1.3.2 (091e20ef0f, 2023-11-25)"
   xmlns:inkscape="http://www.inkscape.org/namespaces/inkscape"
   xmlns:sodipodi="http://sodipodi.sourceforge.net/DTD/sodipodi-0.dtd"
   xmlns="http://www.w3.org/2000/svg"
   xmlns:svg="http://www.w3.org/2000/svg">
  <defs
     id="defs3">
    <inkscape:path-effect
       effect="mirror_symmetry"
       start_point="14.110741,-1.4091999"
       end_point="14.110741,29.742645"
       center_point="14.110741,14.166723"
       id="path-effect4"
       is_visible="true"
       lpeversion="1.2"
       lpesatellites=""
       mode="vertical"
       discard_orig_path="false"
       fuse_paths="true"
       oposite_fuse="false"
       split_items="false"
       split_open="false"
       link_styles="false" />
  </defs>
  <sodipodi:namedview
     id="namedview3"
     pagecolor="#ffffff"
     bordercolor="#000000"
     borderopacity="0.25"
     inkscape:showpageshadow="2"
     inkscape:pageopacity="0.0"
     inkscape:pagecheckerboard="0"
     inkscape:deskcolor="#d1d1d1"
     inkscape:zoom="7.9999996"
     inkscape:cx="62.187503"
     inkscape:cy="25.062501"
     inkscape:window-width="3840"
     inkscape:window-height="2160"
     inkscape:window-x="0"
     inkscape:window-y="0"
     inkscape:window-maximized="1"
     inkscape:current-layer="svg3" />
  <linearGradient
     id="a"
     gradientUnits="userSpaceOnUse"
     x1="63.134541"
     x2="103.47049"
     y1="27.68082"
     y2="27.68082"
     gradientTransform="translate(-37.522978,0.122152)">
    <stop
       offset="0"
       stop-color="#fae4ed"
       id="stop1"
       style="stop-color:#5984bd;stop-opacity:1;" />
    <stop
       offset="1"
       stop-color="#1f1a17"
       id="stop2" />
  </linearGradient>
  <path
     id="path4"
     style="font-variation-settings:'wdth' 80, 'wght' 749;opacity:1;fill:#ffffff;fill-opacity:1;stroke:#000000;stroke-width:0.846644;stroke-dasharray:none;stroke-opacity:1"
     d="M 14.110741,26.233764 H 6.7345719 v -3.65708 h 7.3761691 7.376169 v 3.65708 z m 0,-3.656792 -7.4212686,0.02436 -2.3691602,-1.741849 c -0.3997089,-0.124382 1.7809741,0.816249 3.5834945,-0.81557 h 6.2069343 6.206934 c 1.802521,1.631819 3.983204,0.691188 3.583495,0.81557 l -2.36916,1.741849 z m 0,-2.533057 H 9.3391337 V 17.38706 h 4.7716073 4.771607 v 2.656855 z m 0,-2.656855 H 7.8101056 C 7.0524341,16.80366 6.2617306,16.306201 5.5040591,15.722801 5.1209542,15.418945 6.87762,16.607423 9.147207,14.883436 h 4.963534 4.963534 c 2.269587,1.723987 4.026253,0.535509 3.643148,0.839365 -0.757672,0.5834 -1.548375,1.080859 -2.306047,1.664259 z m 0,-2.50407 -3.222041,-0.02925 -0.01585,-2.566391 3.237891,-0.03071 3.237891,0.03071 -0.01585,2.566391 z m 0,-2.626457 -4.7632704,-0.0059 -2.3711971,-1.75523 c -0.2845236,-0.211578 1.8274764,0.80731 3.6663535,-0.7294445 l 3.468114,-0.070765 3.468114,0.070765 c 1.838877,1.5367545 3.950877,0.5178665 3.666354,0.7294445 l -2.371198,1.75523 z m 0,-2.5622805 H 12.073432 V 7.4868099 h 2.037309 2.037309 v 2.2074426 z m 0.07317,-7.7992021 c 0,-0.3926777 0.0078,1.2880209 0.0078,1.9416774 l 2.551647,2.0134891 c 1.607686,0.6978938 2.903225,0.010442 2.705065,0.1851348 L 17.574369,7.5228629 14.110741,7.4873194 10.647113,7.5228629 8.7730596,6.0353517 C 8.5749,5.860659 9.8704388,6.5481107 11.478125,5.8502169 l 2.551647,-2.0134891 c 0,-0.6536565 0.0078,-2.3343551 0.0078,-1.9416774"
     sodipodi:nodetypes="cccccccccccccccccccccccccccccc"
     inkscape:original-d="M 14.210233,26.233764 H 6.7345719 v -3.65708 h 7.4637831 l -7.5088826,0.02465 -2.3691602,-1.741849 c -0.3997089,-0.124382 1.7809741,0.816249 3.5834945,-0.81557 H 14.179054 9.3391337 V 17.38706 H 14.13955 7.8101056 C 7.0524341,16.80366 6.2617306,16.306201 5.5040591,15.722801 5.1209542,15.418945 6.87762,16.607423 9.147207,14.883436 h 5.012695 l -3.271202,-0.0297 -0.01585,-2.566391 3.247541,-0.0308 -4.7729204,-0.0059 -2.3711971,-1.75523 c -0.2845236,-0.211578 1.8274764,0.80731 3.6663535,-0.7294445 l 3.514816,-0.071718 H 12.073432 V 7.4868099 H 14.16039 L 10.647113,7.5228629 8.7730596,6.0353517 C 8.5749,5.860659 9.8704388,6.5481107 11.478125,5.8502169 l 2.551647,-2.0134891 c 0,-0.6536565 0.0078,-2.3343551 0.0078,-1.9416774"
     inkscape:path-effect="#path-effect4"
     transform="matrix(0.90593292,0,0,0.90593292,1.3273562,1.2766406)" />
</svg>
