<?xml version="1.0" encoding="UTF-8" standalone="no"?>
<svg
   height="100mm"
   width="100mm"
   version="1.1"
   id="svg3"
   xml:space="preserve"
   xmlns:xlink="http://www.w3.org/1999/xlink"
   xmlns="http://www.w3.org/2000/svg"
   xmlns:svg="http://www.w3.org/2000/svg"><defs
     id="defs3"><linearGradient
       id="linearGradient50"><stop
         style="stop-color:#fad028;stop-opacity:0.99215686;"
         offset="0"
         id="stop50" /><stop
         style="stop-color:#856a02;stop-opacity:1;"
         offset="1"
         id="stop51" /></linearGradient><linearGradient
       xlink:href="#linearGradient50"
       id="linearGradient51"
       x1="1283.8794"
       y1="997.12"
       x2="1428.0912"
       y2="997.12"
       gradientUnits="userSpaceOnUse"
       gradientTransform="translate(-1166.7809,-784.29004)" /></defs><path
     style="fill:url(#linearGradient51);fill-opacity:1;stroke:#000000;stroke-width:11.3386;stroke-opacity:1"
     d="m 187.07833,333.95886 c -3.067,0 -29.1973,-8.9404 -39.8675,-31.9594 l -11.284,3.5699 3.1276,-9.7814 c -144.2642958,1.7733 -89.184796,-85.48775 -84.912696,-94.00226 -11.6224,78.57516 20.8566,62.87226 43.9874,55.14546 1.4219,-3.6658 0.48,-6.5678 0,-9.6191 -3.455,0.2083 -7.6552,2.1678 -9.5706,-1.2421 1.5337,-5.3297 1.7388,-10.059 7.6287,-17.2623 -3.5607,-1.1852 -7.0842,-2.4268 -9.4985,-5.3445 4.6104,-25.94691 30.813596,-59.12556 30.043496,-81.20348 l -28.718996,-5.93043 c 1.7608,-5.74667 1.1272,-9.29336 -0.7041,-11.73967 -4.1265,0.32798 -8.2412,0.68521 -12.0086,1.90854 -13.652,-24.8951 -8.2549,-50.148522 -11.467,-70.937302 33.0228,-2.4844 54.152496,25.59776 74.914196,41.068872 4.784,-14.607622 11.3882,-24.165932 23.4141,-32.108692 8.2727,-5.46377 20.7525,-9.0009 24.9165,-9.08733 4.164,0.0864 16.6438,3.62356 24.9164,9.08733 12.02586,7.94276 18.63006,17.50107 23.41406,32.108692 20.7617,-15.471112 41.8914,-43.553272 74.9142,-41.068872 -3.2121,20.78878 2.185,46.042202 -11.467,70.937302 -3.7674,-1.22333 -7.8821,-1.58056 -12.0086,-1.90854 -1.8313,2.44631 -2.4649,5.993 -0.7041,11.73967 l -28.719,5.93043 c -0.7701,22.07792 25.4331,55.25657 30.0435,81.20348 -2.4143,2.9177 -5.9378,4.1593 -9.4985,5.3445 5.8899,7.2033 6.095,11.9326 7.6287,17.2623 -1.9154,3.4099 -6.1156,1.4504 -9.5706,1.2421 -0.48,3.0513 -1.4219,5.9533 0,9.6191 23.1308,7.7268 55.6098,23.4297 43.9874,-55.14546 4.2721,8.51451 59.3516,95.77556 -84.9127,94.00226 l 3.1276,9.7814 -11.284,-3.5699 c -10.67016,23.019 -36.80036,31.9594 -39.86736,31.9594 z"
     id="path5" /><g
     id="g46"
     transform="translate(-1166.7809,-784.29004)"><path
       style="fill:none;fill-opacity:0.992157;stroke:#000000;stroke-width:11.3386;stroke-opacity:1"
       d="m 1235.8975,845.57813 c 8.64,11.57815 19.1608,19.9294 22,41.45996 4.0596,1.36163 8.1191,2.17046 12.1787,6.70801 1.7807,12.90506 14.7659,14.65867 23.5586,20.58496 m 183.4115,-68.75293 c -8.64,11.57815 -19.1608,19.9294 -22,41.45996 -4.0596,1.36163 -8.1191,2.17046 -12.1787,6.70801 -1.7807,12.90506 -14.7659,14.65867 -23.5586,20.58496"
       id="path42" /><path
       d="m 1327.1153,980.16281 c 3.8095,-1.96376 4.947,-5.56936 1.9638,-5.56936 -0.9658,0 -4.4319,-2.36081 -7.619,-5.66594 -8.3486,-8.03748 -11.3533,-10.30172 -13.9396,-10.30172 -2.3607,0 -3.1869,3.09052 -0.8155,3.9168 1.1376,0.33266 1.1376,1.23406 0,3.09052 -3.1978,5.97714 -0.7511,11.16019 6.9001,14.57263 4.5391,2.06035 9.4754,1.96376 13.7033,-0.21461 z m 58.7132,0 c -3.8095,-1.96376 -4.947,-5.56936 -1.9638,-5.56936 0.9658,0 4.4319,-2.36081 7.619,-5.66594 8.3486,-8.03748 11.3533,-10.30172 13.9396,-10.30172 2.3607,0 3.1869,3.09052 0.8155,3.9168 -1.1376,0.33266 -1.1376,1.23406 0,3.09052 3.1978,5.97714 0.7511,11.16019 -6.9001,14.57263 -4.5391,2.06035 -9.4754,1.96376 -13.7033,-0.21461 z"
       style="fill:#000000;fill-opacity:0.992157;stroke:none;stroke-width:0.111022;stroke-opacity:1"
       id="path1-93" /></g><path
     style="fill:none;fill-opacity:0.992157;stroke:#000000;stroke-width:11.3386;stroke-opacity:1"
     d="m 153.02603,299.63846 c 11.9512,-13.1504 24.679,-10.0679 36.406,-7.7617 11.3484,-4.3082 25.643,-4.4813 38.93026,4.7679 -10.74056,13.2004 -17.80276,30.5427 -37.32786,33.8513 -17.0139,-5.1196 -30.6596,-14.2445 -38.0084,-30.8575 z"
     id="path44" /></svg>
