<?xml version="1.0" encoding="UTF-8" standalone="no"?>
<svg
   height="100mm"
   width="100mm"
   version="1.1"
   id="svg3"
   xml:space="preserve"
   xmlns:xlink="http://www.w3.org/1999/xlink"
   xmlns="http://www.w3.org/2000/svg"
   xmlns:svg="http://www.w3.org/2000/svg"><defs
     id="defs3"><linearGradient
       id="linearGradient48"><stop
         style="stop-color:#fad028;stop-opacity:1;"
         offset="0"
         id="stop49" /><stop
         style="stop-color:#856a02;stop-opacity:1;"
         offset="1"
         id="stop48" /></linearGradient><linearGradient
       xlink:href="#linearGradient48"
       id="linearGradient49"
       x1="36.40012"
       y1="153.82484"
       x2="341.55264"
       y2="153.82484"
       gradientUnits="userSpaceOnUse" /></defs><g
     id="g53"><g
       id="g52"><g
         id="g51"><path
           style="fill:url(#linearGradient49);stroke:#000000;stroke-width:11.3386;stroke-dasharray:none;stroke-opacity:1"
           d="m 188.97638,38.693833 c -21.63219,6.408461 -45.11455,10.654935 -57.08434,28.354192 L 106.98157,130.89738 87.399028,78.798924 c -18.370345,2.448863 -29.998303,9.61974 -44.280512,20.122366 11.010669,31.96603 3.484912,73.96529 37.902089,86.13441 -9.920354,26.68818 -22.892871,47.43287 -29.338688,80.88704 42.716924,-16.29369 91.007083,-22.60336 137.294463,-24.69685 46.28738,2.09349 94.57754,8.40316 137.29446,24.69685 -6.44582,-33.45417 -19.41834,-54.19886 -29.33869,-80.88704 34.41718,-12.16912 26.89142,-54.16838 37.90209,-86.13441 C 320.55203,88.418664 308.92407,81.247787 290.55373,78.798924 L 270.97119,130.89738 246.06072,67.048025 C 234.09092,49.348768 210.60856,45.102294 188.97638,38.693833 Z"
           id="path47" /><path
           style="fill:none;fill-opacity:0.972549;stroke:#000000;stroke-width:11.3386;stroke-dasharray:none;stroke-opacity:1"
           d="M 86.290363,185.69231 C 96.566886,228.31558 141.3435,331.95547 191.1796,334.16115 M 291.66239,185.69231 c -10.27652,42.62327 -55.05313,146.26316 -104.88923,148.46884"
           id="path49" /></g><path
         style="fill:none;fill-opacity:0.972549;stroke:#000000;stroke-width:11.3386;stroke-dasharray:none;stroke-opacity:1"
         d="m 79.687443,184.52013 c 70.374837,-0.80679 143.198567,-0.70704 217.116577,-0.20222"
         id="path51" /></g><path
       style="fill:none;fill-opacity:0.972549;stroke:#000000;stroke-width:11.3386;stroke-dasharray:none;stroke-opacity:1"
       d="m 104.8344,140.42127 c 52.6913,-19.4954 109.83684,-11.99179 167.43446,-1.74798"
       id="path52" /></g></svg>
