<?xml version="1.0" encoding="UTF-8" standalone="no"?>
<svg
   height="100mm"
   width="100mm"
   version="1.1"
   id="svg3"
   xml:space="preserve"
   xmlns:xlink="http://www.w3.org/1999/xlink"
   xmlns="http://www.w3.org/2000/svg"
   xmlns:svg="http://www.w3.org/2000/svg"><defs
     id="defs3"><linearGradient
       id="linearGradient92"><stop
         style="stop-color:#fad028;stop-opacity:0.97254902;"
         offset="0"
         id="stop92" /><stop
         style="stop-color:#856a02;stop-opacity:1;"
         offset="1"
         id="stop93" /></linearGradient><linearGradient
       xlink:href="#linearGradient92"
       id="linearGradient93"
       x1="13.596"
       y1="23.709499"
       x2="38.558998"
       y2="23.709499"
       gradientUnits="userSpaceOnUse" /><linearGradient
       xlink:href="#linearGradient92"
       id="linearGradient24"
       gradientUnits="userSpaceOnUse"
       x1="13.596"
       y1="23.709499"
       x2="38.558998"
       y2="23.709499" /></defs><g
     id="g50"
     transform="matrix(12.141591,0,0,-12.141591,-119.8677,490.56367)"
     style="fill:url(#linearGradient93);fill-opacity:0.972549;stroke:#000000;stroke-width:0.0009;stroke-dasharray:none;stroke-opacity:1"><path
       d="m 26.077,35.894 c 1.874,-0.076 4.72,-1.757 5.367,-2.698 l 1.346,-5.018 c -0.02,-0.221 -0.041,-0.452 -0.077,-0.682 -2.075,0.518 -4.488,0.374 -6.635,0.586 -2.141,-0.02 -4.524,-0.288 -6.634,-0.605 -0.04,0.24 -0.06,0.47 -0.076,0.681 v 10e-4 l 1.35,5.031 c 0.642,0.941 3.493,2.623 5.366,2.698 z m 8.312,-3.265 v -0.004 c 0.02,-0.009 0.051,-0.017 0.077,-0.026 0.04,-0.012 0.077,-0.024 0.135,-0.034 l 0.05,-0.01 c 1.091,-0.174 2.225,-0.327 3.16,-0.97 0.019,-0.017 0.05,-0.034 0.068,-0.05 0.116,-0.085 0.212,-0.183 0.308,-0.25 l 0.02,-0.016 c 0.02,-0.016 0.03,-0.031 0.05,-0.048 a 0.48,0.48 0 0 1 0.031,-0.031 v -0.001 c 0.01,-0.011 0.02,-0.023 0.031,-0.031 a 0.399,0.399 0 0 1 0.031,-0.032 v -0.001 a 0.383,0.383 0 0 1 0.031,-0.033 c 0.02,-0.023 0.041,-0.044 0.06,-0.07 l 0.031,-0.036 c 0.02,-0.032 0.05,-0.06 0.077,-0.091 0.005,-0.006 0.01,-0.013 0.01,-0.019 -0.02,-0.031 -0.031,-0.062 -0.05,-0.106 -0.008,-0.016 -0.02,-0.032 -0.02,-0.048 v -0.001 c -0.008,-0.016 -0.02,-0.031 -0.02,-0.048 -0.008,-0.018 -0.01,-0.032 -0.02,-0.049 L 38.439,30.6 a 0.182,0.182 0 0 1 -0.01,-0.026 h -0.001 c -0.01,-0.03 -0.02,-0.06 -0.041,-0.085 l -0.006,-0.016 c -0.008,-0.018 -0.01,-0.034 -0.02,-0.05 v -0.002 c -0.008,-0.017 -0.01,-0.036 -0.02,-0.05 A 0.376,0.376 0 0 1 38.3,30.246 v -10e-4 c -0.007,-0.02 -0.02,-0.036 -0.02,-0.058 -0.007,-0.02 -0.01,-0.036 -0.02,-0.058 -0.01,-0.037 -0.032,-0.077 -0.041,-0.126 -0.01,-0.039 -0.031,-0.084 -0.04,-0.135 -0.327,-0.922 -0.548,-1.885 -0.798,-2.83 -0.01,-0.044 -0.02,-0.091 -0.04,-0.145 -0.005,-0.019 -0.01,-0.036 -0.01,-0.057 -0.211,-0.749 -0.384,-1.518 -0.71,-2.226 v -10e-4 l -0.01,-0.02 -0.004,-0.007 -0.006,-0.013 a 0.52,0.52 0 0 0 -0.032,-0.055 l -0.01,-0.02 v -0.001 a 0.638,0.638 0 0 0 -0.01,-0.017 l -0.01,-0.018 -0.006,-0.01 -0.004,-0.008 v -0.001 l -0.003,-0.004 c -0.211,-0.384 -0.461,-0.432 -0.931,-0.528 l -0.51,-0.084 c 0,0.03 0,0.062 -0.002,0.09 -0.01,0.211 -0.069,0.422 -0.163,0.624 -0.182,0.384 -0.49,0.835 -0.777,1.25 -0.384,0.567 -0.826,1.114 -1.062,1.41 l 0.002,0.01 0.005,0.025 0.003,0.01 c 0.278,1.595 0.528,3.374 1.072,4.771 0.009,0.023 0.02,0.043 0.031,0.07 l 10e-4,0.002 0.031,0.07 v 0.002 c 0.01,0.023 0.021,0.043 0.032,0.07 l 10e-4,0.002 0.031,0.071 v 0.002 l 0.032,0.072 c 0.007,0.015 0.01,0.027 0.02,0.044 0.005,0.011 0.01,0.023 0.01,0.031 0.02,0.048 0.041,0.106 0.07,0.163 z M 17.765,32.627 v -0.002 c 0.01,-0.027 0.02,-0.051 0.032,-0.077 l 0.031,-0.077 c 0.02,-0.047 0.04,-0.105 0.06,-0.153 v -10e-4 l 0.032,-0.072 v -10e-4 c 0.032,-0.063 0.05,-0.135 0.077,-0.192 l 0.01,-0.024 v -0.004 a 0.435,0.435 0 0 1 0.032,-0.062 l 10e-4,-0.003 a 0.411,0.411 0 0 1 0.032,-0.062 l 0.001,-0.004 c 0.008,-0.02 0.02,-0.043 0.02,-0.062 l 0.002,-0.004 c 0.854,-1.61 0.672,-2.902 0.965,-4.46 l 0.001,-0.008 0.005,-0.027 0.001,-0.008 a 0.66,0.66 0 0 0 0.005,-0.026 l 0.002,-0.008 0.006,-0.027 0.001,-0.007 0.006,-0.029 0.002,-0.007 c -0.23,-0.298 -0.663,-0.845 -1.064,-1.412 -0.288,-0.423 -0.614,-0.864 -0.778,-1.251 -0.076,-0.202 -0.153,-0.423 -0.163,-0.624 a 1.94,1.94 0 0 1 -0.002,-0.09 l -0.972,0.182 c -0.02,0.004 -0.04,0.011 -0.06,0.017 a 0.242,0.242 0 0 0 -0.041,0.022 l -0.03,0.019 a 0.05,0.05 0 0 0 -0.01,0.007 l -0.032,0.024 c -0.007,0.006 -0.01,0.013 -0.02,0.02 -0.007,0.005 -0.02,0.012 -0.02,0.018 l -0.01,0.01 c -0.269,0.306 -0.432,0.7 -0.566,1.087 -0.006,0.018 -0.01,0.034 -0.02,0.05 v 0.002 c -0.006,0.017 -0.01,0.033 -0.02,0.05 -0.212,0.644 -0.384,1.316 -0.557,1.975 v 0.001 c -0.25,0.903 -0.451,1.808 -0.768,2.677 -0.031,0.084 -0.06,0.163 -0.09,0.22 -0.01,0.036 -0.032,0.077 -0.041,0.125 -0.01,0.036 -0.031,0.072 -0.04,0.116 -0.01,0.036 -0.032,0.071 -0.042,0.115 -0.02,0.05 -0.05,0.115 -0.069,0.163 -0.01,0.024 -0.02,0.048 -0.04,0.072 l -0.01,0.024 -0.008,0.016 c -0.005,0.01 -0.01,0.02 -0.02,0.03 l 0.06,0.077 c 0.005,0.006 0.01,0.013 0.01,0.02 l 0.031,0.035 c 0.005,0.006 0.01,0.012 0.01,0.017 0.06,0.072 0.134,0.144 0.192,0.211 l 0.031,0.031 c 0.06,0.05 0.125,0.116 0.183,0.164 l 0.03,0.028 c 0.682,0.586 1.722,0.864 2.513,0.997 l 0.06,0.01 a 2.396,2.396 0 0 1 0.13,0.022 c 0.04,0.008 0.076,0.014 0.134,0.02 0.076,0.013 0.173,0.026 0.23,0.036 0.04,0.006 0.077,0.013 0.125,0.019 0.183,0.029 0.317,0.062 0.432,0.115 l 0.02,0.007 z m 8.408,-5.416 c 2.06,-0.013 5.864,-0.432 6.152,-0.47 0.106,-0.125 0.663,-0.672 1.173,-1.409 0.268,-0.393 0.499,-0.806 0.624,-1.091 0.05,-0.125 0.069,-0.182 0.076,-0.23 -0.423,0 -0.874,-0.116 -1.328,-0.164 A 80.8,80.8 0 0 0 30.058,23.684 C 28.038,23.6 26.074,23.6 26.074,23.6 c 0,0 -1.963,0 -3.984,0.084 a 86.214,86.214 0 0 0 -2.811,0.163 c -0.384,0.031 -0.884,0.183 -1.328,0.164 0.01,0.05 0.031,0.134 0.076,0.23 0.135,0.288 0.346,0.691 0.624,1.091 0.51,0.73 1.076,1.292 1.173,1.409 0.288,0.03 4.213,0.47 6.248,0.47 h 0.1 z m -9.278,-3.757 0.5,-0.106 c 0.21,-0.153 0.403,-0.182 0.72,-0.211 0.288,-0.039 0.672,-0.048 1.093,-0.084 a 82.208,82.208 0 0 1 2.89,-0.163 c 2.03,-0.085 3.984,-0.164 3.984,-0.164 0,0 1.953,0.077 3.984,0.164 1.014,0.038 2.058,0.09 2.89,0.163 0.422,0.03 0.806,0.038 1.093,0.084 0.268,0.05 0.528,0.038 0.739,0.211 l 0.48,0.09 c 1.633,-2.551 2.419,-4.843 2.466,-6.445 -1.928,0.912 -3.377,1.469 -4.848,1.795 a 22.484,22.484 0 0 1 1.311,3.594 v 0.084 c 0.004,0.024 0,0.183 0,0.23 0,0.06 0.01,0.085 0,0.164 L 33.42,22.776 v -0.168 a 21.175,21.175 0 0 0 -1.391,-3.66 c -1.632,0.268 -3.4,0.287 -5.948,0.24 -2.53,0.038 -4.292,0.014 -5.915,-0.24 a 22.82,22.82 0 0 0 -1.355,3.656 c -0.01,0.115 -0.069,0.173 -0.076,0.173 l -0.94,0.105 c 0.316,-1.285 0.996,-3.004 1.503,-4.083 -1.478,-0.326 -2.933,-0.883 -4.87,-1.798 0.05,1.603 0.836,3.9 2.474,6.457 z m 2.396,-4.658 c 0.288,0.062 0.576,0.134 0.884,0.173 0.643,-1.358 1.386,-2.589 2.16,-3.608 0.72,-0.94 1.446,-1.75 2.109,-2.266 0.662,-0.518 1.255,-0.7 1.641,-0.7 0.375,0 0.978,0.192 1.641,0.7 0.662,0.519 1.394,1.325 2.108,2.266 a 21.538,21.538 0 0 1 2.202,3.603 c 0.288,-0.048 0.567,-0.106 0.864,-0.173 a 21.13,21.13 0 0 0 -2.36,-3.982 c -0.748,-0.985 -1.52,-1.768 -2.265,-2.343 -0.739,-0.567 -1.49,-0.941 -2.187,-0.941 -0.69,0 -1.443,0.365 -2.187,0.94 -0.739,0.567 -1.438,1.36 -2.186,2.344 a 22.872,22.872 0 0 0 -2.41,3.986 z"
       style="color:#fad028;fill:url(#linearGradient24);fill-opacity:0.972549;stroke:#000000;stroke-width:0.0009;stroke-dasharray:none;stroke-opacity:1;paint-order:stroke fill markers"
       id="path2-8" /></g></svg>
