<?xml version="1.0" encoding="UTF-8" standalone="no"?>
<svg
   height="100mm"
   width="100mm"
   version="1.1"
   id="svg3"
   xml:space="preserve"
   xmlns:xlink="http://www.w3.org/1999/xlink"
   xmlns="http://www.w3.org/2000/svg"
   xmlns:svg="http://www.w3.org/2000/svg"><defs
     id="defs3"><linearGradient
       id="linearGradient92"><stop
         style="stop-color:#fad028;stop-opacity:1;"
         offset="0"
         id="stop92" /><stop
         style="stop-color:#856a02;stop-opacity:1;"
         offset="1"
         id="stop93" /></linearGradient><linearGradient
       xlink:href="#linearGradient92"
       id="linearGradient93"
       x1="542.81281"
       y1="156.02292"
       x2="691.96118"
       y2="264.00925"
       gradientUnits="userSpaceOnUse"
       gradientTransform="translate(-387.95276)" /></defs><path
     style="opacity:1;fill:url(#linearGradient93);stroke:#000000;stroke-width:11.3386"
     d="m 57.038381,211.05895 c -0.7456,-1.13419 -1.71235,-6.17717 -2.32906,-9.32099 -7.12608,-36.89763 11.48814,-50.43567 35.73985,-67.8874 l 4.28166,-23.749 1.38477,4.60938 c 7.148809,-8.02495 12.326429,-18.079221 21.505859,-24.013674 1.56028,1.674271 2.37768,0.761317 4.69336,5.066406 6.60678,-7.484118 12.641,-11.601789 22.21916,-16.871453 l 5.55818,6.408562 c 9.97845,-3.768382 20.06935,-6.984645 30.89844,-6.576171 l -7.68359,7.888671 c 12.73734,-6.957804 28.15592,-7.554757 45.0957,-4.513671 l -3.44922,4.974609 c 8.81112,0.03339 17.47018,-0.457026 27.07617,2.314453 l -3.41992,3.310547 c 17.56396,4.421009 33.26022,13.383261 49.67774,20.591801 l -10.90821,1.87695 c 13.30641,9.54305 22.98043,25.95921 34.24219,39.37109 l -8.37305,-2.24414 c 4.69591,10.81234 9.32955,21.71849 12.75977,34.4375 l -6.52734,-3.02734 11.57617,26.79883 c 9.04837,24.18799 17.14804,48.74458 19.91015,75.375 l -11.08398,-11.11914 -2.49219,29.74218 c -5.02401,-4.97311 -6.48021,-10.57965 -9.32617,-15.93945 l -13.30859,22.73828 c 1.19108,-14.72108 -4.84275,-18.65664 -10.21875,-23.57422 -8.82191,7.39952 -16.92091,15.56059 -23.03516,25.8125 -6.35746,-10.2855 -5.45666,-21.24566 -21.68555,-26.23828 -22.62898,4.5639 -35.39721,4.06097 -56.34961,19.28711 l 10.88086,-25.39062 c -20.45577,7.09683 -34.22666,16.47802 -42.75586,27.65039 -4.28828,-12.18845 -0.14352,-29.26709 -21.35742,-31.64063 -11.08153,7.45396 -24.26106,13.02825 -40.10115,16.21884 13.6464,-16.88794 3.56878,-18.59441 4.83246,-27.55841 -17.291419,-11.67591 -36.059939,1.11164 -64.323799,6.01776 1.06753,-1.22574 104.709759,-87.04859 59.590019,-78.87029 -90.5713088,16.41675 14.67357,-5.76191 40.90395,-6.5879 19.22069,-0.60526 35.03456,-5.71934 39.82395,-8.38964 -10.94492,-6.45 -106.108019,3.27741 -121.806439,26.24703 -1.43406,2.09828 -1.04265,3.94034 -2.11535,6.77453 z"
     id="path78" /><path
     style="opacity:1;fill:none;stroke:#000000;stroke-width:11.3386"
     d="m 89.638301,134.27263 c 6.9035,-4.17848 15.275249,-4.3331 22.178749,-4.58759"
     id="path79" /><path
     d="m 157.54167,139.67099 c -2.13751,-0.62414 -4.38377,0.91061 -7.43413,1.06653 -1.64114,0.0839 -2.4543,-0.95172 -3.73803,-0.89202 11.04761,-2.60173 27.87448,-15.67689 32.89216,-12.87406 3.92894,2.19466 13.53022,9.42944 -0.73322,22.20787 -6.93982,4.78477 -24.12124,-1.14731 -20.98678,-9.50832 z"
     style="opacity:1;fill:#000000"
     id="path1-20" /></svg>
