<?xml version="1.0" encoding="UTF-8" standalone="no"?>
<svg
   height="100mm"
   width="100mm"
   version="1.1"
   id="svg3"
   xml:space="preserve"
   xmlns:xlink="http://www.w3.org/1999/xlink"
   xmlns="http://www.w3.org/2000/svg"
   xmlns:svg="http://www.w3.org/2000/svg"><defs
     id="defs3"><linearGradient
       id="linearGradient95"><stop
         style="stop-color:#fad028;stop-opacity:1;"
         offset="0"
         id="stop95" /><stop
         style="stop-color:#856a02;stop-opacity:1;"
         offset="1"
         id="stop96" /></linearGradient><linearGradient
       xlink:href="#linearGradient95"
       id="linearGradient97"
       x1="845.95215"
       y1="216.24365"
       x2="1082.2168"
       y2="216.24365"
       gradientUnits="userSpaceOnUse" /><linearGradient
       xlink:href="#linearGradient95"
       id="linearGradient42"
       gradientUnits="userSpaceOnUse"
       x1="845.95215"
       y1="216.24365"
       x2="1082.2168"
       y2="216.24365" /><linearGradient
       xlink:href="#linearGradient95"
       id="linearGradient43"
       gradientUnits="userSpaceOnUse"
       x1="845.95215"
       y1="216.24365"
       x2="1082.2168"
       y2="216.24365" /></defs><g
     id="g94"
     style="fill:url(#linearGradient97);fill-opacity:1"
     transform="matrix(1.1051094,0,0,1.1051094,-875.00352,-55.031127)"><path
       style="fill:url(#linearGradient42);fill-opacity:1;stroke:#000000;stroke-width:11.3386;stroke-dasharray:none;stroke-opacity:1"
       d="M 832.6935,217.31794 C 817.9919,178.30726 934.22726,75.973248 955.24079,107.19589 c 67.76341,24.03409 57.55921,71.69935 85.17731,107.90108 62.7071,7.3187 -14.7576,-37.8521 -13.2084,-70.39914 2.7239,-57.228638 68.436,-24.63036 45.5778,10.46562 l -14.4646,-8.74762 c -1.2698,-5.99557 5.3266,-8.94159 -6.6389,-9.60106 -9.1438,16.1086 36.5639,48.34966 40.2696,67.66749 5.02,26.16948 1.3675,35.02406 -2.956,45.09466 -12.9445,30.15088 -29.0721,25.95624 -39.8807,40.62161 l -11.5495,-17.23905 c 8.7176,19.83287 19.3217,41.40021 42.9549,63.48176 -30.7588,-6.15216 -44.5928,-30.86309 -61.583,-53.12754 l -17.2476,-9.18118 c 0.3465,4.85335 11.4253,19.96922 16.4842,29.46721 -14.7763,-2.8211 -27.77507,-8.59072 -37.78301,-19.87045 -11.9613,-45.22841 -8.00527,-94.99412 -35.00052,-122.54952 -0.55744,24.53615 17.34488,40.00737 15.52478,59.50564 -2.81767,30.18497 9.35062,54.88152 14.94298,87.73499 -63.65147,-3.14338 -119.61436,-21.3374 -143.16663,-91.10245 z"
       id="path93" /><path
       d="m 991.50433,211.82107 c 1.97835,-3.53406 3.79484,-7.07712 8.45296,-10.63816 5.17971,-1.5557 10.53931,-3.02149 13.70461,-6.38469 1.4658,-8.12025 0.4663,-8.36558 -0.3879,-10.94644 -16.19978,-5.82876 -25.18585,19.53236 -21.76967,27.96929 z"
       style="fill:#000000;fill-opacity:0.972549;stroke:#000000;stroke-width:0.0009;stroke-linecap:butt;stroke-linejoin:miter;stroke-dasharray:none;stroke-opacity:1"
       id="path1-8" /><path
       style="fill:url(#linearGradient43);fill-opacity:1;stroke:#000000;stroke-width:11.3386;stroke-dasharray:none;stroke-opacity:1"
       d="m 1016.6258,282.46108 c 9.0512,-6.3366 15.918,-7.88558 24.8771,-7.21491"
       id="path94" /></g></svg>
