<?xml version="1.0" encoding="UTF-8" standalone="no"?>
<svg
   height="100mm"
   width="100mm"
   version="1.1"
   id="svg3"
   xml:space="preserve"
   xmlns:xlink="http://www.w3.org/1999/xlink"
   xmlns="http://www.w3.org/2000/svg"
   xmlns:svg="http://www.w3.org/2000/svg"><defs
     id="defs3"><linearGradient
       id="linearGradient111"><stop
         style="stop-color:#fad028;stop-opacity:1;"
         offset="0"
         id="stop112" /><stop
         style="stop-color:#856a02;stop-opacity:1;"
         offset="1"
         id="stop111" /></linearGradient><linearGradient
       xlink:href="#linearGradient111"
       id="linearGradient112"
       x1="1320.5503"
       y1="123.3782"
       x2="1455.8451"
       y2="275.89969"
       gradientUnits="userSpaceOnUse"
       gradientTransform="translate(-1163.8583)" /></defs><path
     style="fill:url(#linearGradient112);fill-opacity:0.972549;stroke:#000000;stroke-width:11.3386;stroke-dasharray:none;stroke-opacity:1"
     d="m 64.185821,217.34152 c -15.8587,-20.14345 -51.2868,-26.31456 13.887,-104.31443 C 117.09272,39.192727 176.95012,73.290276 226.43518,53.662238 l 41.7517,-15.555554 -3.9261,15.893639 -28.1786,7.806254 c 105.3727,58.083853 67.5169,140.698373 101.2753,211.047553 l 5.1234,63.75996 -53.5872,-51.58162 37.2161,46.28253 c -27.4836,-0.0634 -51.6111,-7.654 -71.3651,-25.05345 -0.4766,9.6119 -1.5694,18.03154 0.3017,32.18596 -2.7687,6.82928 -53.85956,-44.04445 -56.21776,-49.89605 -0.8572,-2.12712 3.4274,31.5039 5.951,32.93241 -1.2634,-0.31476 -43.9851,-32.06968 -40.5072,-35.10754 3.8982,-3.40493 3.0016,30.58883 3.0016,30.58883 -7.8828,-12.29951 -14.2767,-24.71087 -18.293,-37.30085 -10.5511,10.75364 -21.4404,21.29867 -37.6713,28.54801 13.5253,-44.01132 43.721,-93.96855 5.7447,-119.61047 l 21.0291,6.2879 -5.6481,-15.24776 c -11.2669,2.34655 -44.750899,1.33499 -62.621799,7.4713 -2.1429,0.73581 11.98,-12.20218 9.8999,-12.22048 -15.8662,-0.13955 -25.7951,7.65693 -15.5277,42.44871 z"
     id="path102" /><path
     d="m 137.64252,119.06177 c -5.4282,-0.43807 -8.8822,-3.42196 -11.5367,-8.07349 2.1502,1.50625 5.6159,3.21397 8.7647,3.68054 8.628,1.24916 43.4006,-11.51273 56.69,-5.43739 -3.8505,0.77016 -7.65,0.13597 -18.3536,2.61073 0,9.8873 -6.4997,16.34212 -15.8508,18.54008 -12.4607,0.53404 -17.8353,-10.38809 -19.7136,-11.32047 z"
     style="fill:#000000;fill-opacity:0.972549;stroke:#000000;stroke-width:0.000914639;stroke-dasharray:none;stroke-opacity:1"
     id="path1-3" /><path
     style="fill:none;fill-opacity:1;stroke:#000000;stroke-width:11.3386"
     d="m 338.22658,279.93506 c -21.8362,-46.07396 -85.7643,-72.74752 -140.65806,-94.05225 12.9878,10.66395 24.7881,21.80027 32.82216,34.43457 -27.39746,-12.84676 -52.02416,-28.13842 -79.56826,-37.57519 2.9904,5.42817 14.0515,15.6871 19.6599,20.12256 -2.3641,-6.67975 -29.288,-18.10352 -33.9832,-25.02393 0,0 19.0225,1.00293 17.7959,0.35254 -1.2265,-0.65039 -21.4622,-6.73682 -21.4622,-6.73682 20.6508,-5.16918 40.978,-10.469 63.015,-15.07861 -5.4616,-1.84907 -59.853,-3.03664 -93.3213,-8.52344 l 16.1308,-4.55957 c -7.293,4.29075 -13.519,1.56632 -19.023699,1.29542 -2.6936,-1.27117 7.190699,-12.36767 11.126299,-17.52686 -6.0794,-1.68222 -13.320099,0.6031 -17.787099,-6.58789 4.2119,-3.60814 5.7801,-7.29009 6.6621,-10.99121 l -9.1651,8.43554 -8.5283,-9.14648"
     id="path38" /><path
     style="fill:none;fill-opacity:1;stroke:#000000;stroke-width:11.3386"
     d="m 74.752521,175.41359 c 27.539799,-7.76914 56.099199,-12.16591 84.289299,-17.78402"
     id="path39" /></svg>
