<?xml version="1.0" encoding="UTF-8" standalone="no"?>
<svg
   height="100mm"
   width="100mm"
   version="1.1"
   id="svg3"
   xml:space="preserve"
   xmlns:xlink="http://www.w3.org/1999/xlink"
   xmlns="http://www.w3.org/2000/svg"
   xmlns:svg="http://www.w3.org/2000/svg"><defs
     id="defs3"><linearGradient
       id="linearGradient45"><stop
         style="stop-color:#fad028;stop-opacity:1;"
         offset="0"
         id="stop45" /><stop
         style="stop-color:#856a02;stop-opacity:1;"
         offset="1"
         id="stop46" /></linearGradient><linearGradient
       xlink:href="#linearGradient45"
       id="linearGradient46"
       x1="119.22612"
       y1="529.39197"
       x2="254.36917"
       y2="529.39197"
       gradientUnits="userSpaceOnUse"
       gradientTransform="translate(-1.0478752,-389.07956)" /></defs><path
     style="fill:url(#linearGradient46);fill-opacity:1;stroke:#000000;stroke-width:11.3386;stroke-dasharray:none;stroke-opacity:1"
     d="m 187.92852,39.439361 c -0.44104,0.007 -1.31838,0.26879 -1.58872,1.25455 -3.741,13.64085 -31.84158,85.001599 -68.54408,101.491649 32.0785,5.84089 57.19941,17.34669 55.73682,45.81963 -1.55698,30.31035 -28.07592,41.28052 -57.02612,49.35317 47.8871,20.1484 54.29216,60.51149 69.50969,98.93008 0.30068,0.7591 0.90352,0.41318 1.91241,-0.12652 1.00889,0.5397 1.61172,0.88562 1.91241,0.12652 15.21753,-38.41859 21.62259,-78.78168 69.50969,-98.93008 -28.95015,-8.07265 -55.46914,-19.04282 -57.02612,-49.35317 -1.46259,-28.47294 23.65829,-39.97874 55.73679,-45.81963 -36.70249,-16.49005 -64.80305,-87.850799 -68.54405,-101.491649 -0.27035,-0.98576 -1.14768,-1.24762 -1.58872,-1.25455 z"
     id="path43" /></svg>
