<?xml version="1.0" encoding="UTF-8" standalone="no"?>
<svg
   height="100mm"
   width="100mm"
   version="1.1"
   id="svg3"
   xml:space="preserve"
   xmlns:xlink="http://www.w3.org/1999/xlink"
   xmlns="http://www.w3.org/2000/svg"
   xmlns:svg="http://www.w3.org/2000/svg"><defs
     id="defs3"><linearGradient
       id="linearGradient94"><stop
         style="stop-color:#fad028;stop-opacity:1;"
         offset="0"
         id="stop94" /><stop
         style="stop-color:#856a02;stop-opacity:1;"
         offset="1"
         id="stop97" /></linearGradient><linearGradient
       xlink:href="#linearGradient94"
       id="linearGradient102"
       x1="520.92914"
       y1="577.28271"
       x2="645.07062"
       y2="577.28271"
       gradientUnits="userSpaceOnUse"
       gradientTransform="translate(-388.55581,-389.06509)" /></defs><path
     style="fill:url(#linearGradient102);fill-opacity:0.992157;stroke:#000000;stroke-width:11.3386;stroke-opacity:1"
     d="m 190.20431,338.09951 c -2.15642,-0.0732 -4.5725,-1.08018 -5.55565,-1.90856 -20.00318,-16.85414 -36.02793,-41.12833 -46.74353,-75.30443 l -1.12997,23.88655 C 126.83939,274.73723 104.407,240.59251 119.27234,194.52671 l 2.70703,-22.60352 -5.82129,-3.14258 10.4707,-24.26367 -9.24156,-9.80731 -6.02659,-0.68593 C 102.852,122.94055 95.675985,111.33694 93.629755,97.729826 c 19.517495,-7.96447 31.564775,10.369154 46.999025,16.779304 2.88671,-4.7842 9.44329,-6.47437 15.31934,-8.73828 C 135.2931,95.709946 114.32247,86.324516 96.878775,69.390966 c 10.646505,2.36541 12.995035,-3.88836 18.934575,-6.41211 l 16.19922,8.58593 c 9.70557,-4.37717 3.6547,-16.04885 -15.10156,-33.60254 54.22529,20.62168 27.66093,31.13938 28.24119,44.90167 9.5099,11.70563 40.15506,18.274324 45.05211,18.274324 4.89705,0 35.54221,-6.568694 45.05211,-18.274324 0.58026,-13.76229 -25.9841,-24.27999 28.24119,-44.90167 -18.75626,17.55369 -24.80713,29.22537 -15.10156,33.60254 l 16.19922,-8.58593 c 5.93954,2.52375 8.28807,8.77752 18.93457,6.41211 -17.44369,16.93355 -38.41432,26.31898 -59.06934,36.379884 5.87605,2.26391 12.43263,3.95408 15.31934,8.73828 15.43425,-6.41015 27.48153,-24.743774 46.99902,-16.779304 -2.04623,13.607114 -9.22224,25.210724 -17.73087,36.293874 l -6.02659,0.68593 -9.24156,9.80731 10.4707,24.26367 -5.82129,3.14258 2.70703,22.60352 c 14.86534,46.0658 -7.56705,80.21052 -17.50282,90.24636 l -1.12997,-23.88655 c -10.7156,34.1761 -26.74035,58.45029 -46.74353,75.30443 -0.98315,0.82838 -3.39923,1.83536 -5.55565,1.90856 z"
     id="path67" /><g
     id="g60"
     transform="translate(-388.55581,-389.06509)"><path
       style="fill:none;stroke:#000000;stroke-width:11.3386"
       d="m 509.8101,587.062 c 25.98031,15.90207 35.63177,81.18041 70.06634,91.70442 M 646.6278,587.062 c -25.98031,15.90207 -35.63177,81.18041 -70.06634,91.70442"
       id="path41" /><path
       style="fill:none;stroke:#000000;stroke-width:11.3386"
       d="m 542.58301,640.45704 c 18.49271,-14.71027 31.96639,-70.66301 10.16401,-70.32036 -11.05354,2.20131 -12.73661,-10.74577 -18.38575,-14.51964 l 18.25209,13.60715 C 537.09107,550.9786 529.33275,554.96818 509.23413,555.72922 m 104.62076,84.72782 c -18.49271,-14.71027 -31.96639,-70.66301 -10.16401,-70.32036 11.05354,2.20131 12.73661,-10.74577 18.38575,-14.51964 l -18.25209,13.60715 c 15.52229,-18.24559 23.28061,-14.25601 43.37923,-13.49497"
       id="path45" /><path
       style="fill:none;stroke:#000000;stroke-width:11.3386"
       d="m 517.6709,533.66407 c 10.96128,-4.11067 23.37682,2.4853 35.17871,4.56347 2.308,-8.4825 1.55362,-10.35575 -1.4038,-19.05908 14.94441,10.37437 21.34196,18.23204 29.41641,25.86478 M 638.767,533.66407 c -10.96128,-4.11067 -23.37682,2.4853 -35.17871,4.56347 -2.308,-8.4825 -1.55362,-10.35575 1.4038,-19.05908 -14.94441,10.37437 -21.34196,18.23204 -29.41641,25.86478"
       id="path46" /><path
       style="fill:none;stroke:#000000;stroke-width:11.3386"
       d="m 565.32911,492.62598 4.7998,21.37305 -26.06934,-15.71485 m 47.04922,-5.6582 -4.7998,21.37305 26.06934,-15.71485"
       id="path57" /><path
       style="fill:none;stroke:#000000;stroke-width:11.3386"
       d="m 527.86036,505.96094 -16.47852,19.08887 m 117.1957,-19.08887 16.47852,19.08887"
       id="path59" /><path
       style="fill:none;stroke:#000000;stroke-width:11.3386"
       d="m 561.28614,662.37794 13.83203,-17.67676 c -2.93736,-2.4766 -10.15764,-2.76142 -6.8136,2.13795 m 26.84719,15.53881 -13.83203,-17.67676 c 2.93736,-2.4766 10.15764,-2.76142 6.8136,2.13795"
       id="path60" /></g></svg>
