<?xml version="1.0" encoding="UTF-8" standalone="no"?>
<svg
   height="100mm"
   width="100mm"
   version="1.1"
   id="svg3"
   xml:space="preserve"
   xmlns:xlink="http://www.w3.org/1999/xlink"
   xmlns="http://www.w3.org/2000/svg"
   xmlns:svg="http://www.w3.org/2000/svg"><defs
     id="defs3"><linearGradient
       id="linearGradient123"><stop
         style="stop-color:#fad028;stop-opacity:1;"
         offset="0"
         id="stop124" /><stop
         style="stop-color:#856a02;stop-opacity:1;"
         offset="1"
         id="stop123" /></linearGradient><linearGradient
       xlink:href="#linearGradient123"
       id="linearGradient124"
       x1="864.1532"
       y1="579.60693"
       x2="1079.7588"
       y2="579.60693"
       gradientUnits="userSpaceOnUse"
       gradientTransform="matrix(0.90529847,0,0,0.90529847,-684.57482,-334.32967)" /></defs><path
     style="fill:url(#linearGradient124);fill-opacity:0.992157;stroke:#000000;stroke-width:10.2648;stroke-opacity:1"
     d="m 191.24785,319.66869 c -9.65143,-0.11431 -16.30335,-4.87991 -31.28948,-9.35814 -6.55394,-1.95848 -11.66234,-6.67094 -19.03799,-11.87785 -22.90304,3.20953 -50.336577,7.76952 -72.063717,10.65019 12.60395,-10.5265 48.979727,-11.5383 69.868237,-15.27372 l -3.91681,-13.10554 c -53.167777,-4.68972 -83.695427,5.84429 -85.747997,2.97729 28.89651,-6.26426 53.821227,-1.86877 80.731837,-2.80315 l 1.65475,-4.15992 c -22.48934,-4.99051 -45.042597,-47.34428 -52.928587,-59.38399 -18.39315,-28.08125 3.15262,-82.26977 -4.6362,-89.16843 -28.31255,-25.07679 -30.50081,-71.797719 -23.20522,-75.962349 33.74832,-4.9846 55.519047,12.06624 65.860577,25.59322 22.66022,-17.04232 60.29803,-21.59984 74.7106,-20.92357 14.41257,-0.67627 52.05041,3.88125 74.71061,20.92357 10.3415,-13.52698 32.1123,-30.57782 65.8606,-25.59322 7.2956,4.16463 5.1073,50.885559 -23.2053,75.962349 -7.7887,6.89866 13.757,61.08718 -4.6361,89.16843 -7.8861,12.03971 -30.4393,54.39348 -52.9286,59.38399 l 1.6548,4.15992 c 26.9105,0.93438 51.8353,-3.46111 80.7318,2.80315 -2.0526,2.867 -32.5803,-7.66701 -85.748,-2.97729 l -3.9169,13.10554 c 20.8885,3.73542 57.2643,4.74722 69.8683,15.27372 -21.7271,-2.88067 -49.1607,-7.44066 -72.0637,-10.65019 -7.3757,5.20691 -12.4841,9.91937 -19.03799,11.87785 -14.98616,4.47823 -21.63809,9.24383 -31.28952,9.35814 z"
     id="path68" /><g
     id="g122"
     transform="matrix(0.92817913,0,0,0.92817913,-706.71052,-347.59146)"><path
       style="opacity:1;fill:none;fill-opacity:1;stroke:#000000;stroke-width:11.3386;stroke-dasharray:none;stroke-opacity:1"
       d="m 904.23387,673.25024 c 13.77949,-30.31792 29.31405,-68.4807 21.51774,-101.06551 -8.8369,-13.50729 -35.94346,-21.72997 -39.97896,-13.10243 2.72965,13.57871 24.59141,21.17646 36.2376,20.37689 1.63875,-0.11251 -1.70069,-5.28582 -0.32814,-5.51203 m 109.15839,99.30308 c -13.7795,-30.31792 -29.3141,-68.4807 -21.5178,-101.06551 8.8369,-13.50729 35.9435,-21.72997 39.979,-13.10243 -2.7297,13.57871 -24.5914,21.17646 -36.2376,20.37689 -1.6388,-0.11251 1.7007,-5.28582 0.3281,-5.51203"
       id="path119" /><path
       style="opacity:1;fill:none;fill-opacity:1;stroke:#000000;stroke-width:11.3386;stroke-dasharray:none;stroke-opacity:1"
       d="m 843.37168,526.26593 c -8.2535,-5.48998 43.38633,-72.46503 48.23273,-71.18983 m 200.09819,71.18983 c 8.2535,-5.48998 -43.3863,-72.46503 -48.2327,-71.18983"
       id="path121" /><path
       style="opacity:1;fill:none;fill-opacity:1;stroke:#000000;stroke-width:11.3386;stroke-dasharray:none;stroke-opacity:1"
       d="m 926.84177,705.08041 c 10.96382,0.0497 23.94181,-8.62503 35.64066,-16.52905 l -0.23242,-31.85791 c 0,0 -14.03582,0.0901 -14.81299,1.60058 -3.9267,7.6316 8.07684,15.94402 9.20215,13.85108 l 1.71435,-10.09375 m 49.87898,43.02905 c -10.96377,0.0497 -23.94176,-8.62503 -35.64061,-16.52905 l 0.23242,-31.85791 c 0,0 14.03582,0.0901 14.81299,1.60058 3.9267,7.6316 -8.07684,15.94402 -9.20215,13.85108 l -1.71435,-10.09375"
       id="path120" /><path
       style="opacity:1;fill:none;fill-opacity:1;stroke:#000000;stroke-width:11.3386;stroke-dasharray:none;stroke-opacity:1"
       d="m 859.79756,495.08443 c -3.08869,-9.32673 3.28118,-45.7127 -18.70304,-31.03981 m 234.18228,31.03981 c 3.0887,-9.32673 -3.2812,-45.7127 18.703,-31.03981"
       id="path122" /><path
       style="fill:none;stroke:#000000;stroke-width:11.3386"
       d="m 910.8291,660.89844 -94.93847,-14.61523 m 208.34087,14.61523 94.9384,-14.61523"
       id="path40"
       transform="matrix(1.0773782,0,0,1.0773782,-74.858872,-44.691369)" /></g><g
     id="g143"
     transform="matrix(0.92817913,0,0,0.92817913,-706.71052,-347.59146)"><path
       id="path130"
       d="m 919.13086,490.41113 c 0,4.94198 -4.29527,8.94824 -9.59375,8.94824 -5.29848,0 -9.59375,-4.00626 -9.59375,-8.94824 0,-4.94197 4.29527,-8.94824 9.59375,-8.94824 5.29848,0 9.59375,4.00627 9.59375,8.94824 z m 92.82614,0 c 0,4.94198 4.2953,8.94824 9.5938,8.94824 5.2985,0 9.5937,-4.00626 9.5937,-8.94824 0,-4.94197 -4.2952,-8.94824 -9.5937,-8.94824 -5.2985,0 -9.5938,4.00627 -9.5938,8.94824 z"
       style="opacity:1;fill:#030101;fill-opacity:1;stroke:none;stroke-width:11.3386;stroke-dasharray:none;stroke-opacity:1" /><path
       id="path135"
       d="m 905.07501,620.41992 c 0,3.27909 -2.65823,5.93732 -5.93731,5.93732 -3.27909,0 -5.93732,-2.65823 -5.93732,-5.93732 0,-3.27909 2.65823,-5.93731 5.93732,-5.93731 3.27908,0 5.93731,2.65822 5.93731,5.93731 z m 120.93789,0 c 0,3.27909 2.6582,5.93732 5.9373,5.93732 3.2791,0 5.9373,-2.65823 5.9373,-5.93732 0,-3.27909 -2.6582,-5.93731 -5.9373,-5.93731 -3.2791,0 -5.9373,2.65822 -5.9373,5.93731 z"
       style="opacity:1;fill:#030101;fill-opacity:1;stroke:none;stroke-width:11.3386;stroke-dasharray:none;stroke-opacity:1" /><path
       id="path136"
       d="m 874.73347,588.11731 c 0,3.24828 -2.63326,5.88154 -5.88154,5.88154 -3.24828,0 -5.88154,-2.63326 -5.88154,-5.88154 0,-3.24828 2.63326,-5.88154 5.88154,-5.88154 3.24828,0 5.88154,2.63326 5.88154,5.88154 z m 181.62093,0 c 0,3.24828 2.6333,5.88154 5.8816,5.88154 3.2483,0 5.8815,-2.63326 5.8815,-5.88154 0,-3.24828 -2.6332,-5.88154 -5.8815,-5.88154 -3.2483,0 -5.8816,2.63326 -5.8816,5.88154 z"
       style="opacity:1;fill:#030101;fill-opacity:1;stroke:none;stroke-width:11.3386;stroke-dasharray:none;stroke-opacity:1" /><path
       id="path137"
       d="m 944.43488,508.6828 c 0,4.55001 -3.68852,8.23853 -8.23853,8.23853 -4.55001,0 -8.23853,-3.68852 -8.23853,-8.23853 0,-4.55001 3.68852,-8.23853 8.23853,-8.23853 4.55001,0 8.23853,3.68852 8.23853,8.23853 z m 42.21814,0 c 0,4.55001 3.68852,8.23853 8.23853,8.23853 4.55001,0 8.23855,-3.68852 8.23855,-8.23853 0,-4.55001 -3.68854,-8.23853 -8.23855,-8.23853 -4.55001,0 -8.23853,3.68852 -8.23853,8.23853 z"
       style="opacity:1;fill:#030101;fill-opacity:1;stroke:none;stroke-width:11.3386;stroke-dasharray:none;stroke-opacity:1" /><path
       id="path138"
       d="m 959.21367,530.48437 c 0,3.14911 -2.55285,5.70196 -5.70195,5.70196 -3.1491,0 -5.70196,-2.55285 -5.70196,-5.70196 0,-3.1491 2.55286,-5.70195 5.70196,-5.70195 3.1491,0 5.70195,2.55285 5.70195,5.70195 z m 12.66056,0 c 0,3.14911 2.55285,5.70196 5.70195,5.70196 3.1491,0 5.70196,-2.55285 5.70196,-5.70196 0,-3.1491 -2.55286,-5.70195 -5.70196,-5.70195 -3.1491,0 -5.70195,2.55285 -5.70195,5.70195 z"
       style="opacity:1;fill:#030101;fill-opacity:1;stroke:none;stroke-width:11.3386;stroke-dasharray:none;stroke-opacity:1" /><path
       id="path139"
       d="m 907.43303,524.08154 c 0,4.05526 -3.28744,7.3427 -7.3427,7.3427 -4.05526,0 -7.3427,-3.28744 -7.3427,-7.3427 0,-4.05526 3.28744,-7.3427 7.3427,-7.3427 4.05526,0 7.3427,3.28744 7.3427,7.3427 z m 116.22187,0 c 0,4.05526 3.2874,7.3427 7.3427,7.3427 4.0552,0 7.3427,-3.28744 7.3427,-7.3427 0,-4.05526 -3.2875,-7.3427 -7.3427,-7.3427 -4.0553,0 -7.3427,3.28744 -7.3427,7.3427 z"
       style="opacity:1;fill:#030101;fill-opacity:1;stroke:none;stroke-width:11.3386;stroke-dasharray:none;stroke-opacity:1" /><path
       id="path140"
       d="m 878.77783,523.93994 c 0,4.64696 -3.7671,8.41406 -8.41406,8.41406 -4.64696,0 -8.41406,-3.7671 -8.41406,-8.41406 0,-4.64696 3.7671,-8.41406 8.41406,-8.41406 4.64696,0 8.41406,3.7671 8.41406,8.41406 z m 173.53227,0 c 0,4.64696 3.7671,8.41406 8.414,8.41406 4.647,0 8.4141,-3.7671 8.4141,-8.41406 0,-4.64696 -3.7671,-8.41406 -8.4141,-8.41406 -4.6469,0 -8.414,3.7671 -8.414,8.41406 z"
       style="opacity:1;fill:#030101;fill-opacity:1;stroke:none;stroke-width:11.3386;stroke-dasharray:none;stroke-opacity:1" /><path
       id="path141"
       d="m 869.98991,558.31134 c 0,3.664 -2.97026,6.63426 -6.63426,6.63426 -3.664,0 -6.63426,-2.97026 -6.63426,-6.63426 0,-3.664 2.97026,-6.63426 6.63426,-6.63426 3.664,0 6.63426,2.97026 6.63426,6.63426 z m 191.10809,0 c 0,3.664 2.9702,6.63426 6.6342,6.63426 3.664,0 6.6343,-2.97026 6.6343,-6.63426 0,-3.664 -2.9703,-6.63426 -6.6343,-6.63426 -3.664,0 -6.6342,2.97026 -6.6342,6.63426 z"
       style="opacity:1;fill:#030101;fill-opacity:1;stroke:none;stroke-width:11.3386;stroke-dasharray:none;stroke-opacity:1" /><path
       id="path142"
       d="m 880.77364,613.67737 c 0,3.31247 -2.68529,5.99776 -5.99776,5.99776 -3.31247,0 -5.99776,-2.68529 -5.99776,-5.99776 0,-3.31247 2.68529,-5.99776 5.99776,-5.99776 3.31247,0 5.99776,2.68529 5.99776,5.99776 z m 169.54066,0 c 0,3.31247 2.6852,5.99776 5.9977,5.99776 3.3125,0 5.9978,-2.68529 5.9978,-5.99776 0,-3.31247 -2.6853,-5.99776 -5.9978,-5.99776 -3.3125,0 -5.9977,2.68529 -5.9977,5.99776 z"
       style="opacity:1;fill:#030101;fill-opacity:1;stroke:none;stroke-width:11.3386;stroke-dasharray:none;stroke-opacity:1" /><path
       id="path143"
       d="m 934.61719,544.40869 c 0,3.56585 -2.8907,6.45654 -6.45655,6.45654 -3.56585,0 -6.45654,-2.89069 -6.45654,-6.45654 0,-3.56585 2.89069,-6.45654 6.45654,-6.45654 3.56585,0 6.45655,2.89069 6.45655,6.45654 z m 61.85352,0 c 0,3.56585 2.8907,6.45654 6.45659,6.45654 3.5658,0 6.4565,-2.89069 6.4565,-6.45654 0,-3.56585 -2.8907,-6.45654 -6.4565,-6.45654 -3.56589,0 -6.45659,2.89069 -6.45659,6.45654 z"
       style="opacity:1;fill:#030101;fill-opacity:1;stroke:none;stroke-width:11.3386;stroke-dasharray:none;stroke-opacity:1" /><path
       id="path2"
       d="m 934.61719,544.40869 c 0,3.56585 -2.8907,6.45654 -6.45655,6.45654 -3.56585,0 -6.45654,-2.89069 -6.45654,-6.45654 0,-3.56585 2.89069,-6.45654 6.45654,-6.45654 3.56585,0 6.45655,2.89069 6.45655,6.45654 z m 61.85352,0 c 0,3.56585 2.8907,6.45654 6.45659,6.45654 3.5658,0 6.4565,-2.89069 6.4565,-6.45654 0,-3.56585 -2.8907,-6.45654 -6.4565,-6.45654 -3.56589,0 -6.45659,2.89069 -6.45659,6.45654 z"
       style="opacity:1;fill:#030101;fill-opacity:1;stroke:none;stroke-width:11.3386;stroke-dasharray:none;stroke-opacity:1" /><path
       id="path19"
       d="m 954.91107,561.52509 c 0,3.56585 -2.89069,6.45654 -6.45654,6.45654 -3.56585,0 -6.45654,-2.89069 -6.45654,-6.45654 0,-3.56585 2.89069,-6.45655 6.45654,-6.45655 3.56585,0 6.45654,2.8907 6.45654,6.45655 z m 21.26576,0 c 0,3.56585 2.89069,6.45654 6.45654,6.45654 3.56585,0 6.45654,-2.89069 6.45654,-6.45654 0,-3.56585 -2.89069,-6.45655 -6.45654,-6.45655 -3.56585,0 -6.45654,2.8907 -6.45654,6.45655 z"
       style="opacity:1;fill:#030101;fill-opacity:1;stroke:none;stroke-width:11.3386;stroke-dasharray:none;stroke-opacity:1" /><path
       id="path20"
       d="m 958.69073,468.86646 c 0,4.55001 -3.68851,8.23852 -8.23852,8.23852 -4.55001,0 -8.23853,-3.68851 -8.23853,-8.23852 0,-4.55002 3.68852,-8.23853 8.23853,-8.23853 4.55001,0 8.23852,3.68851 8.23852,8.23853 z m 13.70644,0 c 0,4.55001 3.68851,8.23852 8.23852,8.23852 4.55001,0 8.23853,-3.68851 8.23853,-8.23852 0,-4.55002 -3.68852,-8.23853 -8.23853,-8.23853 -4.55001,0 -8.23852,3.68851 -8.23852,8.23853 z"
       style="opacity:1;fill:#030101;fill-opacity:1;stroke:none;stroke-width:11.3386;stroke-dasharray:none;stroke-opacity:1" /><path
       id="path21"
       d="m 901.39277,598.07458 c 0,3.24829 -2.63326,5.88154 -5.88154,5.88154 -3.24828,0 -5.88154,-2.63325 -5.88154,-5.88154 0,-3.24828 2.63326,-5.88153 5.88154,-5.88153 3.24828,0 5.88154,2.63325 5.88154,5.88153 z m 128.30233,0 c 0,3.24829 2.6333,5.88154 5.8816,5.88154 3.2483,0 5.8815,-2.63325 5.8815,-5.88154 0,-3.24828 -2.6332,-5.88153 -5.8815,-5.88153 -3.2483,0 -5.8816,2.63325 -5.8816,5.88153 z"
       style="opacity:1;fill:#030101;fill-opacity:1;stroke:none;stroke-width:11.3386;stroke-dasharray:none;stroke-opacity:1" /></g></svg>
