<?xml version="1.0" encoding="UTF-8" standalone="no"?>
<svg
   height="100mm"
   width="100mm"
   version="1.1"
   id="svg3"
   xml:space="preserve"
   xmlns:xlink="http://www.w3.org/1999/xlink"
   xmlns="http://www.w3.org/2000/svg"
   xmlns:svg="http://www.w3.org/2000/svg"><defs
     id="defs3"><linearGradient
       id="linearGradient80"><stop
         style="stop-color:#fad028;stop-opacity:1;"
         offset="0"
         id="stop80" /><stop
         style="stop-color:#856a02;stop-opacity:1;"
         offset="1"
         id="stop81" /></linearGradient><linearGradient
       xlink:href="#linearGradient80"
       id="linearGradient81"
       x1="13.177589"
       y1="22.973698"
       x2="38.978928"
       y2="22.973698"
       gradientUnits="userSpaceOnUse" /><linearGradient
       xlink:href="#linearGradient80"
       id="linearGradient18"
       gradientUnits="userSpaceOnUse"
       x1="13.177589"
       y1="22.973698"
       x2="38.978928"
       y2="22.973698" /></defs><g
     id="g49"
     transform="matrix(11.298456,0,0,-11.298456,-105.66769,448.5437)"
     style="fill:url(#linearGradient81);stroke:#000000;stroke-width:0.0009;stroke-dasharray:none;stroke-opacity:1"><path
       d="m 37.543,36.317 c 0.27,0 0.308,-0.009 0.394,-0.043 a 0.67,0.67 0 0 0 0.134,-0.062 c -0.007,-0.023 -0.06,-0.048 -0.268,-0.154 -0.25,-0.134 -0.826,-0.451 -0.826,-0.48 0,-0.006 0.01,-0.004 0.02,0.004 0.01,0.01 0.02,0.006 0.009,-0.009 -0.008,-0.014 -0.02,-0.02 -0.031,-0.013 -0.032,0.017 -0.183,-0.106 -0.183,-0.134 0.008,-0.013 0.003,-0.016 -0.01,-0.007 a 8.048,8.048 0 0 1 -1.458,-1.282 c -0.173,-0.182 -0.192,-0.22 -0.173,-0.24 0.008,-0.008 0.005,-0.01 -0.009,-0.002 -0.031,0.016 -0.125,-0.106 -0.09,-0.135 0.008,-0.009 0.004,-0.01 -0.008,-0.003 -0.032,0.017 -0.173,-0.154 -0.144,-0.183 0.008,-0.014 0.005,-0.017 -0.009,-0.01 -0.03,0.018 -0.09,-0.069 -0.069,-0.105 0.007,-0.011 0.003,-0.014 -0.01,-0.007 -0.01,0.008 -0.05,-0.03 -0.09,-0.09 l -0.069,-0.115 -0.076,0.072 c -0.041,0.038 -0.077,0.062 -0.09,0.06 -0.01,-0.01 -0.01,-0.006 -0.004,0.007 0.007,0.014 -0.02,0.05 -0.06,0.084 -0.041,0.034 -0.116,0.106 -0.154,0.144 -0.307,0.154 -0.403,0.413 -0.7,0.528 -0.01,-0.01 -0.02,-0.006 -0.01,0.007 0.007,0.013 -0.02,0.043 -0.06,0.062 a 0.467,0.467 0 0 0 -0.07,0.05 c 0,0.01 0.25,0.25 0.269,0.25 0.71,0.663 1.68,1.306 2.598,1.63 0.278,0.072 0.576,0.09 0.883,0.09 0.163,0.002 0.269,0.004 0.365,0.004 z M 14.554,36.135 c 0.269,0 0.451,-0.027 0.749,-0.116 a 5.581,5.581 0 0 0 1.295,-0.566 48.379,48.379 0 0 0 1.58,-1.182 c 0.009,0 0.162,-0.153 0.162,-0.163 0,-0.003 -0.07,-0.06 -0.163,-0.134 -0.09,-0.07 -0.154,-0.135 -0.144,-0.144 0.008,-0.013 0.005,-0.017 -0.007,-0.01 -0.03,0.017 -0.124,-0.058 -0.09,-0.084 0.009,-0.01 0.005,-0.011 -0.008,-0.004 -0.03,0.017 -0.566,-0.47 -0.547,-0.509 0.008,-0.013 0.004,-0.017 -0.007,-0.01 -0.01,0.007 -0.06,-0.03 -0.124,-0.084 l -0.106,-0.115 -0.06,0.063 a 5.285,5.285 0 0 0 -0.211,0.268 c -0.076,0.116 -0.173,0.202 -0.182,0.192 -0.01,-0.006 -0.02,-0.004 -0.01,0.006 0.007,0.024 -0.06,0.125 -0.07,0.105 -0.007,-0.005 -0.009,-0.003 -0.003,0.004 -0.816,0.893 -1.618,1.613 -2.645,2.13 l -0.279,0.143 0.077,0.034 a 1.76,1.76 0 0 0 0.76,0.134 z m 11.468,-0.183 c 0.365,0 0.73,-0.006 0.95,-0.02 0.989,-0.063 1.993,-0.212 2.766,-0.423 0.48,-0.106 0.983,-0.298 1.412,-0.47 0.355,-0.145 0.94,-0.423 1.296,-0.625 0.125,-0.062 0.22,-0.134 0.25,-0.144 0.21,-0.134 0.403,-0.268 0.614,-0.412 0.432,-0.346 0.595,-0.48 0.653,-0.538 0.04,-0.038 0.076,-0.077 0.076,-0.077 0.007,0 0.153,-0.134 0.307,-0.297 0.269,-0.22 0.384,-0.375 0.595,-0.634 0.05,-0.062 0.106,-0.125 0.125,-0.115 0.01,0.008 0.02,0.005 0.01,-0.005 0.327,-0.442 0.557,-0.797 0.807,-1.207 0.633,-1.107 1.026,-2.33 1.25,-3.52 0.191,-1.026 0.259,-2.065 0.22,-3.453 -0.02,-1.01 -0.076,-1.77 -0.192,-2.459 -0.173,-0.965 -0.413,-2.019 -0.873,-2.822 -0.04,-0.072 -0.07,-0.144 -0.06,-0.164 0.007,-0.013 0.006,-0.017 -0.003,-0.008 -0.173,-0.173 -0.27,-0.384 -0.442,-0.576 -0.01,-0.015 -0.02,-0.036 -0.01,-0.048 -0.031,-0.013 -0.076,-0.106 -0.106,-0.135 0.009,-0.008 0.005,-0.012 -0.009,-0.008 -0.432,-0.422 -0.806,-0.787 -1.328,-1.12 -0.031,-0.021 -0.07,-0.043 -0.077,-0.057 -0.03,-0.03 -0.518,-0.356 -0.518,-0.356 -0.375,-0.24 -0.787,-0.499 -1.17,-0.768 -0.01,-0.008 -0.05,-0.038 -0.077,-0.07 -0.04,-0.028 -0.07,-0.05 -0.076,-0.05 a 0.224,0.224 0 0 1 -0.07,-0.047 0.326,0.326 0 0 0 -0.09,-0.062 c -0.02,-0.008 -0.031,-0.024 -0.02,-0.036 0.01,-0.015 0.006,-0.02 -0.008,-0.01 -0.031,0.019 -0.509,-0.336 -0.48,-0.375 0.007,-0.012 0.003,-0.015 -0.01,-0.007 -0.01,0.007 -0.05,-0.013 -0.09,-0.043 -0.04,-0.031 -0.124,-0.09 -0.172,-0.135 l -0.106,-0.076 -0.06,0.182 c -0.07,0.202 -0.173,0.461 -0.269,0.605 -0.105,0.173 -0.662,1.32 -0.787,1.564 -0.076,0.192 -0.173,0.394 -0.24,0.566 -0.04,0.106 -0.09,0.221 -0.115,0.24 -0.05,0.106 -0.22,0.634 -0.326,0.941 a 8.346,8.346 0 0 0 -0.336,1.44 c -0.01,0.09 -0.031,0.221 -0.041,0.288 -0.05,0.327 -0.04,1.23 0.02,1.616 0.031,0.22 0.173,0.758 0.22,0.854 0.005,0.007 0.07,-0.009 0.145,-0.036 0.182,-0.062 0.509,-0.144 0.691,-0.182 a 3.262,3.262 0 0 1 1.601,0.211 4.4,4.4 0 0 1 0.864,0.47 c 0.442,0.337 0.826,0.701 1.183,1.123 0,0.009 0.007,0.024 0.01,0.033 0.04,0.036 0.01,0.163 -0.04,0.211 -0.442,0.365 -0.76,0.47 -1.116,0.576 -0.163,0.044 -0.576,0.07 -0.797,0.044 -0.346,-0.036 -0.365,-0.044 -0.538,-0.09 -0.326,-0.085 -0.835,-0.308 -0.95,-0.414 -0.02,-0.02 -0.04,-0.033 -0.04,-0.026 0,0.017 -0.318,-0.22 -0.442,-0.355 -0.06,-0.058 -0.116,-0.115 -0.106,-0.135 0.008,-0.013 0.005,-0.017 -0.006,-0.01 -0.25,-0.22 -0.365,-0.412 -0.518,-0.595 -0.031,-0.05 -0.077,-0.134 -0.115,-0.173 -0.183,-0.24 -0.375,-0.854 -0.47,-1.266 A 4.521,4.521 0 0 1 28.682,21.13 c 0.002,-0.768 0.115,-1.438 0.374,-2.378 0.134,-0.441 0.346,-1.067 0.48,-1.389 a 1.6,1.6 0 0 1 0.09,-0.211 c 0.27,-0.662 0.663,-1.443 0.983,-1.987 0.01,0.008 0.01,0.006 0.01,-0.005 -0.01,-0.036 0.032,-0.125 0.05,-0.106 0.01,0.008 0.02,0.004 0.009,-0.01 0.01,-0.105 0.07,-0.182 0.115,-0.278 0.125,-0.24 0.182,-0.614 0.192,-0.968 0.005,-0.183 0.001,-0.22 -0.02,-0.22 -0.077,0 -1.208,-0.116 -1.598,-0.164 -0.49,-0.058 -0.537,-0.077 -0.576,-0.211 -0.03,-0.106 0.01,-0.212 0.125,-0.25 0.07,-0.033 0.106,-0.031 0.547,0.021 0.27,0.029 0.692,0.072 0.95,0.106 0.26,0.024 0.48,0.043 0.5,0.05 0.04,0.013 0.05,-0.024 0.031,-0.062 a 1.652,1.652 0 0 1 -0.06,-0.173 c -0.02,-0.084 -0.06,-0.173 -0.06,-0.183 -0.01,-0.014 -0.01,-0.026 -0.007,-0.026 0.02,0 -0.106,-0.22 -0.202,-0.384 l -0.076,-0.134 -0.144,0.012 c -0.336,0.029 -0.787,0.057 -0.874,0.048 a 0.19,0.19 0 0 1 -0.153,-0.072 c -0.106,-0.115 -0.07,-0.26 0.05,-0.327 0.05,-0.026 0.403,-0.062 0.624,-0.069 0.05,0 0.06,-0.006 0.031,-0.031 a 0.796,0.796 0 0 0 -0.134,-0.106 0.945,0.945 0 0 1 -0.164,-0.115 c -0.03,-0.026 -0.04,-0.031 -0.03,-0.012 0.01,0.026 0.01,0.026 -0.01,0 a 0.11,0.11 0 0 0 -0.05,-0.036 5.912,5.912 0 0 0 -0.643,-0.196 c -0.568,-0.072 -1.23,0.043 -1.666,0.288 -0.06,0.034 -0.125,0.05 -0.134,0.043 -0.007,-0.006 -0.01,-0.001 -0.01,0.011 0,0.013 -0.05,0.05 -0.115,0.09 -0.183,0.106 -0.519,0.49 -0.644,0.711 -0.115,0.192 -0.192,0.375 -0.192,0.442 0,0.016 0.106,0.072 0.221,0.134 0.375,0.183 1.052,0.557 1.052,0.615 0,0.013 0.007,0.016 0.01,0.009 0.02,-0.017 0.25,0.173 0.23,0.202 -0.002,0.01 0.002,0.014 0.011,0.009 0.031,-0.021 0.346,0.326 0.326,0.365 -0.007,0.012 -0.004,0.016 0.008,0.009 0.031,-0.017 0.144,0.192 0.173,0.336 0.06,0.201 0.04,0.528 -0.05,0.7 -0.05,0.106 -0.077,0.144 -0.106,0.135 -0.01,-0.009 -0.01,-0.003 -10e-4,0.013 0.01,0.019 -0.02,0.062 -0.106,0.144 -0.06,0.06 -0.134,0.115 -0.134,0.115 a 0.457,0.457 0 0 0 -0.106,0.043 c -0.05,0.027 -0.182,0.062 -0.269,0.09 -0.182,0.044 -0.201,0.044 -1.528,0.044 -1.234,0 -1.361,-0.003 -1.513,-0.036 -0.192,-0.043 -0.451,-0.163 -0.422,-0.183 0.007,-0.012 0.003,-0.015 -0.01,-0.007 -0.01,0.007 -0.06,-0.029 -0.124,-0.084 -0.05,-0.05 -0.09,-0.106 -0.077,-0.125 0.008,-0.012 0.005,-0.016 -0.006,-0.01 -0.02,0.017 -0.135,-0.191 -0.164,-0.316 a 1.477,1.477 0 0 1 0.01,-0.518 c 0.115,-0.365 0.403,-0.701 0.912,-1.044 0.23,-0.173 0.778,-0.441 1.024,-0.537 0.04,-0.015 0.07,-0.034 0.07,-0.044 0,-0.03 -0.135,-0.326 -0.164,-0.374 -0.02,-0.026 -0.031,-0.06 -0.02,-0.076 0.009,-0.016 0.006,-0.02 -0.009,-0.01 -0.01,0.008 -0.02,0.006 -0.02,-0.005 0,-0.01 -0.04,-0.084 -0.09,-0.163 a 0.504,0.504 0 0 1 -0.077,-0.154 c 0.008,-0.008 0.005,-0.012 -0.006,-0.008 -0.03,0.01 -0.278,-0.26 -0.269,-0.278 0.009,-0.01 0.005,-0.011 -0.008,-0.004 -0.01,0.007 -0.05,-0.01 -0.076,-0.036 -0.031,-0.029 -0.06,-0.05 -0.06,-0.05 -0.005,0 -0.05,-0.031 -0.115,-0.07 -0.22,-0.172 -0.586,-0.307 -0.94,-0.364 A 2.879,2.879 0 0 0 23.3,11.28 c -0.336,0 -0.384,0.005 -0.566,0.057 a 3.18,3.18 0 0 0 -0.595,0.23 c -0.09,0.058 -0.183,0.106 -0.183,0.085 -0.008,-0.008 -0.008,-0.003 0,0.01 0.006,0.014 -0.001,0.03 -0.02,0.034 -0.021,0.007 -0.032,0.024 -0.032,0.036 0,0.021 0.076,0.026 0.317,0.034 0.355,0.006 0.432,0.023 0.528,0.105 0.134,0.135 0.02,0.365 -0.183,0.365 -0.134,0 -1.007,-0.06 -1.04,-0.072 -0.02,-0.008 -0.135,0.084 -0.135,0.125 0,0.008 -0.01,0.026 -0.03,0.043 -0.077,0.084 -0.375,0.787 -0.327,0.806 0.031,0.017 1.292,-0.105 1.973,-0.182 a 0.376,0.376 0 0 1 0.173,0.013 c 0.06,0.026 0.153,0.135 0.153,0.202 0,0.062 -0.06,0.173 -0.134,0.192 -0.09,0.043 -0.922,0.144 -1.91,0.22 l -0.316,0.027 0.003,0.23 c 0.002,0.154 0.02,0.317 0.05,0.442 0.02,0.125 0.041,0.22 0.05,0.23 0.06,0.212 0.183,0.413 0.25,0.576 0.077,0.164 0.144,0.279 0.135,0.279 -0.009,0 -0.006,0.007 0.006,0.016 0.211,0.326 0.355,0.643 0.528,1.02 0.02,0.034 0.02,0.07 0.02,0.077 -0.006,0.01 -0.003,0.019 0.007,0.019 0.144,0.259 0.26,0.528 0.365,0.806 0.003,0.017 0.01,0.036 0.02,0.043 0.04,0.034 0.355,0.903 0.47,1.317 0.298,1.026 0.394,1.665 0.394,2.48 10e-4,0.758 -0.106,1.316 -0.346,1.92 -0.134,0.327 -0.365,0.74 -0.413,0.711 -0.009,-0.008 -0.01,-0.005 -0.004,0.007 0.02,0.034 -0.125,0.22 -0.346,0.46 -0.173,0.183 -0.509,0.462 -0.528,0.442 -0.01,-0.007 -0.02,-0.004 -0.01,0.007 0.02,0.028 -0.307,0.22 -0.556,0.336 a 2.97,2.97 0 0 1 -1.282,0.268 c -0.326,0.002 -0.566,-0.03 -0.653,-0.084 -0.47,-0.22 -0.643,-0.268 -0.893,-0.518 -0.069,-0.09 -0.153,-0.134 -0.144,-0.23 0.003,-0.044 0.135,-0.202 0.164,-0.192 0.01,0.003 0.01,-0.005 0.006,-0.017 -0.007,-0.012 0.125,-0.153 0.27,-0.307 0.345,-0.345 0.48,-0.46 0.508,-0.441 0.01,0.007 0.02,0.004 0.01,-0.007 -0.01,-0.017 0.04,-0.063 0.268,-0.221 0.115,-0.076 0.423,-0.26 0.586,-0.336 0.317,-0.163 0.739,-0.278 1.085,-0.326 a 3.674,3.674 0 0 1 1.102,0.06 c 0.153,0.033 0.307,0.083 0.364,0.105 a 0.3,0.3 0 0 0 0.125,0.03 c 0.02,-0.014 0.135,-0.354 0.173,-0.565 0.07,-0.308 0.09,-0.47 0.106,-0.96 0.02,-0.634 -0.04,-1.172 -0.212,-1.895 a 14.72,14.72 0 0 0 -0.825,-2.376 c -0.04,-0.09 -0.07,-0.182 -0.06,-0.182 0.008,-0.013 0.006,-0.017 -0.004,-0.008 -0.01,0.012 -0.076,-0.106 -0.09,-0.173 -0.144,-0.288 -0.26,-0.528 -0.393,-0.835 -0.001,-0.014 -0.008,-0.026 -0.01,-0.026 a 0.521,0.521 0 0 1 -0.09,-0.144 c -0.042,-0.077 -0.135,-0.23 -0.193,-0.365 A 3.38,3.38 0 0 1 20.698,14.62 c -0.02,-0.06 -0.04,-0.124 -0.05,-0.124 -0.01,0 -0.077,0.05 -0.173,0.134 -0.173,0.144 -0.634,0.5 -0.643,0.5 a 0.389,0.389 0 0 0 -0.077,0.05 c -0.105,0.083 -0.09,0.071 -0.307,0.22 -0.125,0.084 -0.211,0.144 -0.22,0.144 -0.02,0 -0.02,0.004 -0.02,0.01 0.01,0.01 -0.183,0.153 -0.212,0.153 -0.01,0 -0.02,0.008 -0.031,0.017 -0.01,0.026 -0.528,0.365 -0.566,0.365 -0.01,0 -0.02,0.005 -0.01,0.011 0.005,0.006 -0.008,0.021 -0.032,0.033 -0.787,0.528 -1.505,0.941 -2.042,1.652 -0.05,0.05 -0.124,0.134 -0.144,0.172 -0.02,0.036 -0.06,0.06 -0.07,0.05 -0.009,-0.007 -0.02,-0.004 -0.008,0.008 0.007,0.012 -0.02,0.072 -0.07,0.135 -0.441,0.624 -0.796,1.437 -1.023,2.436 -0.115,0.47 -0.22,1.366 -0.278,2.029 -0.135,1.615 -0.09,3.063 0.09,4.292 0.031,0.21 0.06,0.384 0.06,0.422 a 0.208,0.208 0 0 0 0.01,0.062 c 0.006,0.006 0.031,0.135 0.06,0.26 0.22,1.14 0.672,2.364 1.204,3.26 0.134,0.27 0.326,0.519 0.47,0.769 -0.007,0.007 -0.003,0.013 0.01,0.013 0.01,0 0.069,0.062 0.134,0.153 0.144,0.183 0.317,0.403 0.422,0.528 0.02,0.029 0.04,0.06 0.031,0.072 -0.006,0.01 -0.003,0.015 0.008,0.008 0.032,-0.017 0.183,0.154 0.163,0.173 -0.007,0.014 -0.006,0.017 0.003,0.009 0.01,-0.008 0.163,0.125 0.317,0.269 0.182,0.173 0.384,0.365 0.5,0.46 0.114,0.085 0.191,0.183 0.191,0.183 -0.002,0.01 0.002,0.016 0.01,0.013 0.031,-0.011 0.173,0.09 0.163,0.125 -0.007,0.013 -0.005,0.017 0.004,0.008 0.47,0.26 0.816,0.547 1.286,0.797 0.567,0.326 1.201,0.557 1.895,0.778 0.966,0.297 2.099,0.499 3.293,0.566 0.211,0.014 0.586,0.021 0.96,0.021 z m 12.452,-0.084 c 0.03,-0.005 0.105,-0.182 0.144,-0.297 0.076,-0.279 0.07,-0.768 -0.01,-1.168 -0.02,-0.076 -0.031,-0.173 -0.041,-0.192 A 6.452,6.452 0 0 0 38.356,33.53 c -0.221,-1.018 -0.768,-1.726 -1.153,-2.567 0.007,-0.013 0.006,-0.017 -0.003,-0.01 -0.02,0.017 -0.384,-0.613 -0.384,-0.652 0,-0.014 -0.007,-0.02 -0.01,-0.016 -0.008,0.005 -0.02,-0.006 -0.031,-0.023 -0.01,-0.026 -0.02,-0.026 -0.041,-0.005 -0.02,0.016 -0.02,0.034 -0.02,0.044 0.005,0.008 -0.003,0.035 -0.02,0.062 -0.01,0.026 -0.032,0.05 -0.032,0.057 -0.21,0.327 -0.336,0.749 -0.566,1.033 -0.01,-0.007 -0.01,-0.002 -0.005,0.011 0.01,0.026 -0.135,0.25 -0.163,0.25 -0.01,0 -0.01,0.007 -0.009,0.017 0.01,0.023 -0.163,0.268 -0.182,0.25 -0.01,-0.004 -0.01,0.002 -0.008,0.013 0.01,0.024 -0.365,0.528 -0.528,0.72 -0.01,0.013 -0.06,0.063 -0.106,0.135 -0.04,0.05 -0.09,0.084 -0.106,0.084 -0.04,-0.023 -0.006,0.115 0.041,0.173 0.02,0.03 0.04,0.07 0.031,0.084 -0.007,0.013 -0.006,0.017 0.003,0.01 0.008,-0.008 0.06,0.047 0.134,0.134 1.03,1.042 1.969,2.095 3.198,2.547 0.04,0.018 0.076,0.032 0.076,0.032 h 10e-4 z M 13.38,35.638 c 0.02,0 0.04,-0.006 0.04,-0.013 0,-0.009 0.041,-0.031 0.106,-0.05 1.06,-0.365 1.672,-1.082 2.377,-1.647 0.01,0.006 0.01,0.003 0.01,-0.007 -0.009,-0.029 0.317,-0.365 0.336,-0.365 0.01,0.007 0.01,0.002 0.006,-0.01 0.221,-0.25 0.317,-0.403 0.5,-0.662 0.069,-0.106 0.105,-0.164 0.076,-0.183 -0.01,-0.013 -0.01,-0.03 -0.004,-0.038 0.008,-0.01 0.004,-0.011 -0.01,-0.003 -0.02,0.013 -0.076,-0.06 -0.07,-0.084 0.003,-0.006 -0.003,-0.011 -0.01,-0.011 -0.04,0 -0.345,-0.403 -0.335,-0.442 0.003,-0.012 -0.003,-0.016 -0.01,-0.01 -0.02,0.015 -0.365,-0.48 -0.557,-0.835 -0.22,-0.374 -0.442,-0.825 -0.422,-0.864 0.008,-0.014 0.006,-0.019 -0.003,-0.01 -0.02,0.015 -0.211,-0.374 -0.22,-0.49 -0.02,-0.069 -0.041,-0.061 -0.09,0.027 a 19.92,19.92 0 0 0 -1.327,2.554 c -0.221,0.422 -0.375,0.912 -0.5,1.397 0,0.02 -0.02,0.153 -0.04,0.269 -0.06,0.288 -0.06,0.986 -0.02,1.167 0.04,0.173 0.125,0.278 0.182,0.288 h 0.01 z m 8.466,-1.756 c -0.393,0.001 -0.912,-0.125 -1.281,-0.278 a 1.25,1.25 0 0 0 -0.173,-0.07 c -0.031,0 -0.298,-0.173 -0.346,-0.22 -0.173,-0.173 -0.26,-0.461 -0.22,-0.625 a 0.71,0.71 0 0 1 0.134,-0.297 c 0.06,-0.084 0.201,-0.183 0.22,-0.173 0.01,0.007 0.01,0.004 0.008,-0.008 -0.02,-0.029 0.22,-0.144 0.422,-0.192 0.135,-0.034 0.222,-0.043 0.51,-0.048 0.374,-0.006 0.374,-0.006 0.662,0.062 0.5,0.134 0.806,0.365 0.922,0.758 a 0.887,0.887 0 0 1 -0.26,0.893 c -0.03,0.027 -0.134,0.084 -0.21,0.135 -0.145,0.062 -0.174,0.076 -0.346,0.084 a 1.45,1.45 0 0 1 -0.077,0.001 z m 6.752,-0.021 c -0.154,0 -0.288,-0.01 -0.307,-0.026 -0.01,-0.013 -0.031,-0.017 -0.041,-0.011 -0.02,0.019 -0.317,-0.07 -0.422,-0.135 -0.183,-0.09 -0.365,-0.317 -0.346,-0.384 0.007,-0.02 0.004,-0.029 -0.01,-0.017 -0.02,0.011 -0.02,-0.03 -0.01,-0.153 a 0.57,0.57 0 0 1 0.06,-0.27 c 0.07,-0.134 0.201,-0.278 0.22,-0.268 0.01,0.008 0.02,0.004 0.008,-0.01 -0.02,-0.031 0.192,-0.173 0.365,-0.22 0.125,-0.039 0.192,-0.05 0.375,-0.058 0.134,-0.003 0.259,-10e-4 0.288,0.004 0.288,0.05 0.604,0.182 0.787,0.278 0.192,0.135 0.336,0.327 0.326,0.49 a 0.467,0.467 0 0 1 -0.134,0.288 c -0.163,0.192 -0.624,0.422 -0.96,0.47 -0.06,0.008 -0.154,0.013 -0.22,0.013 z m -3.16,-0.653 c -0.278,0.014 -0.604,-0.072 -0.748,-0.23 0.008,-0.013 0.004,-0.017 -0.009,-0.009 -0.031,0.017 -0.125,-0.09 -0.182,-0.23 -0.07,-0.163 -0.106,-0.336 -0.07,-0.5 0.02,-0.153 0.144,-0.383 0.183,-0.364 0.01,0.007 0.02,0.003 0.006,-0.012 -0.02,-0.036 0.125,-0.173 0.269,-0.22 a 0.66,0.66 0 0 1 0.345,-0.073 c 0.144,-0.005 0.211,0 0.221,0.016 0.008,0.013 0.02,0.02 0.031,0.013 0.05,-0.03 0.336,0.135 0.432,0.24 0.077,0.09 0.173,0.212 0.154,0.23 -0.007,0.012 -0.004,0.022 0.006,0.022 0.02,0 0.106,0.23 0.125,0.364 0.02,0.164 -0.115,0.557 -0.173,0.51 -0.009,-0.01 -0.01,-0.005 -0.002,0.01 0.031,0.05 -0.211,0.21 -0.365,0.24 a 1.32,1.32 0 0 1 -0.22,0.013 z m -4.644,-2.537 a 1.146,1.146 0 0 1 -0.365,-0.06 2.189,2.189 0 0 1 -0.921,-0.624 c -0.27,-0.326 -0.375,-0.538 -0.442,-0.883 -0.05,-0.24 -0.031,-0.423 0.06,-0.586 0.076,-0.173 0.163,-0.22 0.326,-0.269 h -0.001 c -0.07,-0.027 0.163,-0.036 0.172,-0.036 0.077,0.002 0.26,0.05 0.365,0.105 0.183,0.085 0.576,0.423 0.557,0.461 -0.007,0.013 -0.006,0.017 0.003,0.01 0.02,-0.022 0.077,0.025 0.06,0.05 -0.007,0.011 -0.004,0.015 0.008,0.008 0.03,-0.016 0.125,0.076 0.09,0.106 -0.009,0.008 -0.002,0.012 0.02,0.008 0.02,-0.003 0.031,0.005 0.031,0.02 -0.002,0.013 0.002,0.023 0.01,0.022 0.031,-0.008 0.115,0.048 0.115,0.084 0,0.017 0.008,0.027 0.02,0.021 0.01,-0.006 0.06,0.024 0.135,0.063 0.06,0.043 0.153,0.105 0.192,0.134 0.07,0.048 0.297,0.355 0.297,0.374 0,0.006 0.01,0.034 0.02,0.063 0.01,0.029 0.02,0.144 0.02,0.23 0.002,0.173 -0.005,0.202 -0.05,0.298 a 0.585,0.585 0 0 1 -0.268,0.297 0.803,0.803 0 0 1 -0.404,0.116 z m 12.003,0.787 h -0.07 c -0.335,-10e-4 -0.364,-0.004 -0.556,-0.07 -0.202,-0.062 -0.586,-0.268 -0.586,-0.316 0,-0.011 -0.01,-0.021 -0.03,-0.021 -0.041,0 -0.173,-0.134 -0.154,-0.163 0.009,-0.01 0.005,-0.013 -0.008,-0.01 -0.172,-0.153 -0.268,-0.268 -0.364,-0.575 -0.06,-0.192 -0.07,-0.394 -0.02,-0.528 0.04,-0.125 0.182,-0.308 0.21,-0.308 0.01,0 0.032,-0.008 0.032,-0.017 0,-0.033 0.23,-0.144 0.384,-0.192 0.076,-0.023 0.23,-0.05 0.345,-0.062 v 0.002 c 0.22,-0.024 0.422,-0.024 0.633,0.001 0.164,0.017 0.423,0.084 0.528,0.135 0.032,0.013 0.06,0.026 0.077,0.028 0.05,0.01 0.297,0.183 0.365,0.221 0.105,0.09 0.21,0.24 0.201,0.269 -0.007,0.012 -0.004,0.016 0.007,0.009 0.01,-0.007 0.04,0.023 0.06,0.062 0.25,0.528 0.06,1.18 -0.384,1.392 -0.202,0.09 -0.346,0.135 -0.662,0.135 z m -8.262,-2.3 -0.06,-0.001 c -0.154,-0.011 -0.413,-0.106 -0.423,-0.164 -0.006,-0.015 -0.02,-0.026 -0.04,-0.026 -0.041,0 -0.24,-0.23 -0.221,-0.269 0.007,-0.013 0.006,-0.017 -0.003,-0.008 -0.02,0.019 -0.135,-0.154 -0.192,-0.288 -0.077,-0.211 -0.106,-0.355 -0.06,-0.528 a 0.948,0.948 0 0 1 0.49,-0.634 0.753,0.753 0 0 1 0.278,-0.072 c 0.163,-0.008 0.192,-0.003 0.279,0.036 0.03,0.012 0.06,0.024 0.076,0.026 0.05,0.01 0.211,0.125 0.26,0.173 0.124,0.134 0.182,0.182 0.23,0.346 0.144,0.278 0.21,0.643 0.144,0.806 -0.01,0.034 -0.032,0.077 -0.032,0.106 -0.01,0.07 -0.134,0.22 -0.22,0.307 -0.173,0.134 -0.336,0.201 -0.528,0.201 z m 4.149,0.135 a 1.908,1.908 0 0 1 -0.74,-0.125 c -0.182,-0.057 -0.527,-0.22 -0.566,-0.268 -0.02,-0.016 -0.04,-0.029 -0.05,-0.029 -0.01,0 -0.01,-0.011 -0.006,-0.024 0.01,-0.015 0.006,-0.017 -0.01,-0.009 -0.03,0.02 -0.268,-0.22 -0.364,-0.364 a 0.9,0.9 0 0 1 -0.154,-0.692 c 0.01,-0.06 0.031,-0.124 0.031,-0.134 0.001,-0.006 0.032,-0.05 0.06,-0.115 0.07,-0.125 0.288,-0.432 0.336,-0.288 0.041,0.144 0.346,-0.07 0.51,-0.026 0.059,0.017 0.182,0.07 0.258,0.125 0.27,0.153 0.423,0.22 0.538,0.24 A 1,1 0 0 0 29.17,27.5 0.672,0.672 0 0 1 29.314,27.45 c 0.01,0 0.02,-0.004 0.01,-0.01 -0.02,-0.017 0.125,-0.115 0.144,-0.09 0.01,0.006 0.02,0.002 0.007,-0.011 -0.02,-0.029 0.134,-0.106 0.22,-0.135 0.145,-0.023 0.471,0.135 0.423,0.211 -0.007,0.012 -0.003,0.014 0.01,0.007 0.03,-0.019 0.124,0.106 0.105,0.144 -0.008,0.014 -0.007,0.02 0.002,0.011 0.01,-0.008 0.04,0.024 0.06,0.072 0.182,0.365 0.125,0.768 -0.154,1.097 -0.076,0.106 -0.326,0.279 -0.364,0.26 -0.01,-0.01 -0.02,-0.007 -0.007,0.013 0.01,0.02 0.007,0.024 -0.02,0.014 -0.02,-0.008 -0.031,-0.006 -0.02,0.004 0.01,0.023 -0.25,0.135 -0.269,0.125 -0.01,-0.007 -0.02,-0.003 -0.02,0.008 0,0.043 -0.298,0.09 -0.624,0.105 l -0.135,0.002 z m 6.728,-6.134 c -0.124,0.002 -0.259,-0.036 -0.48,-0.135 A 1.359,1.359 0 0 1 34.414,22.66 c -0.211,-0.25 -0.269,-0.5 -0.202,-0.797 0.06,-0.288 0.202,-0.48 0.423,-0.586 0.182,-0.084 0.48,-0.07 0.69,0.034 0.212,0.105 0.423,0.403 0.548,0.758 0.06,0.173 0.07,0.22 0.07,0.422 0,0.212 -0.005,0.23 -0.05,0.336 a 0.537,0.537 0 0 1 -0.308,0.288 0.587,0.587 0 0 1 -0.173,0.036 z M 17.28,22.477 a 0.749,0.749 0 0 1 -0.134,-0.013 c -0.135,-0.028 -0.212,-0.071 -0.26,-0.134 -0.01,-0.017 -0.02,-0.02 -0.01,-0.005 0.01,0.021 0,0.017 -0.04,-0.006 -0.07,-0.043 -0.183,-0.192 -0.163,-0.22 0.005,-0.017 0,-0.032 -0.01,-0.037 -0.041,-0.014 -0.031,-0.297 0.02,-0.422 0.04,-0.134 0.21,-0.346 0.23,-0.326 0.01,0.006 0.02,0.003 0.02,-0.01 0,-0.033 0.173,-0.133 0.288,-0.172 0.164,-0.043 0.26,-0.036 0.385,0.021 0.163,0.062 0.25,0.144 0.22,0.182 -0.006,0.011 -0.002,0.014 0.01,0.006 0.031,-0.017 0.135,0.173 0.144,0.288 0.02,0.105 -0.02,0.259 -0.076,0.374 a 0.803,0.803 0 0 1 -0.662,0.432 z m 15.661,-0.662 a 0.783,0.783 0 0 1 -0.172,-0.106 c 0,-0.008 -0.02,-0.02 -0.041,-0.028 -0.031,-0.008 -0.04,-0.021 -0.031,-0.036 -0.09,-0.039 -0.26,-0.221 -0.327,-0.308 0.01,-0.016 0.007,-0.019 -0.008,-0.01 -0.02,0.01 -0.05,-0.033 -0.09,-0.134 -0.06,-0.134 -0.07,-0.173 -0.06,-0.317 a 0.651,0.651 0 0 1 0.336,-0.595 c 0.153,-0.077 0.268,-0.106 0.402,-0.084 0.125,0.02 0.317,0.134 0.298,0.153 -0.007,0.012 -0.003,0.015 0.01,0.007 0.01,-0.007 0.04,0.003 0.06,0.024 0.02,0.021 0.06,0.048 0.076,0.06 0.04,0.026 0.154,0.173 0.23,0.317 0.135,0.22 0.183,0.499 0.135,0.69 a 0.814,0.814 0 0 0 -0.02,0.107 c -10e-4,0.009 -0.01,0.024 -0.031,0.033 -0.01,0.01 -0.031,0.024 -0.031,0.031 -0.135,0.327 -0.5,0.327 -0.72,0.202 z M 19.367,21.2 c -0.04,0 -0.09,-0.002 -0.144,-0.008 -0.163,-0.021 -0.364,-0.106 -0.345,-0.135 0.006,-0.009 -0.002,-0.013 -0.02,-0.006 -0.031,0.011 -0.173,-0.134 -0.173,-0.182 -0.003,-0.014 -0.01,-0.06 -0.02,-0.106 a 0.431,0.431 0 0 1 0.01,-0.192 c 0.04,-0.144 0.134,-0.317 0.163,-0.297 0.01,0.007 0.01,0.003 0.007,-0.01 -0.02,-0.03 0.192,-0.269 0.345,-0.384 0.183,-0.144 0.394,-0.259 0.586,-0.307 0.365,-0.106 0.644,-0.001 0.788,0.268 0.04,0.084 0.05,0.135 0.05,0.288 0,0.192 -0.003,0.212 -0.076,0.365 -0.09,0.183 -0.375,0.509 -0.432,0.48 -0.02,-0.007 -0.031,-0.004 -0.02,0.006 0.01,0.024 -0.192,0.135 -0.336,0.183 a 1.32,1.32 0 0 1 -0.365,0.06 z m 13.414,-1.695 a 0.597,0.597 0 0 1 -0.22,-0.043 c -0.27,-0.106 -0.529,-0.26 -0.625,-0.374 -0.125,-0.144 -0.144,-0.221 -0.144,-0.423 0,-0.173 0.008,-0.201 0.06,-0.288 a 0.589,0.589 0 0 1 0.307,-0.278 0.862,0.862 0 0 1 0.374,-0.043 c 0.528,0.134 0.855,0.537 0.75,0.96 -0.02,0.115 -0.174,0.365 -0.193,0.365 A 0.307,0.307 0 0 0 33,19.443 0.36,0.36 0 0 1 32.78,19.527 Z m -13.36,-0.576 a 0.856,0.856 0 0 1 -0.163,-0.017 c -0.05,-0.01 -0.173,-0.084 -0.173,-0.106 0,-0.008 -0.01,-0.016 -0.031,-0.016 -0.06,0 -0.192,-0.22 -0.221,-0.403 -0.031,-0.134 -0.01,-0.24 0.06,-0.432 0.115,-0.307 0.432,-0.586 0.787,-0.662 0.211,-0.049 0.355,-0.037 0.509,0.03 0.01,0.005 0.02,0.016 0.01,0.024 -0.003,0.008 0.007,0.01 0.02,0.004 0.05,-0.017 0.211,0.173 0.25,0.27 0.05,0.162 0.04,0.44 -0.032,0.614 -0.01,0.03 -0.03,0.057 -0.04,0.057 -0.01,0 -0.01,0.008 -0.007,0.021 0.02,0.029 -0.09,0.192 -0.134,0.173 -0.01,-0.007 -0.02,-0.003 -0.007,0.011 0.02,0.031 -0.135,0.182 -0.26,0.26 -0.21,0.134 -0.403,0.2 -0.604,0.191 z M 34.53,13.966 a 41.642,41.642 0 0 0 3.975,-0.182 c 0.298,-0.03 0.346,-0.048 0.423,-0.183 0.105,-0.153 0.04,-0.393 -0.125,-0.49 -0.076,-0.05 -0.173,-0.05 -0.777,0.007 a 45.353,45.353 0 0 1 -5.26,0.134 c -0.92,-0.043 -1.365,-0.07 -1.433,-0.084 -0.041,-0.01 -0.07,-0.01 -0.077,0 a 0.663,0.663 0 0 0 0.02,0.172 c 0.02,0.084 0.04,0.24 0.04,0.355 l 0.01,0.202 h 0.077 c 0.05,10e-4 0.336,0.014 0.643,0.031 0.788,0.044 1.622,0.063 2.455,0.063 z m -14.03,-0.084 0.221,-0.014 0.01,-0.202 c 0.008,-0.115 0.031,-0.269 0.04,-0.355 0.021,-0.084 0.032,-0.173 0.032,-0.173 a 33.368,33.368 0 0 1 -1.409,0.077 c -0.681,0.026 -2.236,0.033 -3.128,0.014 -0.672,-0.011 -1.26,-0.062 -1.867,-0.115 -0.24,-0.02 -0.499,-0.039 -0.566,-0.048 h -10e-4 c -0.25,-0.033 -0.384,-0.026 -0.47,0.027 -0.125,0.076 -0.164,0.153 -0.183,0.288 -0.004,0.105 -0.002,0.163 0.04,0.22 0.077,0.135 0.212,0.125 0.327,0.135 0.23,0.03 1.092,0.105 1.257,0.105 l 0.95,0.058 v -0.003 c 0.172,0.016 0.422,0.023 0.902,0.033 a 51.315,51.315 0 0 0 3.806,-0.084 z m 5.535,-1.39 c 0.008,0 0.04,-0.042 0.07,-0.105 0.134,-0.211 0.163,-0.26 0.172,-0.26 0.01,0.004 0.02,-0.002 0.01,-0.012 -0.006,-0.011 0.008,-0.043 0.032,-0.076 0.06,-0.077 0.09,-0.125 0.069,-0.072 -0.01,0.02 -0.009,0.024 0.007,0.014 0.01,-0.008 0.02,-0.024 0.01,-0.034 -0.01,-0.019 0.327,-0.365 0.365,-0.365 0.009,0 0.04,-0.023 0.077,-0.05 0.076,-0.07 0.336,-0.22 0.508,-0.297 0.327,-0.154 0.788,-0.26 1.194,-0.279 0.182,-0.01 0.259,-0.005 0.585,0.038 0.05,0.008 0.09,0.004 0.106,-0.009 0.007,-0.012 0.002,-0.023 -0.01,-0.023 -0.01,0 -0.02,-0.014 -0.01,-0.033 0.007,-0.017 0.004,-0.027 -0.005,-0.023 -0.01,0.005 -0.04,-0.024 -0.06,-0.063 -0.07,-0.105 -0.173,-0.201 -0.211,-0.297 0.007,-0.012 0.003,-0.015 -0.01,-0.008 C 28.8,10.476 28.685,10.356 28.57,10.279 28.052,9.934 27.385,9.713 26.614,9.636 h 10e-4 C 26.575,9.632 26.308,9.631 26.03,9.634 25.492,9.605 25.127,9.759 24.66,9.807 24.65,9.8 24.65,9.803 24.654,9.812 c -0.316,0.134 -0.662,0.269 -0.973,0.46 -0.125,0.073 -0.26,0.183 -0.384,0.318 -0.076,0.084 -0.317,0.374 -0.307,0.393 0.005,0.005 0.105,0 0.21,-0.012 0.318,-0.033 0.702,0.008 1.115,0.134 0.125,0.03 0.202,0.063 0.192,0.072 -0.006,0.01 0.004,0.012 0.02,0.005 0.077,-0.031 0.884,0.423 0.845,0.49 -0.006,0.01 -0.003,0.017 0.007,0.014 0.02,-0.008 0.183,0.134 0.298,0.259 0.105,0.125 0.278,0.374 0.355,0.528 0.01,0.026 0.031,0.043 0.04,0.043 z m 5,-0.105 c 0.09,0 0.259,-0.016 0.595,-0.043 2.053,-0.173 3.686,-0.413 4.806,-0.672 0.279,-0.07 0.404,-0.125 0.47,-0.173 a 0.423,0.423 0 0 0 0.116,-0.259 c 0,-0.134 -0.115,-0.269 -0.22,-0.326 -0.06,-0.024 -0.212,-0.014 -0.327,0.017 -1.816,0.432 -3.628,0.624 -5.44,0.777 -0.326,0.027 -0.576,0.05 -0.576,0.06 0,0.007 0.041,0.05 0.077,0.106 0.134,0.144 0.288,0.355 0.288,0.374 0,0.014 0.008,0.021 0.02,0.016 0.02,-0.011 0.031,0.024 0.02,0.062 -0.003,0.011 0.003,0.013 0.01,0.005 0.009,-0.01 0.031,0.004 0.04,0.028 0.01,0.027 0.02,0.043 0.125,0.039 z m -9.98,-0.013 c 0.075,0 0.105,-0.01 0.105,-0.026 0,-0.043 0.22,-0.346 0.374,-0.519 0.05,-0.06 0.106,-0.115 0.106,-0.125 A 0.736,0.736 0 0 0 21.486,11.691 C 21.045,11.674 19.584,11.518 18.6,11.412 a 32.502,32.502 0 0 1 -2.458,-0.403 3.422,3.422 0 0 1 -0.451,-0.134 0.547,0.547 0 0 0 -0.308,0.008 0.638,0.638 0 0 0 -0.192,0.192 c -0.06,0.135 0.01,0.356 0.135,0.423 0.22,0.134 1.502,0.374 2.848,0.557 0.355,0.048 1.517,0.182 1.801,0.21 0.643,0.06 0.95,0.085 1.082,0.085 z"
       style="fill:url(#linearGradient18);fill-opacity:1;stroke:#000000;stroke-width:0.0009;stroke-dasharray:none;stroke-opacity:1"
       id="path2-50" /></g></svg>
