<?xml version="1.0" encoding="UTF-8" standalone="no"?>
<svg
   height="100mm"
   width="100mm"
   version="1.1"
   id="svg3"
   xml:space="preserve"
   xmlns:xlink="http://www.w3.org/1999/xlink"
   xmlns="http://www.w3.org/2000/svg"
   xmlns:svg="http://www.w3.org/2000/svg"><defs
     id="defs3"><linearGradient
       id="linearGradient29"><stop
         style="stop-color:#fad028;stop-opacity:1;"
         offset="0"
         id="stop29" /><stop
         style="stop-color:#856a02;stop-opacity:1;"
         offset="1"
         id="stop30" /></linearGradient><linearGradient
       xlink:href="#linearGradient29"
       id="linearGradient41"
       gradientUnits="userSpaceOnUse"
       x1="1429.8193"
       y1="566.14844"
       x2="1276.9951"
       y2="571.69922"
       gradientTransform="translate(-412.025,802.90359)" /></defs><g
     id="g42"
     transform="translate(-752.26783,-1195.1073)"><path
       style="fill:url(#linearGradient41);fill-opacity:1;stroke:#000000;stroke-width:11.3386;stroke-dasharray:none;stroke-opacity:1"
       d="m 1016.8205,1312.1629 c 11.2084,-15.4466 18.5888,-16.4198 16.3557,-32.994 l -38.0124,-26.6593 0.9414,5.794 c -28.5528,-7.9699 -59.7487,-2.7874 -84.7686,-28.337 8.6907,25.7047 53.2947,53.3277 75.1255,71.0995 -41.9971,-40.5971 -83.5637,-52.1431 -126.2081,-11.3398 -7.3461,7.0289 -21.3254,1.6533 -33.2292,6.446 l 36.382,17.8945 c -36.0289,30.5596 -32.9869,77.7391 -41.9122,124.3741 11.1154,-9.0478 23.3233,-8.0826 32.2203,-29.3686 17.4385,-41.7216 30.4505,-80.6021 74.4421,-92.6727 -58.3811,32.4419 -64.4304,79.3421 -58.5534,127.7042 15.0687,20.1218 8.9968,43.1085 8.4965,65.031 l 20.8687,-26.3954 c 8.7398,-41.4202 15.3308,-81.4992 32.9495,-103.5833 l 5.7992,5.5969 c -6.2936,-18.4089 -36.9795,54.918 -22.2885,71.1155 24.2203,26.704 23.8145,45.7421 22.3999,76.5574 62.8605,-33.8904 36.7497,-90.9498 2.5294,-150.1209 l 16.6324,30.3241 c 22.572,24.0456 24.7592,26.416 32.7755,78.4398 27.5516,-26.9147 21.2256,-47.4656 5.172,-82.09 l 24.1702,24.201 c 9.2427,-5.7556 14.9447,-13.4166 19.7324,-21.5696 l -32.6528,-12.7915 36.665,6.0214 c 6.2194,-7.4287 2.7209,-8.0302 9.8489,-17.1452 1.8445,-1.6695 9.1598,-8.6388 10.1544,-11.3027 l -39.7927,-37.2882 c 1.7721,-14.8425 0.6804,-14.8306 -6.2431,-26.9412 z"
       id="path92-9" /><path
       style="fill:#000000;fill-opacity:1;stroke:#000000;stroke-width:11.3386"
       d="m 1008.192,1338.2517 c -1.7835,-0.1978 -6.3485,0.3362 -9.9792,-1.7619 -2.1915,-1.2664 -5.7657,-5.777 -6.1833,-7.3533 9.2027,-0.3204 11.5155,-0.5387 16.1625,9.1152 z"
       id="path26-1" /><path
       style="fill:none;fill-opacity:1;stroke:#000000;stroke-width:11.3386"
       d="m 1428.7334,503.29914 -24.2391,-21.18835 6.2024,17.36348 -46.9377,-6.09051 4.9446,5.20473 c -14.1403,-12.83666 -26.6882,-26.86679 -51.5536,-21.4668 -1.7768,9.95904 0.1504,19.07265 4.4133,27.65312 -8.5537,2.78449 -12.4281,9.43504 -18.1716,9.97631 4.378,-4.63469 47.4589,-3.14349 60.213,7.20378 -16.447,15.05497 -35.6564,30.39443 -41.7215,46.76985 l 27.6121,-21.50977 c -1.7526,8.52261 -1.9099,18.68473 2.303,25.82947 0,0 11.7576,-15.01315 11.59,-17.62283 -2.3066,1.41113 -7.7037,16.90053 -7.7037,16.90053 20.4055,8.27603 44.4413,23.54393 50.8501,33.06989 l 2.9619,-17.29602 -11.81,4.02512 c -7.2308,-9.45924 -10.614,-8.56125 -20.2441,-9.74706"
       id="path28-2"
       transform="translate(-412.025,802.90359)" /><path
       style="fill:none;stroke:#000000;stroke-width:11.3386"
       d="m 951.9683,1300.1011 -36.194,6.9583 c 1.5299,-3.2973 1.1082,-15.222 4.9561,-10.1355 9.2484,9.2478 5.1689,6.0907 6.8054,7.4909"
       id="path18-7" /></g></svg>
