<?xml version="1.0" encoding="UTF-8" standalone="no"?>
<svg
   height="100mm"
   width="100mm"
   version="1.1"
   id="svg3"
   xml:space="preserve"
   xmlns:xlink="http://www.w3.org/1999/xlink"
   xmlns="http://www.w3.org/2000/svg"
   xmlns:svg="http://www.w3.org/2000/svg"><defs
     id="defs3"><linearGradient
       id="linearGradient59"><stop
         style="stop-color:#fad028;stop-opacity:0.97254902;"
         offset="0"
         id="stop59" /><stop
         style="stop-color:#856a02;stop-opacity:1;"
         offset="1"
         id="stop64" /></linearGradient><linearGradient
       xlink:href="#linearGradient59"
       id="linearGradient64"
       x1="1644.6461"
       y1="188.87131"
       x2="1846.1504"
       y2="188.87131"
       gradientUnits="userSpaceOnUse" /></defs><g
     id="g72"
     transform="translate(-1551.8111)"><path
       style="fill:url(#linearGradient64);fill-opacity:0.972549;stroke:#000000;stroke-width:11.3386;stroke-dasharray:none;stroke-opacity:1"
       d="m 1739.0987,340.10321 c -9.4228,-0.10654 -18.6774,-1.58839 -25.8684,-5.06978 -4.3004,-4.15129 -6.8728,-7.43501 -8.6508,-10.31995 -21.512,-10.76712 -23.9332,-13.56309 -30.0584,-36.76933 2.3346,-5.5747 7.1031,-11.13157 12.8528,-16.68124 -5.9926,-26.33503 -12.2631,-52.61945 -29.4689,-76.91124 l 4.4933,-8.19666 c -11.9471,4.28291 -26.1072,12.57531 -35.7205,12.63003 -8.6378,-7.28415 -15.4313,-14.37881 -27.6387,-22.02972 11.8806,-4.96851 26.0083,-7.97234 39.4478,-11.57782 -73.6208,-67.076973 -11.7644,-109.637577 65.8219,-127.691842 -77.56,42.317514 -80.8366,90.337102 -18.7326,97.583702 7.9173,-14.22682 35.2405,-10.65807 53.5225,-10.42402 18.282,-0.23405 45.6052,-3.8028 53.5225,10.42402 62.104,-7.2466 58.8274,-55.266188 -18.7326,-97.583702 77.5863,18.054265 139.4427,60.614869 65.8219,127.691842 13.4395,3.60548 27.5672,6.60931 39.4478,11.57782 -12.2074,7.65091 -19.0009,14.74557 -27.6387,22.02972 -9.6133,-0.0547 -23.7734,-8.34712 -35.7205,-12.63003 l 4.4933,8.19666 c -17.2058,24.29179 -23.4763,50.57621 -29.4689,76.91124 5.7497,5.54967 10.5182,11.10654 12.8528,16.68124 -6.1252,23.20624 -8.5464,26.00221 -30.0584,36.76933 -1.778,2.88494 -4.3504,6.16866 -8.6508,10.31995 -7.191,3.48139 -16.4456,4.96324 -25.8684,5.06978 z"
       id="path58"
       transform="translate(0.59436985,-4.3215443)" /><path
       style="fill:none;fill-opacity:0.972549;stroke:#000000;stroke-width:11.3386;stroke-dasharray:none;stroke-opacity:1"
       d="m 1726.2108,220.89787 -7.4464,34.32746 -33.3432,13.86888 c 13.7256,-14.51054 48.889,-16.98765 54.5136,-16.98765 m 13.206,-31.20869 7.4464,34.32746 33.3432,13.86888 c -13.7256,-14.51054 -48.889,-16.98765 -54.5136,-16.98765"
       id="path65" /><path
       style="fill:none;fill-opacity:0.972549;stroke:#000000;stroke-width:11.3386;stroke-dasharray:none;stroke-opacity:1"
       d="m 1687.7307,189.81591 c 7.611,16.00525 7.5109,10.11465 23.6826,15.01852 l -2.8126,-7.77381 c -3.2298,-5.03392 -9.5751,-3.37986 -20.87,-7.24471 z m 103.0898,0 c -7.611,16.00525 -7.5109,10.11465 -23.6826,15.01852 l 2.8126,-7.77381 c 3.2298,-5.03392 9.5751,-3.37986 20.87,-7.24471 z"
       id="path66" /><path
       d="m 1716.5211,278.30873 v 0.0235 c -3.287,7.77121 -8.1235,18.07805 0.4695,25.54406 5.4069,3.70475 6.4076,-3.38739 6.1977,-7.23115 -6.656,-4.62517 -6.1982,-12.24378 -6.5386,-18.33632 z m 48.4342,0 v 0.0235 c 3.287,7.77121 8.1235,18.07805 -0.4695,25.54406 -5.4069,3.70475 -6.4076,-3.38739 -6.1977,-7.23115 6.656,-4.62517 6.1982,-12.24378 6.5386,-18.33632 z"
       style="fill:#000000;fill-opacity:0.972549;stroke:#000000;stroke-width:0.000920424;stroke-dasharray:none;stroke-opacity:1"
       id="path1" /></g></svg>
