<?xml version="1.0" encoding="UTF-8" standalone="no"?>
<svg
   height="100mm"
   width="100mm"
   version="1.1"
   id="svg3"
   xml:space="preserve"
   xmlns:xlink="http://www.w3.org/1999/xlink"
   xmlns="http://www.w3.org/2000/svg"
   xmlns:svg="http://www.w3.org/2000/svg"><defs
     id="defs3"><linearGradient
       id="linearGradient76"><stop
         style="stop-color:#fad028;stop-opacity:1;"
         offset="0"
         id="stop76" /><stop
         style="stop-color:#856a02;stop-opacity:1;"
         offset="1"
         id="stop77" /></linearGradient><linearGradient
       xlink:href="#linearGradient76"
       id="linearGradient77"
       x1="13.878"
       y1="24.318825"
       x2="38.279018"
       y2="24.318825"
       gradientUnits="userSpaceOnUse" /><linearGradient
       xlink:href="#linearGradient76"
       id="linearGradient16"
       gradientUnits="userSpaceOnUse"
       x1="13.878"
       y1="24.318825"
       x2="38.279018"
       y2="24.318825" /></defs><g
     id="g48"
     transform="matrix(11.478565,0,0,-11.478565,-110.36745,468.12158)"
     style="fill:url(#linearGradient77);stroke:#000000;stroke-width:0.0009;stroke-dasharray:none;stroke-opacity:1"><path
       d="m 22.715,37.504 h 0.002 c 0.031,-0.011 -0.278,-0.24 -0.7,-0.528 -2.246,-1.459 -3.831,-2.935 -4.342,-4.047 -0.72,-1.588 0.269,-2.75 3.133,-3.66 l 0.528,-0.172 0.307,0.336 0.307,0.336 1.046,0.07 c 1.353,0.09 4.94,0.09 6.285,-0.002 l 1.046,-0.069 0.307,-0.345 0.307,-0.346 0.73,0.23 c 2.775,0.903 3.703,2.132 2.85,3.756 -0.606,1.146 -2.048,2.476 -4.252,3.91 -0.374,0.24 -0.681,0.471 -0.662,0.49 0.02,0.017 0.49,-0.115 1.06,-0.268 4.567,-1.323 7.091,-3.124 7.44,-5.312 0.164,-0.96 -0.21,-2.169 -0.996,-3.28 -0.182,-0.259 -0.7,-0.863 -1.157,-1.314 l -0.825,-0.844 0.633,-0.173 c 0.759,-0.192 2.418,-0.72 2.501,-0.797 0.173,-0.154 -1.09,-1.724 -2.118,-2.083 -0.652,-0.221 -1.6,0.624 -2.468,0.883 l -0.624,0.182 0.07,-0.182 c 0.04,-0.106 0.105,-0.24 0.144,-0.317 0.06,-0.115 0,-0.23 -0.317,-0.662 -1.133,-1.577 -1.997,-4.112 -1.997,-5.854 V 16.76 l 0.394,-0.47 0.393,-0.47 -0.316,-0.922 c -0.183,-0.51 -0.384,-1.111 -0.47,-1.335 -0.174,-0.45 -0.07,-0.374 -1.231,-0.806 -0.47,-0.182 -0.567,-0.26 -0.884,-0.845 -0.163,-0.278 -0.566,-0.48 -1.422,-0.662 v 0.002 c -1.123,-0.23 -2.713,-0.125 -3.697,0.317 -0.27,0.125 -0.365,0.211 -0.51,0.5 -0.22,0.47 -0.287,0.527 -1.007,0.777 -0.336,0.134 -0.663,0.23 -0.73,0.269 -0.134,0.048 -0.317,0.518 -0.787,1.906 l -0.278,0.826 0.384,0.422 c 0.46,0.5 0.518,0.672 0.441,1.572 -0.134,1.755 -0.95,4.05 -1.945,5.435 l -0.393,0.547 0.144,0.308 c 0.076,0.182 0.144,0.316 0.144,0.326 0,0.008 -0.279,-0.06 -0.634,-0.173 -0.883,-0.24 -1.829,-1.109 -2.474,-0.883 -0.653,0.23 -1.65,1.602 -1.947,1.85 l -0.25,0.212 0.423,0.183 c 0.518,0.192 2.597,0.796 2.746,0.796 0.06,0 -0.212,0.317 -0.615,0.701 -2.35,2.327 -2.89,4.45 -1.6,6.291 1.048,1.49 3.31,2.738 6.843,3.77 0.528,0.164 1,0.27 1.045,0.27 z m 8.846,-12.843 -1.408,-0.72 c -1.325,-0.035 -1.543,-0.806 -1.989,-1.424 1.363,-0.183 1.81,0.144 2.366,0.403 0.778,0.403 0.75,1.124 1.033,1.74 z m -11,0 c 0.289,-0.624 0.25,-1.335 1.034,-1.74 0.556,-0.268 1.003,-0.585 2.366,-0.402 -0.442,0.624 -0.662,1.384 -1.99,1.424 z m 7.106,-3.414 -0.384,0.374 c -0.002,-0.95 0.22,-1.887 0.556,-2.793 -0.49,0.212 -0.99,0.356 -1.73,0.365 h -0.077 a 4.62,4.62 0 0 1 -1.73,-0.365 c 0.335,0.903 0.556,1.845 0.556,2.791 l -0.384,-0.374 c 0.002,-1.023 -0.317,-1.673 -0.71,-2.672 -0.576,-0.307 -0.807,-0.71 -1.795,-1.238 l -0.22,-0.317 c 1.058,0.557 1.69,0.988 2.257,1.283 l 0.134,0.063 c 0.566,0.278 1.125,0.422 1.991,0.45 0.806,-0.033 1.358,-0.181 1.912,-0.45 l 0.135,-0.063 c 0.566,-0.297 1.2,-0.73 2.256,-1.284 l -0.211,0.317 c -0.993,0.528 -1.215,0.93 -1.798,1.238 -0.404,1.001 -0.72,1.65 -0.71,2.674 z m 0.47,-4.683 v -0.002 c -0.04,-0.528 0.01,-1.16 -0.557,-1.562 -0.005,-0.192 -0.031,-0.364 0.06,-0.585 a 0.556,0.556 0 0 1 0.07,-0.048 l 0.007,-0.005 0.007,-0.005 0.009,-0.006 0.009,-0.005 a 0.108,0.108 0 0 0 0.01,-0.007 l 0.01,-0.006 c 0.006,-0.003 0.01,-0.007 0.02,-0.01 0.076,-0.035 0.182,-0.038 0.326,0.06 0.73,0.634 0.317,1.51 0.041,2.177 z m -4.151,0 v -0.002 c -0.28,-0.662 -0.692,-1.54 0.04,-2.176 0.144,-0.115 0.23,-0.106 0.326,-0.06 0.005,0.003 0.01,0.006 0.02,0.008 0.004,0.002 0.01,0.005 0.01,0.007 a 0.073,0.073 0 0 1 0.01,0.006 0.103,0.103 0 0 0 0.01,0.006 l 0.008,0.006 0.007,0.005 0.007,0.005 c 0.02,0.016 0.041,0.03 0.07,0.047 0.09,0.212 0.07,0.394 0.06,0.586 -0.567,0.394 -0.528,1.043 -0.557,1.562 z"
       style="fill:url(#linearGradient16);fill-opacity:1;stroke:#000000;stroke-width:0.0009;stroke-dasharray:none;stroke-opacity:1"
       id="path2-97" /></g></svg>
