<?xml version="1.0" encoding="UTF-8" standalone="no"?>
<svg
   height="100mm"
   width="100mm"
   version="1.1"
   id="svg3"
   xml:space="preserve"
   xmlns:xlink="http://www.w3.org/1999/xlink"
   xmlns="http://www.w3.org/2000/svg"
   xmlns:svg="http://www.w3.org/2000/svg"><defs
     id="defs3"><linearGradient
       id="linearGradient56"><stop
         style="stop-color:#fad028;stop-opacity:1;"
         offset="0"
         id="stop56" /><stop
         style="stop-color:#856a02;stop-opacity:1;"
         offset="1"
         id="stop65" /></linearGradient><linearGradient
       xlink:href="#linearGradient56"
       id="linearGradient65"
       x1="1760.0109"
       y1="510.14166"
       x2="1685.1819"
       y2="617.35254"
       gradientUnits="userSpaceOnUse"
       gradientTransform="translate(-1554.4057,-391.97311)" /></defs><path
     style="fill:url(#linearGradient65);fill-opacity:1;stroke:#000000;stroke-width:11.3386;stroke-opacity:1"
     d="m 336.35646,86.975716 c -23.715,-16.41998 -58.8782,-11.46481 -87.3705,-13.01794 -64.50781,-52.14037 -127.17471,-33.39073 -170.456918,24.21288 -4.505,5.995604 -7.2488,-11.18488 -9.7393,-17.23711 -5.568,14.11099 2.4734,29.521804 14.9253,22.642624 16.914108,-9.344414 39.140908,-35.775084 46.354508,-37.103784 -18.075,27.49819 -31.035304,73.441304 -54.790008,79.828104 -12.8975,3.4677 -17.5148,-11.33549 -23.1759,-27.34061 -8.7774,20.13999 -17.4347,41.07186 22.6882,53.34789 16.5095,5.05126 32.649108,-33.75423 49.619908,-57.88924 -2.567,16.20385 -0.8793,31.464 1.8055,45.50382 l 5.4152,11.1977 c -11.6608,38.24088 -17.2371,80.32101 -42.605908,109.91229 18.606508,0.7111 30.342908,-20.66972 44.332308,-34.80567 3.4644,21.55635 -6.7141,41.93083 -14.7222,62.49332 19.4623,-10.54091 25.2717,-34.23591 34.4604,-54.6751 7.9054,25.14035 4.581,47.57422 0.2237,69.75913 10.5244,-9.99357 23.8711,-16.09928 15.5232,-69.16803 20.1664,19.15442 17.2482,51.57775 21.9328,79.631 8.8595,-22.8376 10.7355,-49.37441 1.8741,-81.59902 13.9337,20.58425 20.7135,53.04027 27.5398,85.41905 15.95511,-39.97641 -21.0964,-149.59061 -17.1266,-180.89504 23.14581,-1.50942 45.87101,-5.70547 64.02491,-39.10632 20.2027,-8.63766 14.2077,-6.61724 62.2506,-21.131744 -9.2134,-3.23059 -22.6768,0.64846 -36.0003,-3.22717 15.9564,-4.00231 25.9156,-5.27827 43.0172,-6.75103 z"
     id="path36" /><path
     d="m 209.27385,109.58194 h 0.5608 c 3.2299,0 6.5721,-0.38132 8.7253,-1.40189 6.56101,-3.02812 14.60241,-16.060204 14.60241,-16.060204 0,0 -16.08271,-3.01689 -22.87921,0.48225 -5.9103,3.02811 -12.1572,16.060194 -12.1572,16.060194 0,0 5.4954,0.89722 11.1142,0.89722 z"
     style="fill:#000000;fill-opacity:0.992157;stroke:#000000;stroke-width:0.000940561;stroke-linecap:butt;stroke-linejoin:miter;stroke-dasharray:none;stroke-opacity:1"
     id="path1-0" /><path
     style="fill:none;fill-opacity:0.992157;stroke:#000000;stroke-width:11.3386;stroke-opacity:1"
     d="m 123.00205,118.85502 c 11.6663,-39.119084 30.8994,-73.463064 102.24321,-60.890144"
     id="path48" /><path
     style="fill:none;fill-opacity:0.992157;stroke:#000000;stroke-width:11.3386;stroke-opacity:1"
     d="m 241.59776,69.928736 c -83.48871,7.74878 -69.74201,70.124884 -112.58011,93.785654"
     id="path50" /><path
     style="fill:none;fill-opacity:0.992157;stroke:#000000;stroke-width:11.3386;stroke-opacity:1"
     d="m 259.03066,75.502956 -7.8308,24.417 15.3462,15.321774"
     id="path56" /></svg>
