<?xml version="1.0" encoding="UTF-8" standalone="no"?>
<svg
   height="100mm"
   width="100mm"
   version="1.1"
   id="svg3"
   xml:space="preserve"
   xmlns:xlink="http://www.w3.org/1999/xlink"
   xmlns="http://www.w3.org/2000/svg"
   xmlns:svg="http://www.w3.org/2000/svg"><defs
     id="defs3"><linearGradient
       id="linearGradient39"><stop
         style="stop-color:#fad028;stop-opacity:1;"
         offset="0"
         id="stop39" /><stop
         style="stop-color:#856a02;stop-opacity:1;"
         offset="1"
         id="stop40" /></linearGradient><linearGradient
       xlink:href="#linearGradient39"
       id="linearGradient53"
       gradientUnits="userSpaceOnUse"
       x1="104.73631"
       y1="970.30609"
       x2="258.79907"
       y2="970.30609"
       gradientTransform="translate(-13.967494,-759.45839)" /></defs><path
     style="fill:url(#linearGradient53);stroke:#000000;stroke-width:11.3386;stroke-dasharray:none;stroke-opacity:1"
     d="m 66.335906,160.80702 c 83.328004,0 90.506304,-0.9835 104.627304,-0.9835 3.2089,-2.58145 -0.8993,-36.66388 1.8037,-38.6059 l 38.8227,-34.770866 c -34.8056,0 -63.7912,0.19267 -98.5322,0.19267 0,-20.49259 0.1853,-36.47165 -0.035,-43.07592 l 177.37794,-0.39431 c 22.3177,8.77575 -65.8335,68.029196 -72.31094,86.534426 0,14.37171 -0.3602,10.78562 -0.3602,29.37853 l 92.56964,-0.39101 11.5677,42.56521 -108.50984,0.11876 2.3021,124.438 c -53.2917,27.8714 -67.2109,-3.40915 -84.928,-29.0584 l 42.2312,0.47237 -2.3637,-96.10116 -114.473804,-0.92498 z"
     id="path37-3" /></svg>
