<?xml version="1.0" encoding="UTF-8" standalone="no"?>
<svg
   height="100mm"
   width="100mm"
   version="1.1"
   id="svg3"
   xml:space="preserve"
   xmlns:xlink="http://www.w3.org/1999/xlink"
   xmlns="http://www.w3.org/2000/svg"
   xmlns:svg="http://www.w3.org/2000/svg"><defs
     id="defs3"><linearGradient
       id="linearGradient92"><stop
         style="stop-color:#fad028;stop-opacity:1;"
         offset="0"
         id="stop92" /><stop
         style="stop-color:#856a02;stop-opacity:1;"
         offset="1"
         id="stop93" /></linearGradient><linearGradient
       xlink:href="#linearGradient92"
       id="linearGradient28"
       gradientUnits="userSpaceOnUse"
       x1="3.8534112"
       y1="14.166723"
       x2="24.368071"
       y2="14.166723"
       gradientTransform="matrix(12.120491,0,0,12.120491,18.486655,17.102383)" /></defs><path
     id="path4-7"
     style="font-variation-settings:'wdth' 80, 'wght' 749;fill:url(#linearGradient28);fill-opacity:1;stroke:#000000;stroke-width:11.3386;stroke-dasharray:none;stroke-opacity:1"
     d="m 188.97646,335.0685 h -88.8635 v -44.32559 h 88.8635 88.8634 v 44.32559 z m 0,-44.32029 -89.410105,0.2935 -28.7154,-21.1121 c -4.8447,-1.5075 21.5863,9.8934 43.433705,-9.8851 h 74.6918 74.6917 c 21.8474,19.7785 48.2783,8.3776 43.4337,9.8851 l -28.7154,21.1121 z m 0,-30.7037 h -57.2949 v -32.2024 h 57.2949 57.2948 v 32.2024 z m 0,-32.2024 h -75.8275 c -9.1833,-7.0711 -18.767105,-13.10054 -27.950405,-20.17164 -4.6434,-3.68289 16.648205,10.72204 44.156705,-10.17349 h 59.6212 59.621 c 27.5085,20.89553 48.8002,6.4906 44.1568,10.17349 -9.1834,7.0711 -18.7671,13.10054 -27.9504,20.17164 z m 0,-30.35553 -38.5134,-0.3496 -0.1921,-31.1059 38.7055,-0.3672 38.7054,0.3672 -0.1921,31.1059 z m 0,-31.8297 -57.1939,-0.07 -28.74,-21.2742 c -3.448605,-2.5644 22.1499,9.785 44.438,-8.8412 l 41.4959,-0.8467 41.4958,0.8467 c 22.2881,18.6262 47.8866,6.2768 44.438,8.8412 l -28.7401,21.2742 z m 0,-31.0554 h -24.1539 v -26.7553 h 24.1539 24.1538 v 26.7553 z m 0.3475,-94.530197 c 0,-4.7594 0.094,15.6115 0.094,23.5341 l 30.9271,24.4045 c 19.486,8.4588 35.1885,0.1266 32.7868,2.2439 l -22.7145,18.029397 -41.4414,-0.4253 -41.4416,0.4253 -22.7144,-18.029397 c -2.4018,-2.1173 13.3008,6.2149 32.7867,-2.2439 l 30.9272,-24.4045 c 0,-7.9226 0.095,-28.2935 0.095,-23.5341" /><rect
     style="fill:#ea5858;fill-opacity:0.992157;stroke:none;stroke-width:13.0391"
     id="rect28"
     width="37.012207"
     height="15.377441"
     x="170.47668"
     y="113.53455" /></svg>
