<?xml version="1.0" encoding="UTF-8" standalone="no"?>
<svg
   height="100mm"
   width="100mm"
   version="1.1"
   id="svg3"
   xml:space="preserve"
   xmlns:xlink="http://www.w3.org/1999/xlink"
   xmlns="http://www.w3.org/2000/svg"
   xmlns:svg="http://www.w3.org/2000/svg"><defs
     id="defs3"><linearGradient
       id="linearGradient70"><stop
         style="stop-color:#fad028;stop-opacity:1;"
         offset="0"
         id="stop70" /><stop
         style="stop-color:#856a02;stop-opacity:1;"
         offset="1"
         id="stop71" /></linearGradient><linearGradient
       xlink:href="#linearGradient70"
       id="linearGradient71"
       x1="13.408994"
       y1="23.697943"
       x2="38.748692"
       y2="23.697943"
       gradientUnits="userSpaceOnUse" /><linearGradient
       xlink:href="#linearGradient70"
       id="linearGradient12"
       gradientUnits="userSpaceOnUse"
       x1="13.408994"
       y1="23.697943"
       x2="38.748692"
       y2="23.697943" /></defs><g
     id="g47"
     transform="matrix(10.979123,0,0,-10.979123,-97.346509,449.159)"
     style="fill:url(#linearGradient71);stroke:#000000;stroke-width:0.0009;stroke-dasharray:none;stroke-opacity:1"><path
       d="m 19.573,11.013 c 0.376,1.008 1.023,2.71 1.046,2.75 0.022,0.037 2.834,0.475 3.05,0.475 0.072,0 0.322,-0.07 0.552,-0.148 0.677,-0.24 0.83,-0.253 1.909,-0.253 1.074,0 1.3,0.033 1.933,0.276 0.175,0.069 0.387,0.124 0.475,0.124 0.178,0 2.592,-0.363 2.962,-0.446 l 0.11,-0.025 0.729,-1.932 c 0.4,-1.062 0.738,-1.932 0.749,-1.932 0.034,0 0.072,0.672 0.065,1.233 -0.012,1.517 -0.42,3.356 -0.903,4.065 -0.233,0.34 -0.638,0.618 -1.211,0.827 a 1.41,1.41 0 0 0 -0.275,0.12 c -0.029,0.035 0.281,0.486 0.316,0.464 0.013,-0.011 0.438,-0.083 0.944,-0.156 0.505,-0.073 0.936,-0.148 0.958,-0.152 0.078,-0.031 0.312,-0.592 0.938,-2.25 0.151,-0.397 0.333,-0.868 0.406,-1.042 0.124,-0.295 0.134,-0.309 0.154,-0.217 0.035,0.166 0.032,1.06 -0.003,1.701 a 8.855,8.855 0 0 1 -0.5,2.506 c -0.308,0.854 -0.718,1.185 -1.873,1.51 -0.267,0.072 -0.336,0.106 -0.332,0.165 l 0.007,0.217 c 0.009,0.216 0.097,0.304 0.374,0.391 0.71,0.217 1.68,0.744 2.198,1.204 0.468,0.42 0.864,0.99 1.05,1.518 0.105,0.299 0.24,1.032 0.376,2.062 0.233,1.749 0.284,2.094 0.315,2.148 0.02,0.03 0.072,0.069 0.12,0.083 0.148,0.045 0.77,0.485 1.05,0.736 0.31,0.276 0.844,0.97 1.053,1.37 0.371,0.711 0.514,1.668 0.39,2.62 -0.157,1.226 -0.706,2.58 -1.631,4.038 -0.54,0.852 -1.83,2.506 -1.89,2.425 -0.008,-0.01 0.001,-1.145 0.022,-2.52 0.02,-1.376 0.032,-3.057 0.026,-3.735 L 35.222,30 34.67,31.041 c -0.305,0.573 -0.71,1.339 -0.9,1.7 -0.553,1.045 -0.848,1.574 -0.878,1.574 -0.048,0 -0.552,-0.705 -0.738,-1.03 a 5.184,5.184 0 0 1 -0.491,-1.266 c -0.292,-1.235 -0.097,-2.764 0.51,-3.975 0.316,-0.633 0.921,-1.306 1.419,-1.584 0.288,-0.166 0.698,-0.309 0.857,-0.309 0.264,0 0.26,0.019 0.106,-1.214 -0.154,-1.241 -0.264,-1.921 -0.35,-2.145 -0.24,-0.64 -0.933,-1.219 -1.957,-1.634 -0.56,-0.225 -0.506,-0.258 -0.77,0.451 -0.279,0.743 -0.417,0.997 -0.882,1.596 -0.63,0.813 -1.13,1.248 -1.894,1.648 -0.172,0.094 -0.309,0.176 -0.309,0.198 0,0.08 1.11,3.012 1.14,3.012 0.016,0 0.11,0.039 0.205,0.093 0.22,0.114 0.527,0.48 0.644,0.78 0.075,0.193 0.086,0.258 0.086,0.641 0,0.391 -0.008,0.451 -0.1,0.702 -0.16,0.45 -0.368,0.68 -0.755,0.83 -0.834,0.327 -1.662,-0.862 -1.38,-1.978 l 0.07,-0.277 -0.63,-1.69 -0.628,-1.69 h -1.872 l -0.636,1.662 -0.636,1.662 0.061,0.258 c 0.086,0.354 0.083,0.788 -0.006,1.101 -0.14,0.503 -0.554,0.933 -0.952,0.993 -0.36,0.055 -0.802,-0.193 -1.035,-0.572 -0.179,-0.294 -0.244,-0.589 -0.223,-1.065 0.024,-0.7 0.277,-1.133 0.817,-1.404 l 0.175,-0.083 0.554,-1.487 c 0.305,-0.817 0.547,-1.494 0.538,-1.503 A 3.056,3.056 0 0 0 23.515,24.86 6.467,6.467 0 0 1 21.727,23.407 c -0.443,-0.52 -0.88,-1.34 -1.095,-2.058 -0.059,-0.193 -0.124,-0.354 -0.148,-0.368 -0.062,-0.032 -0.758,0.243 -1.153,0.45 -0.824,0.443 -1.288,0.95 -1.42,1.567 -0.152,0.699 -0.446,2.946 -0.406,3.086 0.014,0.05 0.062,0.069 0.175,0.069 0.322,0 1.027,0.327 1.386,0.639 0.216,0.193 0.799,0.968 0.961,1.287 0.233,0.456 0.455,1.197 0.558,1.86 0.192,1.246 -0.028,2.438 -0.644,3.483 -0.192,0.326 -0.614,0.896 -0.663,0.896 -0.033,0 -0.429,-0.726 -1.415,-2.604 -0.487,-0.927 -0.899,-1.674 -0.916,-1.66 -0.03,0.027 -0.02,1.956 0.031,5.854 l 0.02,1.61 -0.07,-0.05 c -0.254,-0.18 -1.552,-1.917 -2.021,-2.702 -0.979,-1.637 -1.5,-3.181 -1.498,-4.439 a 4.762,4.762 0 0 1 0.52,-2.064 c 0.195,-0.368 0.652,-0.942 0.975,-1.227 0.309,-0.271 1.016,-0.753 1.108,-0.753 0.033,0 0.071,-0.042 0.09,-0.1 0.016,-0.055 0.11,-0.712 0.205,-1.457 0.281,-2.162 0.362,-2.547 0.651,-3.118 0.49,-0.968 1.5,-1.749 2.944,-2.275 0.226,-0.083 0.419,-0.176 0.453,-0.226 0.079,-0.1 0.11,-0.4 0.052,-0.463 -0.023,-0.026 -0.213,-0.095 -0.423,-0.155 -1.2,-0.355 -1.562,-0.744 -1.926,-2.066 a 9.635,9.635 0 0 1 -0.306,-1.765 c -0.037,-0.58 -0.04,-1.88 -0.003,-1.912 0.038,-0.03 0.137,0.207 0.747,1.805 0.52,1.361 0.647,1.666 0.72,1.729 0.022,0.02 0.468,0.106 0.991,0.193 l 0.95,0.156 0.165,-0.221 c 0.093,-0.12 0.155,-0.23 0.144,-0.249 a 1.413,1.413 0 0 0 -0.291,-0.124 c -0.343,-0.12 -0.79,-0.377 -1.001,-0.572 -0.658,-0.609 -1.208,-3.148 -1.087,-5.016 0.02,-0.304 0.041,-0.56 0.044,-0.569 0.006,-0.009 0.206,0.508 0.443,1.148 z"
       style="fill:url(#linearGradient12);fill-opacity:1;stroke:#000000;stroke-width:0.0009;stroke-dasharray:none;stroke-opacity:1"
       id="path2-0" /></g></svg>
