<?xml version="1.0" encoding="UTF-8" standalone="no"?>
<svg
   height="100mm"
   width="100mm"
   version="1.1"
   id="svg3"
   xml:space="preserve"
   xmlns:xlink="http://www.w3.org/1999/xlink"
   xmlns="http://www.w3.org/2000/svg"
   xmlns:svg="http://www.w3.org/2000/svg"><defs
     id="defs3"><linearGradient
       id="linearGradient100"><stop
         style="stop-color:#fad028;stop-opacity:1;"
         offset="0"
         id="stop100" /><stop
         style="stop-color:#856a02;stop-opacity:1;"
         offset="1"
         id="stop101" /></linearGradient><linearGradient
       xlink:href="#linearGradient100"
       id="linearGradient101"
       x1="2371.2432"
       y1="180.78331"
       x2="2662.7847"
       y2="180.78331"
       gradientUnits="userSpaceOnUse"
       gradientTransform="matrix(1.0755236,0,0,1.0755236,-2518.1316,-44.965276)" /></defs><path
     style="fill:url(#linearGradient101);stroke:#000000;stroke-width:12.1949;stroke-dasharray:none;stroke-opacity:1"
     d="m 188.97639,276.09908 c -14.0833,0.023 -20.9257,-5.93581 -30.8743,-9.32852 -11.8227,1.67687 -32.2978,3.06443 -43.335,9.45539 -5.2428,14.60039 -10.6034,29.97978 -15.945799,45.23989 7.555199,-24.7274 -0.3762,-48.33311 36.670599,-74.43365 l -5.3266,-6.40567 -30.323599,2.85029 c -11.6521,16.0286 -16.3027,33.68385 -19.8237,45.105 4.7367,-21.03428 6.1235,-57.68734 41.527299,-70.94538 0,0 3.1506,-6.44504 1.4793,-6.04988 -26.656499,6.30297 -61.483099,-25.72266 -54.777399,-54.87818 -48.1601,-47.01798 -13.0043,-75.875596 6.9736,-90.594086 0,0 3.3746,67.424476 4.6752,63.412936 1.3008,-4.01153 22.818299,-45.944526 22.818299,-45.944526 35.2641,65.386186 0.4156,62.502516 -13.957199,71.701176 -1.2001,32.17308 13.802199,22.78863 33.355199,37.33326 7.9601,-25.78199 22.1927,-41.00307 39.4024,-51.21158 0,0 0.3249,-15.47632 -1.0364,-16.09794 -15.3909,-7.02831 -18.2353,-29.482656 -3.7795,-34.107176 18.273,-5.84564 19.7656,17.205866 16.9888,24.875936 l 2.3393,20.89277 12.9495,0.47817 12.9495,-0.47817 2.3393,-20.89277 c -2.7768,-7.67007 -1.2842,-30.721576 16.9887,-24.875936 14.4558,4.62452 11.6115,27.078866 -3.7795,34.107176 -1.3613,0.62162 -1.0364,16.09794 -1.0364,16.09794 17.2097,10.20851 31.4423,25.42959 39.4025,51.21158 19.5529,-14.54463 34.5553,-5.16018 33.3551,-37.33326 -14.3728,-9.19866 -49.2212,-6.31499 -13.9572,-71.701176 0,0 21.5176,41.932996 22.8183,45.944526 1.3007,4.01154 4.6752,-63.412936 4.6752,-63.412936 19.978,14.71849 55.1337,43.576106 6.9736,90.594086 6.7058,29.15552 -28.1208,61.18115 -54.7774,54.87818 -1.6712,-0.39516 1.4793,6.04988 1.4793,6.04988 35.4039,13.25804 36.7907,49.9111 41.5274,70.94538 -3.5211,-11.42115 -8.1716,-29.0764 -19.8238,-45.105 l -30.3236,-2.85029 -5.3265,6.40567 c 37.0467,26.10054 29.1154,49.70625 36.6706,74.43365 -5.3425,-15.26011 -10.7031,-30.6395 -15.9458,-45.23989 -11.0373,-6.39096 -31.5123,-7.77852 -43.335,-9.45539 -9.9486,3.39271 -16.7911,9.35157 -30.8743,9.32852 z"
     id="path100" /></svg>
