<?xml version="1.0" encoding="UTF-8" standalone="no"?>
<svg
   height="100mm"
   width="100mm"
   version="1.1"
   id="svg3"
   xml:space="preserve"
   xmlns:xlink="http://www.w3.org/1999/xlink"
   xmlns="http://www.w3.org/2000/svg"
   xmlns:svg="http://www.w3.org/2000/svg"><defs
     id="defs3"><linearGradient
       id="linearGradient100"><stop
         style="stop-color:#fad028;stop-opacity:1;"
         offset="0"
         id="stop100" /><stop
         style="stop-color:#856a02;stop-opacity:1;"
         offset="1"
         id="stop101" /></linearGradient><linearGradient
       xlink:href="#linearGradient100"
       id="linearGradient72"
       gradientUnits="userSpaceOnUse"
       x1="2371.2432"
       y1="180.78331"
       x2="2662.7847"
       y2="180.78331"
       gradientTransform="matrix(1.0755236,0,0,1.0755236,-2518.1315,-23.59107)" /></defs><path
     style="fill:url(#linearGradient72);stroke:#000000;stroke-width:12.1949;stroke-dasharray:none;stroke-opacity:1"
     d="m 188.97617,297.47339 c -14.0832,0.023 -20.9257,-5.9358 -30.8743,-9.3285 -11.8226,1.6768 -32.2977,3.0644 -43.335,9.4553 -5.2427,14.6004 -10.6033,29.9798 -15.945803,45.2399 7.555303,-24.7274 -0.3761,-48.3331 36.670703,-74.4336 l -5.3266,-6.4057 -30.323603,2.8503 c -11.6521,16.0286 -16.3027,33.6839 -19.8237,45.105 4.7367,-21.0343 6.1235,-57.6873 41.527303,-70.9454 0,0 3.1506,-6.445 1.4793,-6.0498 -26.656503,6.3029 -61.483203,-25.72275 -54.777403,-54.87825 -48.1601,-47.018 -13.0044,-75.8756 6.9736,-90.59411 0,0 3.3746,67.42451 4.6752,63.41291 1.3007,-4.0115 22.818303,-45.9445 22.818303,-45.9445 35.2641,65.3862 0.4156,62.5025 -13.957203,71.7012 -1.2002,32.1731 13.802203,22.7886 33.355103,37.33325 7.9602,-25.78205 22.1928,-41.00305 39.4025,-51.21165 0,0 0.3249,-15.4763 -1.0364,-16.0979 -15.3909,-7.0283 -18.2353,-29.4826 -3.7795,-34.1072 18.2729,-5.8456 19.7656,17.2059 16.9888,24.876 l 2.3392,20.8927 12.9495,0.4782 12.9496,-0.4782 2.3392,-20.8927 c -2.7768,-7.6701 -1.2841,-30.7216 16.9889,-24.876 14.4558,4.6246 11.6114,27.0789 -3.7795,34.1072 -1.3613,0.6216 -1.0364,16.0979 -1.0364,16.0979 17.2097,10.2086 31.4423,25.4296 39.4025,51.21165 19.5529,-14.54465 34.5553,-5.16015 33.3551,-37.33325 -14.3728,-9.1987 -49.2213,-6.315 -13.9572,-71.7012 0,0 21.5176,41.933 22.8183,45.9445 1.3006,4.0116 4.6752,-63.41291 4.6752,-63.41291 19.978,14.71851 55.1337,43.57611 6.9736,90.59411 6.7058,29.1555 -28.1209,61.18115 -54.7774,54.87825 -1.6713,-0.3952 1.4793,6.0498 1.4793,6.0498 35.4038,13.2581 36.7906,49.9111 41.5273,70.9454 -3.521,-11.4211 -8.1716,-29.0764 -19.8237,-45.105 l -30.3236,-2.8503 -5.3266,6.4057 c 37.0468,26.1005 29.1154,49.7062 36.6707,74.4336 -5.3425,-15.2601 -10.7031,-30.6395 -15.9459,-45.2399 -11.0372,-6.3909 -31.5123,-7.7785 -43.3349,-9.4553 -9.9487,3.3927 -16.7912,9.3515 -30.8745,9.3285 z"
     id="use24" /><path
     id="path29"
     style="fill:#ea5858;fill-opacity:0.992157;stroke-width:10.2474"
     d="m 173.59577,133.93194 a 11.087134,11.087134 0 0 1 -11.0871,11.0871 11.087134,11.087134 0 0 1 -11.0872,-11.0871 11.087134,11.087134 0 0 1 11.0872,-11.0872 11.087134,11.087134 0 0 1 11.0871,11.0872 z" /><path
     id="path29-3"
     style="fill:#ea5858;fill-opacity:0.992157;stroke-width:10.2474"
     d="m 225.06147,133.89584 a 11.087134,11.087134 0 0 1 -11.0871,11.0872 11.087134,11.087134 0 0 1 -11.0873,-11.0872 11.087134,11.087134 0 0 1 11.0873,-11.0871 11.087134,11.087134 0 0 1 11.0871,11.0871 z" /></svg>
