<?xml version="1.0" encoding="UTF-8" standalone="no"?>
<svg
   height="100mm"
   width="100mm"
   version="1.1"
   id="svg3"
   xml:space="preserve"
   xmlns:xlink="http://www.w3.org/1999/xlink"
   xmlns="http://www.w3.org/2000/svg"
   xmlns:svg="http://www.w3.org/2000/svg"><defs
     id="defs3"><linearGradient
       id="linearGradient98"><stop
         style="stop-color:#fad028;stop-opacity:1;"
         offset="0"
         id="stop98" /><stop
         style="stop-color:#856a02;stop-opacity:1;"
         offset="1"
         id="stop99" /></linearGradient><linearGradient
       xlink:href="#linearGradient98"
       id="linearGradient99"
       x1="2030.9379"
       y1="584.03857"
       x2="2228.4316"
       y2="584.03857"
       gradientUnits="userSpaceOnUse" /><linearGradient
       xlink:href="#linearGradient98"
       id="linearGradient47"
       gradientUnits="userSpaceOnUse"
       x1="2030.9379"
       y1="584.03857"
       x2="2228.4316"
       y2="584.03857" /></defs><g
     id="g98"
     style="fill:url(#linearGradient99)"
     transform="translate(-1942.4649,-393.08521)"><path
       style="fill:url(#linearGradient47);fill-opacity:0.972549;stroke:#000000;stroke-width:11.3386;stroke-dasharray:none;stroke-opacity:1"
       d="m 2036.7493,631.30963 c -2.3781,55.15297 24.5133,77.14913 46.8846,101.18163 41.3945,-14.321 60.8323,-57.25615 63.3502,-97.48687 22.0543,2.36276 36.9937,3.40582 56.8337,3.2971 -3.7417,-3.5545 -6.4177,-7.10923 -8.3671,-10.66413 8.6685,-1.5465 15.2292,2.45893 21.9323,6.08917 l 5.2672,-7.57885 c 2.2593,1.31054 -64.6722,-67.41563 -62.8754,-72.6627 l 1.6818,-9.4338 c 1.6315,-2.07016 18.9838,-25.17111 18.9838,-25.17111 l -29.0303,18.62458 -15.2245,-13.02932 c 14.6312,-26.14453 20.7872,-39.27793 25.661,-50.44301 -9.6551,12.3501 -22.0112,31.41689 -28.6339,47.97141 -25.7179,-14.92936 -19.5687,-56.32817 -19.4313,-89.00573 0,0 -5.582,42.53253 -6.0824,39.60209 -0.5004,-2.93044 -10.3427,-42.2005 -10.3427,-42.2005 3.1399,41.18922 9.9836,80.94892 43.739,110.32169 l -16.8046,14.17066 c -13.8096,-11.6607 -28.2961,-21.59432 -45.8228,-23.77257 4.4202,16.35147 14.8734,28.45559 29.642,37.52165 -20.5018,30.40572 -38.2048,68.91846 -71.3606,62.66861 z"
       id="path98" /><path
       d="m 2179.4982,597.91828 c -13.1533,-11.27055 -16.9016,-20.2904 -32.1087,-8.61764 16.2785,17.26737 22.6476,15.67673 32.1087,8.61764 z"
       style="fill:#000000;fill-opacity:0.972549;stroke:#000000;stroke-width:0.000968786;stroke-dasharray:none;stroke-opacity:1"
       id="path1-2" /></g></svg>
