<?xml version="1.0" encoding="UTF-8" standalone="no"?>
<svg
   height="100mm"
   width="100mm"
   version="1.1"
   id="svg3"
   xml:space="preserve"
   xmlns:xlink="http://www.w3.org/1999/xlink"
   xmlns="http://www.w3.org/2000/svg"
   xmlns:svg="http://www.w3.org/2000/svg"><defs
     id="defs3"><linearGradient
       id="linearGradient68"><stop
         style="stop-color:#fad028;stop-opacity:1;"
         offset="0"
         id="stop68" /><stop
         style="stop-color:#856a02;stop-opacity:1;"
         offset="1"
         id="stop69" /></linearGradient><linearGradient
       xlink:href="#linearGradient68"
       id="linearGradient69"
       x1="14.379488"
       y1="25.249989"
       x2="38.04911"
       y2="25.249989"
       gradientUnits="userSpaceOnUse" /><linearGradient
       xlink:href="#linearGradient68"
       id="linearGradient11"
       gradientUnits="userSpaceOnUse"
       x1="14.379488"
       y1="25.249989"
       x2="38.04911"
       y2="25.249989" /></defs><g
     id="g45"
     transform="matrix(7.9501522,0,0,-7.9501522,-19.431319,389.71762)"
     style="fill:url(#linearGradient69);stroke:#000000;stroke-width:0.0009;stroke-dasharray:none;stroke-opacity:1"><path
       d="m 21.91,43.965 c 0.185,-0.022 0.358,-0.714 0.684,-2.688 0.095,-0.556 0.182,-1.056 0.199,-1.106 0.084,-0.245 0.189,0.27 0.47,2.21 0.157,1.097 0.223,1.268 0.426,1.066 0.126,-0.123 0.084,-1.174 -0.085,-2.516 -0.222,-1.746 -0.261,-2.57 -0.13,-3.182 0.27,-1.294 1.072,-2.577 2.165,-3.456 0.552,-0.447 0.58,-0.451 1.273,-0.123 0.517,0.245 1.075,0.766 1.5,1.405 0.378,0.57 0.635,1.128 1.079,2.348 0.165,0.451 0.324,0.847 0.353,0.88 0.032,0.037 0.095,0.025 0.157,-0.038 0.21,-0.21 0.084,-1.15 -0.292,-2.126 a 9.434,9.434 0 0 0 -0.972,-1.815 c -1.286,-1.85 -1.493,-2.233 -1.492,-2.737 10e-4,-0.317 0.313,-0.844 0.628,-1.067 0.14,-0.102 0.253,-0.203 0.253,-0.232 10e-4,-0.031 -0.16,-0.22 -0.358,-0.427 v 0.003 c -0.358,-0.375 -0.436,-0.43 -0.475,-0.316 a 0.064,0.064 0 0 1 -0.007,0.013 c -0.042,0.063 -0.253,0.29 -0.49,0.541 -1.773,1.834 -2.915,3.547 -3.813,5.72 -0.597,1.44 -0.718,2.072 -1.089,5.651 -0.164,1.592 -0.164,1.992 0.005,1.992 h 0.008 z m -1.158,-2.297 0.002,-10e-4 v -0.001 c 0.063,-0.01 0.105,-0.354 0.105,-1.032 0.004,-2.947 0.642,-4.968 2.242,-7.092 0.904,-1.2 2.363,-2.599 3.553,-3.407 0.592,-0.405 0.58,-0.329 0.123,-0.828 H 26.776 C 26.67,29.193 26.556,29.1 26.518,29.1 c -0.042,0 -0.181,0.073 -0.32,0.168 -1.671,1.125 -4.605,4.477 -5.848,6.682 -0.408,0.724 -0.602,0.88 -1.663,1.345 -0.396,0.173 -0.801,0.4 -0.962,0.544 -0.304,0.266 -0.705,0.99 -0.642,1.155 0.074,0.198 0.279,0.097 0.568,-0.279 0.49,-0.63 1.17,-1.035 1.881,-1.12 0.262,-0.028 0.308,-0.016 0.422,0.13 0.186,0.236 0.308,0.83 0.495,2.335 0.085,0.723 0.19,1.392 0.223,1.484 0.032,0.08 0.063,0.123 0.084,0.123 z m 11.316,-8.72 0.005,-10e-4 v -0.001 l 10e-4,-10e-4 c 0.173,-0.025 0.203,-0.236 0.064,-0.498 -0.165,-0.317 -1.211,-1.365 -1.737,-1.74 v -0.002 c -0.485,-0.342 -0.604,-0.4 -0.552,-0.262 0.01,0.041 0.073,0.223 0.13,0.396 0.064,0.194 0.14,0.317 0.258,0.414 0.021,0.018 0.042,0.036 0.063,0.05 0.123,0.086 0.539,0.492 0.926,0.905 0.513,0.548 0.728,0.74 0.83,0.735 z m 2.995,-1.318 h 0.02 c 0.161,-0.004 0.258,-0.026 0.258,-0.074 A 0.289,0.289 0 0 0 35.299,31.43 c -0.084,-0.101 -0.253,-0.19 -0.521,-0.266 -0.19,-0.053 -0.661,-0.19 -1.044,-0.295 -1.266,-0.358 -2.513,-0.95 -3.438,-1.636 -0.611,-0.455 -0.607,-0.443 -0.489,-0.847 0.279,-0.954 1.355,-2.134 4.376,-4.788 1.576,-1.386 3.201,-2.992 3.52,-3.482 a 2.71,2.71 0 0 0 0.304,-0.642 c 0.064,-0.257 0.064,-0.32 -0.063,-0.563 -0.189,-0.375 -0.478,-0.67 -0.743,-0.775 a 0.442,0.442 0 0 1 -0.032,0.014 l -2.14,1.07 a 0.441,0.441 0 0 1 -0.577,-0.164 0.44,0.44 0 0 1 0.165,-0.576 l 1.751,-0.876 a 1.71,1.71 0 0 0 -0.574,-0.076 c -0.493,0 -1.839,0.088 -2.875,0.25 -2.102,0.328 -3.616,0.514 -4.219,0.421 C 28.228,18.127 28.167,18.031 28.123,17.235 27.9,13.29 25.29,9.649 20.743,6.928 l -10e-4,0.008 c -0.367,-0.22 -0.686,-0.401 -0.713,-0.401 -0.135,-0.008 -2.942,1.944 -3.812,3.673 -1.455,2.89 -1.903,5.071 -1.83,7.756 0.01,0.41 0.236,1.198 0.236,1.198 l 0.671,0.039 c 2.696,0.156 4.263,1.376 6.263,4.882 0.506,0.887 1.271,2.042 1.484,2.24 0.22,0.206 0.206,0.27 -0.095,0.405 -0.669,0.307 -1.617,1.249 -2.306,2.287 -0.55,0.83 -1.107,2.023 -1.107,2.373 0,0.092 0.042,0.123 0.181,0.123 0.216,0 1.195,-0.47 2.28,-1.097 1.845,-1.067 3.083,-1.692 3.814,-1.933 0.198,-0.063 0.266,-0.06 0.443,0.032 0.359,0.181 0.991,0.727 2.2,1.899 0.855,0.826 1.175,1.1 1.191,1.02 0.01,-0.063 -0.074,-0.417 -0.198,-0.79 -0.123,-0.376 -0.324,-1.02 -0.454,-1.436 -0.421,-1.354 -0.98,-2.37 -1.798,-3.268 -0.212,-0.232 -0.384,-0.44 -0.384,-0.463 l 0.002,-0.003 c 0.021,-0.014 0.156,0.046 0.324,0.139 0.571,0.312 1.223,1.09 1.683,2.012 0.198,0.397 0.838,2.063 0.838,2.176 0,0.028 0.063,0.08 0.152,0.101 0.084,0.022 0.486,0.232 0.894,0.472 0.784,0.458 1.497,0.719 2.84,1.044 0.582,0.139 1.193,0.223 1.534,0.215 z m -5.338,-6.654 h -0.032 c -0.383,0.002 -0.82,-0.173 -1.399,-0.605 1.537,-1.317 1.975,-2.371 3.752,-1.007 -1.014,0.847 -1.558,1.59 -2.325,1.612 z"
       style="fill:url(#linearGradient11);fill-opacity:0.992157;stroke:#000000;stroke-width:0.0009;stroke-dasharray:none;stroke-opacity:1"
       id="path2-7" /></g></svg>
