<?xml version="1.0" encoding="UTF-8" standalone="no"?>
<svg
   height="100mm"
   width="100mm"
   version="1.1"
   id="svg3"
   xml:space="preserve"
   xmlns:xlink="http://www.w3.org/1999/xlink"
   xmlns="http://www.w3.org/2000/svg"
   xmlns:svg="http://www.w3.org/2000/svg"><defs
     id="defs3"><linearGradient
       id="linearGradient24"><stop
         style="stop-color:#fad028;stop-opacity:1;"
         offset="0"
         id="stop24" /><stop
         style="stop-color:#856a02;stop-opacity:1;"
         offset="1"
         id="stop27" /></linearGradient><linearGradient
       xlink:href="#linearGradient24"
       id="linearGradient31"
       x1="2421.8262"
       y1="586.85852"
       x2="2638.7197"
       y2="586.85852"
       gradientUnits="userSpaceOnUse" /></defs><g
     id="g73"
     transform="matrix(0.94348583,0,0,0.94348583,-2186.0056,-364.71632)"><path
       style="fill:url(#linearGradient31);fill-opacity:0.972549;stroke:#000000;stroke-width:11.3386;stroke-dasharray:none;stroke-opacity:1"
       d="m 2517.2417,465.88987 c -15.3536,-0.33756 -29.7415,3.65824 -43.8758,8.79181 -20.6856,-13.31412 -23.6771,-41.05316 -54.9979,-30.61783 -18.3109,14.19757 -39.4546,31.70295 -4.6301,78.32298 -12.6785,19.19179 -36.3421,40.01332 -43.2058,64.80897 5.6467,-1.35522 10.2821,-0.89861 13.4629,2.16423 -6.4915,13.84479 -15.7114,26.16243 -18.1682,42.2655 l 14.0384,-2.42598 c -4.3181,13.61324 -10.1243,26.58352 -9.3403,42.40122 5.9935,-4.97591 12.2539,-9.24595 19.1375,-11.86812 -1.9515,14.88534 -3.0539,29.77149 2.0055,44.66359 3.4311,-8.06737 8.4474,-13.39924 13.0448,-19.45383 12.5239,17.22369 32.1145,22.74813 49.73,31.5425 6.8662,-4.71788 10.0843,-12.6022 14.9836,-19.02729 l 5.3948,10.37885 c -3.1536,5.77065 -0.2145,15.70183 0.3817,24.03313 l 42.0389,-0.55402 42.0389,0.55402 c 0.5962,-8.3313 3.5353,-18.26248 0.3817,-24.03313 l 5.3948,-10.37885 c 4.8993,6.42509 8.1174,14.30941 14.9836,19.02729 17.6155,-8.79437 37.2061,-14.31881 49.73,-31.5425 4.5974,6.05459 9.6137,11.38646 13.0448,19.45383 5.0594,-14.8921 3.957,-29.77825 2.0055,-44.66359 6.8836,2.62217 13.144,6.89221 19.1375,11.86812 0.784,-15.8177 -5.0222,-28.78798 -9.3403,-42.40122 l 14.0384,2.42598 c -2.4568,-16.10307 -11.6767,-28.42071 -18.1682,-42.2655 3.1808,-3.06284 7.8162,-3.51945 13.4629,-2.16423 -6.8637,-24.79565 -30.5273,-45.61718 -43.2058,-64.80897 34.8245,-46.62003 13.6808,-64.12541 -4.6301,-78.32298 -31.3208,-10.43533 -34.3123,17.30371 -54.9979,30.61783 -14.1343,-5.13357 -28.5222,-9.12937 -43.8758,-8.79181 z"
       id="path101" /><path
       style="fill:none;stroke:#000000;stroke-width:11.3386"
       d="m 2469.1768,507.65039 c 45.0156,-22.92291 69.5096,-12.04788 94.8545,-2.88085"
       id="path30" /><path
       style="fill:none;stroke:#000000;stroke-width:11.3386"
       d="m 2479.9463,532.64942 c 26.583,-12.57185 53.166,-6.79712 79.749,-1.39063"
       id="path31" /><g
       id="g36"><path
         style="fill:#000000;fill-opacity:1;stroke:#000000;stroke-width:11.3386"
         d="m 2484.3799,579.41602 c -0.8055,-25.84273 -15.1326,-23.56209 -24.0363,-20.4082 0.058,4.86114 9.7344,17.92005 24.0363,20.4082 z m 68.5006,0 c 0.8055,-25.84273 15.1326,-23.56209 24.0363,-20.4082 -0.058,4.86114 -9.7344,17.92005 -24.0363,20.4082 z"
         id="path32" /><path
         style="fill:none;stroke:#000000;stroke-width:11.3386"
         d="m 2443.0576,564.73633 c -9.3992,19.29034 -17.3282,39.9073 -2.872,57.95508 m 154.0172,-57.95508 c 9.3992,19.29034 17.3282,39.9073 2.872,57.95508"
         id="path33" /><path
         style="fill:none;stroke:#000000;stroke-width:11.3386"
         d="m 2414.8076,560.09375 c -13.442,50.53227 -8.873,87.94417 10.8721,114.30079 m 196.7731,-114.30079 c 13.442,50.53227 8.873,87.94417 -10.8721,114.30079"
         id="path34" /><path
         style="fill:none;stroke:#000000;stroke-width:11.3386"
         d="m 2457.0098,617.65626 c -18.1513,76.1071 11.1261,81.44306 57.916,60.64746 0.8925,-11.13676 -11.212,-25.04909 -14.7259,-33.68206 -0.755,-1.85482 11.5908,-1.19379 18.4303,-0.9769 6.8395,-0.21689 19.1853,-0.87792 18.4303,0.9769 -3.5139,8.63297 -15.6184,22.5453 -14.7259,33.68206 46.7899,20.7956 76.0673,15.45964 57.916,-60.64746"
         id="path35" /></g></g></svg>
