<?xml version="1.0" encoding="UTF-8" standalone="no"?>
<svg
   height="100mm"
   width="100mm"
   version="1.1"
   id="svg3"
   xml:space="preserve"
   xmlns:xlink="http://www.w3.org/1999/xlink"
   xmlns="http://www.w3.org/2000/svg"
   xmlns:svg="http://www.w3.org/2000/svg"><defs
     id="defs3"><linearGradient
       id="linearGradient66"><stop
         style="stop-color:#fad028;stop-opacity:1;"
         offset="0"
         id="stop66" /><stop
         style="stop-color:#856a02;stop-opacity:1;"
         offset="1"
         id="stop67" /></linearGradient><linearGradient
       xlink:href="#linearGradient66"
       id="linearGradient67"
       x1="11.912"
       y1="24.586487"
       x2="40.245037"
       y2="24.586487"
       gradientUnits="userSpaceOnUse" /><linearGradient
       xlink:href="#linearGradient66"
       id="linearGradient10"
       gradientUnits="userSpaceOnUse"
       x1="11.912"
       y1="24.586487"
       x2="40.245037"
       y2="24.586487" /></defs><g
     id="g44"
     transform="matrix(10.701029,0,0,-10.701029,-90.09069,452.07709)"
     style="fill:url(#linearGradient67);stroke:#000000;stroke-width:0.0009;stroke-dasharray:none;stroke-opacity:1"><path
       d="m 29.663,11.07 c 0.345,0.123 0.558,0.336 0.694,0.687 0.208,0.541 -0.03,1.359 -0.525,1.823 -0.209,0.196 -0.273,0.217 -0.833,0.249 -0.336,0.02 -0.822,0.1 -1.081,0.18 -0.548,0.165 -1.264,0.57 -1.55,0.871 -0.109,0.117 -0.225,0.212 -0.261,0.212 -0.03,0 -0.205,-0.129 -0.376,-0.28 -0.642,-0.572 -1.826,-1.001 -2.765,-1.003 -0.388,-10e-4 -0.439,-0.02 -0.627,-0.22 -0.877,-0.946 -0.742,-2.27 0.261,-2.549 0.408,-0.116 6.739,-0.087 7.066,0.028 z m 2.477,1.216 c 0.133,0.048 0.336,0.129 0.462,0.172 1.243,0.53 2.39,1.369 3.288,2.252 l 0.81,0.804 0.284,-0.325 c 0.325,-0.368 0.687,-1.031 0.865,-1.577 l 0.12,-0.368 0.125,0.24 c 0.07,0.132 0.204,0.482 0.304,0.772 0.3,0.884 0.3,2.532 0,3.403 -0.081,0.233 -0.081,0.273 0.005,0.273 0.165,0 0.856,-0.751 1.067,-1.16 l 0.197,-0.38 0.1,0.244 c 0.06,0.165 0.1,0.55 0.1,1.16 0.008,1.052 -0.09,1.478 -0.506,2.3 -0.144,0.28 -0.26,0.534 -0.26,0.564 0,0.18 0.688,-0.208 0.993,-0.561 l 0.149,-0.177 0.002,0.551 c 0.005,1.225 -0.481,2.67 -1.208,3.589 a 3.166,3.166 0 0 0 -0.276,0.38 c 0,0.073 0.348,0.035 0.587,-0.063 0.136,-0.06 0.26,-0.087 0.276,-0.069 0.05,0.051 -0.312,1.027 -0.577,1.557 -0.613,1.302 -2.913,3.5 -2.921,4.927 0.002,0.38 0.192,0.764 0.644,1.297 1.033,1.218 1.167,2.646 0.396,4.207 -0.372,0.757 -0.93,1.355 -1.55,1.664 -0.36,0.18 -0.472,0.204 -1.012,0.204 -0.889,0 -1.085,-0.12 -2.497,-1.538 -1.311,-1.316 -1.545,-1.466 -2.268,-1.467 -0.241,0 -0.768,0.072 -1.167,0.16 a 11.942,11.942 0 0 1 -5.158,0.001 c -0.402,-0.092 -0.932,-0.165 -1.177,-0.165 -0.693,0 -0.951,0.165 -2.213,1.424 -0.6,0.597 -1.199,1.16 -1.333,1.25 -0.401,0.273 -1.09,0.433 -1.525,0.357 -0.817,-0.148 -1.49,-0.632 -2.032,-1.464 -1.025,-1.57 -0.934,-3.392 0.236,-4.73 0.368,-0.424 0.587,-0.874 0.586,-1.22 -0.5,-2.148 -2.681,-3.977 -3.38,-5.994 l -0.19,-0.553 0.281,0.129 c 0.261,0.12 0.652,0.176 0.652,0.092 0,-0.02 -0.124,-0.192 -0.276,-0.38 -0.333,-0.42 -0.891,-1.557 -1.043,-2.115 -0.06,-0.22 -0.128,-0.766 -0.148,-1.206 l -0.04,-0.8 0.317,0.303 c 0.3,0.29 0.744,0.515 0.837,0.424 0.02,-0.024 -0.01,-0.128 -0.08,-0.224 -0.2,-0.304 -0.436,-0.857 -0.563,-1.31 -0.147,-0.523 -0.164,-2.021 -0.03,-2.486 l 0.09,-0.3 0.237,0.452 c 0.228,0.433 0.87,1.132 1.038,1.132 0.05,0 0.06,-0.063 0.04,-0.189 -0.02,-0.099 -0.09,-0.38 -0.14,-0.624 -0.136,-0.598 -0.132,-1.844 0.006,-2.453 0.06,-0.269 0.205,-0.695 0.317,-0.948 l 0.205,-0.462 0.144,0.392 c 0.08,0.217 0.233,0.57 0.34,0.784 0.209,0.407 0.752,1.084 0.848,1.05 0.03,-0.012 0.211,-0.205 0.408,-0.428 0.958,-1.1 2.51,-2.164 3.947,-2.705 l 0.405,-0.152 0.03,0.244 c 0.01,0.132 0.03,0.332 0.03,0.427 0.004,0.096 0.03,0.165 0.05,0.153 0.02,-0.015 0.129,0.117 0.237,0.284 0.109,0.165 0.341,0.42 0.523,0.55 l 0.328,0.24 -0.36,0.177 c -0.53,0.252 -1.214,0.931 -1.464,1.44 -0.309,0.631 -0.446,1.414 -0.4,2.279 0.04,0.837 0.168,1.323 0.515,2.07 0.276,0.594 0.914,1.582 1.02,1.582 0.09,0 0.1,0.034 -0.172,-0.772 -0.341,-1.018 -0.48,-2.052 -0.388,-2.876 0.136,-1.205 0.554,-1.885 1.423,-2.312 0.416,-0.209 0.5,-0.22 1.093,-0.217 0.718,0.005 1.174,0.133 1.805,0.518 0.385,0.232 1.226,0.963 1.17,1.015 -0.02,0.017 -0.412,0.325 -0.873,0.684 -0.461,0.36 -0.884,0.716 -0.939,0.794 -0.232,0.333 -0.06,0.91 0.333,1.11 0.241,0.124 0.787,0.124 1.007,-0.003 0.241,-0.136 1.345,-0.132 1.675,0.005 0.75,0.316 1.433,-0.048 1.433,-0.77 0,-0.316 -0.1,-0.427 -1.08,-1.178 -0.389,-0.3 -0.74,-0.569 -0.774,-0.6 -0.173,-0.153 1.046,-1.09 1.809,-1.388 0.41,-0.16 0.583,-0.189 1.127,-0.189 0.553,0 0.694,0.024 1.025,0.18 0.86,0.403 1.337,1.13 1.475,2.246 0.04,0.333 0.06,0.818 0.03,1.081 -0.05,0.581 -0.31,1.705 -0.5,2.19 -0.152,0.393 -0.168,0.487 -0.08,0.487 0.104,0 0.754,-1 1.021,-1.572 0.344,-0.737 0.468,-1.228 0.518,-2.043 0.108,-1.803 -0.617,-3.19 -1.998,-3.819 l -0.233,-0.111 0.333,-0.245 c 0.409,-0.3 0.75,-0.848 0.82,-1.315 l 0.05,-0.349 z m 2.158,3.687 c -0.209,0.117 -0.157,0.312 0.3,1.214 0.482,0.94 0.843,1.935 1.07,2.945 0.131,0.585 0.148,0.87 0.152,2.258 0.002,1.72 -0.05,2.183 -0.443,3.704 -0.108,0.423 -0.196,0.835 -0.196,0.922 0,0.144 0.112,0.24 0.272,0.24 0.169,0 0.976,-1.5 1.314,-2.433 0.833,-2.308 0.741,-4.906 -0.24,-6.745 -0.47,-0.878 -1.227,-1.73 -1.815,-2.04 -0.29,-0.153 -0.257,-0.148 -0.414,-0.064 z M 17.14,16.277 c -1.985,1.538 -2.78,4.528 -2.019,7.593 0.26,1.043 1.163,3.026 1.51,3.314 0.132,0.109 0.376,0.025 0.376,-0.132 0,-0.069 -0.104,-0.561 -0.233,-1.093 -0.333,-1.38 -0.447,-2.277 -0.45,-3.532 -0.001,-2.092 0.436,-3.817 1.403,-5.525 0.317,-0.559 0.364,-0.817 0.176,-0.925 -0.164,-0.097 -0.333,-0.03 -0.76,0.3 z m 16.23,4.505 c -0.108,0.108 -0.104,0.38 0.01,1 0.249,1.31 0.2,2.285 -0.177,3.53 -0.116,0.377 -0.212,0.815 -0.216,0.963 -0.006,0.244 0.01,0.273 0.172,0.289 0.14,0.016 0.229,-0.04 0.419,-0.273 0.63,-0.77 1.032,-1.746 1.104,-2.687 0.109,-1.417 -0.791,-3.35 -1.316,-2.824 z m -15.083,0.072 c -0.233,0.248 -0.602,1.067 -0.707,1.571 -0.273,1.3 0.06,2.645 0.917,3.724 0.253,0.317 0.389,0.432 0.509,0.432 0.09,0 0.184,-0.048 0.205,-0.096 0.02,-0.057 -0.07,-0.486 -0.205,-0.963 -0.396,-1.402 -0.46,-2.168 -0.277,-3.328 0.185,-1.164 0.193,-1.275 0.1,-1.384 -0.124,-0.148 -0.38,-0.129 -0.543,0.048 z m 10.582,3.736 c -0.112,0.116 -0.104,0.491 0.03,1.357 0.153,0.993 0.677,1.571 1.523,1.682 0.356,0.049 1.393,-0.072 1.602,-0.18 0.168,-0.087 0.112,-0.392 -0.189,-1.046 -0.402,-0.873 -0.736,-1.13 -2.163,-1.67 -0.738,-0.28 -0.677,-0.272 -0.805,-0.144 z m -6.106,0.057 c -0.213,0.087 -0.508,0.196 -0.657,0.244 -1.06,0.336 -1.714,1.032 -2.01,2.14 -0.07,0.272 -0.07,0.312 0.04,0.392 0.124,0.087 0.965,0.236 1.355,0.236 0.674,0 1.334,-0.42 1.586,-1.002 0.257,-0.596 0.392,-1.994 0.209,-2.112 -0.125,-0.08 -0.08,-0.083 -0.52,0.097 z m 6.667,4.572 c -1.775,0.34 -4.547,0.349 -6.534,0.024 -0.65,-0.111 -0.704,-0.111 -0.81,0 -0.156,0.156 -0.07,0.28 0.456,0.591 1.029,0.623 2.141,0.904 3.55,0.899 1.4,-0.006 2.418,-0.253 3.449,-0.844 0.556,-0.317 0.7,-0.482 0.568,-0.641 -0.1,-0.117 -0.196,-0.12 -0.68,-0.027 z m 0.531,2.529 c -2.546,0.776 -5.157,0.775 -7.743,-0.004 -0.717,-0.216 -0.923,-0.204 -0.923,0.07 0,0.159 0.08,0.251 0.458,0.546 a 7.457,7.457 0 0 0 3.017,1.354 c 0.854,0.172 2.394,0.117 3.214,-0.132 1.171,-0.345 2.815,-1.313 2.917,-1.72 0.04,-0.18 -0.14,-0.376 -0.296,-0.316 -0.05,0.019 -0.336,0.108 -0.644,0.204 z"
       style="fill:url(#linearGradient10);fill-opacity:1;stroke:#000000;stroke-width:0.0009;stroke-dasharray:none;stroke-opacity:1"
       id="path2-1" /></g></svg>
