<?xml version="1.0" encoding="UTF-8" standalone="no"?>
<svg
   height="100mm"
   width="100mm"
   version="1.1"
   id="svg3"
   xml:space="preserve"
   xmlns:xlink="http://www.w3.org/1999/xlink"
   xmlns="http://www.w3.org/2000/svg"
   xmlns:svg="http://www.w3.org/2000/svg"><defs
     id="defs3"><linearGradient
       id="linearGradient39"><stop
         style="stop-color:#fad028;stop-opacity:1;"
         offset="0"
         id="stop39" /><stop
         style="stop-color:#856a02;stop-opacity:1;"
         offset="1"
         id="stop40" /></linearGradient><linearGradient
       xlink:href="#linearGradient39"
       id="linearGradient40"
       x1="112.38459"
       y1="970.30609"
       x2="258.79907"
       y2="970.30609"
       gradientUnits="userSpaceOnUse"
       gradientTransform="translate(3.1143336,-778.8172)" /></defs><g
     id="path2-62"
     class="st0"
     style="fill:#856a02;fill-opacity:1;stroke:#000000;stroke-width:0.0009"
     transform="matrix(8.2765584,0,0,-8.2765584,-271.65027,413.9922)"><path
       style="color:#000000;clip-rule:evenodd;fill:#000000;fill-rule:evenodd;stroke:none;-inkscape-stroke:none"
       d="m 25.21875,8.3144531 c -0.09,0.4800198 -0.136137,0.9008896 -0.07813,1.2929688 0.05276,0.5405661 0.220401,0.9955831 0.46875,1.3808591 -0.248276,-0.38516 -0.414053,-0.840427 -0.466797,-1.3808591 -0.05799,-0.39192 -0.01382,-0.8129895 0.07617,-1.2929688 z m 2.595703,3.2109379 c 0.542384,0.200975 1.122613,0.293264 1.710938,0.361328 0.588324,0.06806 1.185596,0.111225 1.759765,0.216797 -0.574236,-0.105585 -1.171466,-0.150689 -1.759765,-0.21875 -0.5883,-0.06806 -1.168666,-0.158445 -1.710938,-0.359375 z m 5.095703,1.164062 c 0.618912,0.387632 1.023407,0.939045 1.164063,1.542969 -0.140404,-0.604751 -0.542522,-1.154914 -1.16211,-1.542969 -5.31e-4,-3.33e-4 -0.0014,3.33e-4 -0.002,0 z m -2.572265,0.851563 c 0.469933,0.297458 0.732206,0.634039 0.736328,0.951172 -0.0041,-0.317617 -0.26431,-0.653631 -0.734375,-0.951172 -5.71e-4,-3.67e-4 -0.0014,3.65e-4 -0.002,0 z m 0.736328,0.951172 c 0.0021,0.158566 -0.06125,0.312911 -0.19336,0.455078 3.03e-4,-3.25e-4 0.0017,3.25e-4 0.002,0 0.132235,-0.142302 0.193471,-0.29627 0.191407,-0.455078 z m -0.19336,0.455078 c -0.132109,0.142167 -0.333121,0.271329 -0.611328,0.382812 -1.237859,0.498443 -3.687138,0.761731 -6.050781,1.177734 2.363602,-0.415995 4.812643,-0.677225 6.050781,-1.175781 0.277657,-0.111262 0.479077,-0.242843 0.611328,-0.384765 z m -6.662109,1.560546 c -1.181822,0.208002 -2.343384,0.453659 -3.320313,0.78711 -0.976291,0.333233 -1.768795,0.754722 -2.216796,1.310547 0.447656,-0.556134 1.239946,-0.97517 2.216796,-1.308594 0.976851,-0.333424 2.138512,-0.581065 3.320313,-0.789063 z m -5.537109,2.097657 c -2.93e-4,3.63e-4 -0.0017,-3.63e-4 -0.002,0 -1.246143,1.550178 -1.135855,3.856994 -0.134765,5.49414 0.318006,0.516604 0.700402,0.903081 1.126953,1.199219 -0.426905,-0.296169 -0.806782,-0.68227 -1.125,-1.199219 -1.000909,-1.63685 -1.111088,-3.944322 0.134766,-5.49414 z m 0.990234,6.693359 c 0.427289,0.296651 0.900267,0.501843 1.404297,0.654297 -0.50353,-0.152303 -0.977392,-0.358128 -1.404297,-0.654297 z m 1.404297,0.654297 c 1.007189,0.304644 2.134885,0.399348 3.255859,0.589844 1.460007,0.240001 2.921019,0.439519 4.375,0.728515 -1.453391,-0.288801 -2.915643,-0.490574 -4.375,-0.730468 -1.121024,-0.190504 -2.2488,-0.283286 -3.255859,-0.587891 z m 7.630859,1.318359 c 0.47983,0.11396 0.74013,0.471635 0.78711,0.855469 0.03374,0.277422 -0.01507,0.47974 -0.119141,0.632813 0.104208,-0.153271 0.154853,-0.357188 0.121094,-0.634766 -0.04702,-0.384165 -0.306941,-0.739476 -0.78711,-0.853516 -6.31e-4,-1.25e-4 -0.0013,1.26e-4 -0.002,0 z M 29.375,28.759766 c -0.104073,0.153072 -0.262956,0.25516 -0.449219,0.330078 -0.372525,0.149835 -0.853625,0.191163 -1.220703,0.304687 0.366922,-0.113476 0.84798,-0.152819 1.220703,-0.302734 0.186362,-0.07496 0.345011,-0.178761 0.449219,-0.332031 z m 2.042969,-11.332032 -5.384766,1.441407 c -1.537281,0.359831 -2.925914,0.716475 -3.742187,1.24414 0.81588,-0.527923 2.204194,-0.882189 3.742187,-1.242187 z m -9.126953,2.685547 c -3.84e-4,2.48e-4 -0.0016,-2.48e-4 -0.002,0 -0.450118,0.290577 -0.68164,0.741521 -0.68164,1.201172 0,-0.459347 0.233713,-0.910749 0.683594,-1.201172 z m 6.527343,3.304688 c 1.981895,0.246987 3.829585,1.174482 4.81836,2.542968 -0.988974,-1.368761 -2.836259,-2.295956 -4.81836,-2.542968 z m 5.566407,4.896484 c -0.02595,0.87504 -0.35823,1.831699 -1.085938,2.837891 -0.258973,0.364961 -0.554904,0.662609 -0.880859,0.892578 0.326044,-0.230031 0.623785,-0.52754 0.882812,-0.892578 0.727791,-1.006306 1.058029,-1.962651 1.083985,-2.837891 z M 25.767578,30.4375 c -1.381135,1.115109 -2.140741,3.066028 -2.052734,4.826172 -0.08799,-1.759853 0.671872,-3.711284 2.052734,-4.826172 z m 5.201172,2.25 c -0.480451,0.119988 -0.962997,0.154309 -1.398438,0.283203 -0.43544,0.128894 -0.824129,0.353011 -1.117187,0.849609 0.292941,-0.4964 0.681879,-0.7188 1.117187,-0.847656 0.435309,-0.128855 0.91789,-0.165144 1.398438,-0.285156 z m -2.177734,5.613281 c -0.19886,1.11853 -0.744057,2.18937 -1.521485,2.966797 0.777571,-0.777571 1.322595,-1.848079 1.521485,-2.966797 z M 23.3125,38.474609 c 0.235017,1.077839 0.796854,2.111445 1.566406,2.9375 0.298033,0.317036 0.568772,0.498424 0.837891,0.564453 -0.26888,-0.06597 -0.537971,-0.249442 -0.835938,-0.566406 -0.769446,-0.825942 -1.333377,-1.857888 -1.568359,-2.935547 z m 2.923828,3.484375 v 0.002 h 0.06055 v -0.002 h -0.05859 c -4.4e-4,1.12e-4 -0.0015,-1.11e-4 -0.002,0 z m -0.53125,0.01758 c -0.01,0.585872 -0.269426,1.224849 -0.566406,1.757813 0.29702,-0.533035 0.558357,-1.171686 0.568359,-1.757813 z m 0.585938,0.0078 c 0.08701,0.529062 0.316395,1.231147 0.566406,1.826172 h 0.002 c -0.249989,-0.594974 -0.48137,-1.297235 -0.568359,-1.826172 z"
       id="path27" /></g><path
     style="fill:url(#linearGradient40);stroke:#000000;stroke-width:11.3386;stroke-dasharray:none;stroke-opacity:1"
     d="m 181.78393,337.3091 c -36.9472,-42.7395 68.0665,-37.1348 43.7835,-59.4322 -7.6921,-7.0631 -106.3739,-12.1586 -104.3787,-49.7778 2.9713,-56.02352 68.4519,-51.29395 86.9573,-57.695 3.892,-1.34629 5.6169,-8.57649 3.923,-11.44154 -14.7928,-25.02071 -35.9846,-13.39529 -39.3623,-49.26127 -11.3528,-19.319932 -10.3752,-32.866362 1.4435,-49.060242 1.8743,-2.56814 11.3585,-4.67389 11.1386,-11.27816 1.5662,2.59998 2.1562,1.54717 4.51,-1.13892 -0.3396,1.83124 -3.0347,6.59863 6.3387,10.28445 22.3176,8.77575 17.173,31.72363 10.6956,50.228862 1.9988,14.18459 33.8778,21.39161 42.3391,38.98613 32.455,67.48703 -101.7023,45.02035 -92.9834,79.42189 8.5412,33.7006 124.5739,22.9799 95.183,63.7414 -17.7968,24.6819 -73.1769,12.2956 -69.5879,46.4224 z"
     id="path37" /></svg>
