<?xml version="1.0" encoding="UTF-8" standalone="no"?>
<svg
   height="100mm"
   width="100mm"
   version="1.1"
   id="svg3"
   xml:space="preserve"
   xmlns:xlink="http://www.w3.org/1999/xlink"
   xmlns="http://www.w3.org/2000/svg"
   xmlns:svg="http://www.w3.org/2000/svg"><defs
     id="defs3"><linearGradient
       id="linearGradient39"><stop
         style="stop-color:#fad028;stop-opacity:1;"
         offset="0"
         id="stop39" /><stop
         style="stop-color:#856a02;stop-opacity:1;"
         offset="1"
         id="stop40" /></linearGradient><linearGradient
       xlink:href="#linearGradient39"
       id="linearGradient61"
       gradientUnits="userSpaceOnUse"
       x1="112.38459"
       y1="970.30609"
       x2="258.79907"
       y2="970.30609"
       gradientTransform="translate(3.4450686,-781.06655)" /></defs><path
     style="fill:url(#linearGradient61);stroke:#000000;stroke-width:11.3386;stroke-dasharray:none;stroke-opacity:1"
     d="m 182.11457,335.05985 c -36.9471,-42.7396 68.0665,-37.1349 43.7836,-59.4323 -7.6921,-7.063 -106.3739,-12.1585 -104.3787,-49.7777 2.9712,-56.02365 68.4518,-51.29405 86.9572,-57.69515 3.8921,-1.3462 5.617,-8.5764 3.9231,-11.4415 -14.7929,-25.0207 -35.9847,-13.3953 -39.3624,-49.2613 -11.3528,-19.319912 -10.3751,-32.866312 1.4435,-49.060212 1.8743,-2.5681 11.3586,-4.6739 11.1386,-11.2782 1.5663,2.6 2.1563,1.5472 4.51,-1.1389 -0.3396,1.8313 -3.0347,6.5987 6.3387,10.2845 22.3177,8.7757 17.173,31.7236 10.6956,50.228812 1.9988,14.1846 33.8778,21.3916 42.3392,38.9862 32.4549,67.48705 -101.7023,45.0203 -92.9835,79.42195 8.5413,33.7005 124.574,22.9799 95.183,63.7414 -17.7968,24.6819 -73.1768,12.2956 -69.5879,46.4224 z"
     id="use25" /><path
     id="path29-3-0"
     style="fill:#ea5858;fill-opacity:0.992157;stroke-width:15.5237"
     d="m 206.17027,71.558788 c 4.2911,8.4723 2.0278,25.67691 -4.7951,34.806912 -8.9526,0.9856 -15.3943,0.986 -22.8818,1.4343 -7.5969,-8.226702 -11.7488,-24.467512 -6.7853,-33.956812 4.2994,-8.2195 7.5197,-16.7958 16.7958,-16.7958 9.2761,0 13.4751,6.2362 17.6664,14.5114 z" /></svg>
