<?xml version="1.0" encoding="UTF-8" standalone="no"?>
<svg
   height="100mm"
   width="100mm"
   version="1.1"
   id="svg3"
   xml:space="preserve"
   xmlns:xlink="http://www.w3.org/1999/xlink"
   xmlns="http://www.w3.org/2000/svg"
   xmlns:svg="http://www.w3.org/2000/svg"><defs
     id="defs3"><linearGradient
       id="linearGradient57"><stop
         style="stop-color:#fad028;stop-opacity:1;"
         offset="0"
         id="stop57" /><stop
         style="stop-color:#856a02;stop-opacity:1;"
         offset="1"
         id="stop58" /></linearGradient><linearGradient
       xlink:href="#linearGradient57"
       id="linearGradient58"
       x1="451.14127"
       y1="969.68317"
       x2="700.96777"
       y2="969.68317"
       gradientUnits="userSpaceOnUse" /></defs><g
     id="g55"
     transform="matrix(0.94192711,0,0,0.94192711,-356.00192,-722.51879)"><path
       style="fill:url(#linearGradient58);stroke:#000000;stroke-width:11.3386;stroke-dasharray:none;stroke-opacity:1"
       d="m 576.05452,842.73437 c -32.86604,1.16559 -87.34017,-7.10457 -101.19494,-25.10198 -0.006,51.4292 61.16933,38.4713 81.85432,60.58415 12.34782,13.20018 -12.0813,29.28793 -16.43732,48.36762 -66.19667,13.91976 -69.43698,50.55982 -73.26522,98.66394 -4.42298,31.791 -43.50819,71.2188 -42.11826,93.0925 17.43258,-14.4926 62.80425,-33.4811 73.40543,-45.4582 24.15525,19.3929 57.3872,32.3534 77.75599,33.1755 20.36879,-0.8221 53.60074,-13.7826 77.75599,-33.1755 10.60118,11.9771 55.97285,30.9656 73.40543,45.4582 1.38993,-21.8737 -37.69528,-61.3015 -42.11826,-93.0925 -3.82824,-48.10412 -7.06855,-84.74418 -73.26522,-98.66394 -4.35602,-19.07969 -28.78514,-35.16744 -16.43732,-48.36762 20.68499,-22.11285 81.86032,-9.15495 81.85432,-60.58415 -13.85477,17.99741 -68.3289,26.26757 -101.19494,25.10198 z"
       id="path53" /><path
       style="fill:none;fill-opacity:0.972549;stroke:#000000;stroke-width:11.3386;stroke-dasharray:none;stroke-opacity:1"
       d="m 489.35595,1040.4238 c 39.76109,11.5109 52.86217,-13.5105 90.2699,-11.6839 m 86.68304,11.6839 c -39.76109,11.5109 -52.86217,-13.5105 -90.2699,-11.6839"
       id="path54" /><path
       style="fill:none;fill-opacity:0.972549;stroke:#000000;stroke-width:11.3386;stroke-dasharray:none;stroke-opacity:1"
       d="m 513.82116,980.9419 c -5.54656,1.45871 -11.63911,3.34119 -15.1393,8.13013 -4.55382,4.31074 0.17307,12.09757 5.83558,8.0767 7.01595,-4.57602 11.49799,-7.91364 9.30372,-16.20683 z m 127.69712,0 c 5.54656,1.45871 11.63911,3.34119 15.1393,8.13013 4.55382,4.31074 -0.17307,12.09757 -5.83558,8.0767 -7.01595,-4.57602 -11.49799,-7.91364 -9.30372,-16.20683 z"
       id="path55"
       transform="matrix(0.87744497,0,0,0.87744497,70.796329,120.80455)" /></g></svg>
