<?xml version="1.0" encoding="UTF-8" standalone="no"?>
<svg
   height="100mm"
   width="100mm"
   version="1.1"
   id="svg3"
   xml:space="preserve"
   xmlns:xlink="http://www.w3.org/1999/xlink"
   xmlns="http://www.w3.org/2000/svg"
   xmlns:svg="http://www.w3.org/2000/svg"><defs
     id="defs3"><linearGradient
       id="linearGradient62"><stop
         style="stop-color:#fad028;stop-opacity:1;"
         offset="0"
         id="stop62" /><stop
         style="stop-color:#856a02;stop-opacity:1;"
         offset="1"
         id="stop63" /></linearGradient><linearGradient
       xlink:href="#linearGradient62"
       id="linearGradient63"
       x1="11.766146"
       y1="25.318907"
       x2="40.388813"
       y2="25.318907"
       gradientUnits="userSpaceOnUse" /><linearGradient
       xlink:href="#linearGradient62"
       id="linearGradient7"
       gradientUnits="userSpaceOnUse"
       x1="11.766146"
       y1="25.318907"
       x2="40.388813"
       y2="25.318907" /><linearGradient
       xlink:href="#linearGradient62"
       id="linearGradient8"
       gradientUnits="userSpaceOnUse"
       x1="11.766146"
       y1="25.318907"
       x2="40.388813"
       y2="25.318907" /></defs><g
     id="g41"
     transform="matrix(8.7714534,0,0,-8.7714534,-39.761128,411.05998)"
     style="fill:url(#linearGradient63);stroke:#000000;stroke-width:0.0009;stroke-dasharray:none;stroke-opacity:1"><g
       id="path2-6"
       style="fill:url(#linearGradient8);stroke:#000000;stroke-opacity:1"><path
         style="color:#fad028;fill:#fad028;fill-opacity:0.972549;stroke:#000000;stroke-linecap:round;stroke-linejoin:round;stroke-opacity:1;-inkscape-stroke:none;paint-order:stroke fill markers"
         d="m 39.978516,8.2578125 c -0.237683,0.043283 -0.556852,0.254136 -0.919922,0.5683594 0.363023,-0.3141823 0.682605,-0.5231896 0.919922,-0.5664063 0.07749,-0.012852 0.141507,0.013322 0.195312,0.074219 -0.05369,-0.059952 -0.11822,-0.088959 -0.195312,-0.076172 z m 0.195312,0.076172 c 0.0538,0.060897 0.09636,0.1556969 0.128906,0.28125 0.06509,0.251106 0.08966,0.6220824 0.08398,1.0761719 -0.01134,0.9081786 -0.143892,2.1479636 -0.322266,3.4238276 0.178225,-1.275121 0.312881,-2.516084 0.324219,-3.4238276 0.0057,-0.4541285 -0.01885,-0.8249113 -0.08398,-1.0761719 -0.03257,-0.1256303 -0.07495,-0.2201796 -0.128906,-0.28125 -4.65e-4,-5.262e-4 -0.0015,5.21e-4 -0.002,0 z M 39.058594,8.826172 c -0.36307,0.3142233 -0.771149,0.7332888 -1.183594,1.193359 -0.824889,0.920141 -1.672777,2.00676 -2.238281,2.759766 3.98e-4,3.58e-4 0.0016,-3.58e-4 0.002,0 0.565495,-0.752993 1.413422,-1.839659 2.238281,-2.759766 0.41243,-0.4600532 0.818618,-0.8791767 1.181641,-1.193359 z M 12.173828,8.2617188 c 0.246057,0.040968 0.57729,0.263115 0.955078,0.59375 0.377788,0.3306349 0.800571,0.7708371 1.226563,1.2519532 0.851984,0.962232 1.717223,2.085459 2.261718,2.814453 4.35e-4,-3.47e-4 0.0015,3.47e-4 0.002,0 C 16.074637,12.19287 15.209436,11.069688 14.357422,10.107422 13.931415,9.6262888 13.508695,9.1841925 13.130859,8.8535156 12.753023,8.5228388 12.420271,8.3027509 12.173828,8.2617188 Z m -0.1875,0.064453 c -0.0517,0.053643 -0.09243,0.138533 -0.125,0.25 0.03255,-0.1113864 0.07542,-0.1965234 0.126953,-0.25 -4.83e-4,4.943e-4 -0.0015,-4.998e-4 -0.002,0 z m -0.125,0.25 c -0.06514,0.2229338 -0.09473,0.5527531 -0.0957,0.9609375 -0.002,0.8163687 0.107686,1.9425387 0.265625,3.1308597 0.315776,2.375879 0.823709,5.002748 1.005859,5.914062 -0.181998,-0.910493 -0.688034,-3.537459 -1.003906,-5.914062 -0.157936,-1.188302 -0.267578,-2.314574 -0.265625,-3.1308597 9.77e-4,-0.4081429 0.02866,-0.7381648 0.09375,-0.9609375 z M 26.113281,9.6328125 C 24.367112,9.6850013 22.622948,10.006267 21,10.564453 c 1.622861,-0.558156 3.367204,-0.8775013 5.113281,-0.9296874 2.619116,-0.078279 5.240432,0.4457524 7.457031,1.6757814 -2.216432,-1.2295 -4.838393,-1.7559993 -7.457031,-1.6777345 z m -11.1875,6.1445315 v 0.002 c 0.901007,-0.01867 2.609956,0.487797 4.621094,1 -2.011118,-0.512244 -3.719725,-1.020679 -4.621094,-1.002 z m 4.621094,1.001953 c 2.011138,0.512202 4.325138,1.02847 6.4375,1.027344 -2.112215,0.0011 -4.426382,-0.515147 -6.4375,-1.027344 z m -5.533203,-0.05078 c 0.4508,-0.0093 1.172991,0.118664 2.066406,0.314453 0.893415,0.195788 1.958462,0.458913 3.091797,0.724609 -1.133328,-0.265695 -2.196409,-0.53077 -3.089844,-0.726562 -0.893434,-0.195793 -1.61737,-0.321786 -2.068359,-0.3125 z m 5.158203,1.039062 c 2.26667,0.531393 4.809684,1.06836 6.820312,1.068359 h 0.08203 0.02539 a 0.001,0.001 0 0 0 0,-0.002 h -0.01367 c 1.986327,-0.01726 4.255765,-0.556622 6.396485,-1.085937 -2.144635,0.530283 -4.419437,1.070566 -6.408203,1.085937 h -0.08203 c -2.010468,0 -4.553657,-0.535017 -6.820312,-1.066406 z m -6.279297,2.042969 c 0,2.445587 1.033425,4.733014 2.800781,6.55664 -1.767928,-1.823673 -2.800781,-4.110769 -2.800781,-6.55664 z m 2.800781,6.55664 c 0.884261,0.912415 1.950817,1.708212 3.166016,2.34961 -1.214582,-0.64107 -2.282051,-1.437773 -3.166016,-2.34961 z m 3.166016,2.34961 c 1.214665,0.641116 2.575835,1.128367 4.046875,1.421875 a 0.001,0.001 0 0 0 0,-0.002 c -1.470957,-0.293492 -2.832293,-0.778852 -4.046875,-1.419922 z m 4.046875,1.421875 c 0.372436,0.546113 0.644288,1.088466 0.828125,1.626953 -0.183859,-0.538564 -0.453693,-1.080778 -0.826172,-1.626953 a 0.001,0.001 0 0 0 -0.002,0 z m -5.921875,-8.900391 c 0,0 0.02901,0.571581 0.134766,1.208985 0.05288,0.318702 0.125425,0.652948 0.222656,0.941406 -0.09721,-0.288386 -0.167831,-0.622734 -0.220703,-0.941406 -0.105745,-0.637345 -0.134766,-1.208985 -0.134766,-1.208985 -2e-6,0 -0.002,0 -0.002,0 z m 18.179687,0 c 0,0 -0.706895,0.19934 -1.503906,0.464844 -0.796363,0.265288 -1.681394,0.597328 -2.037109,0.861328 0.354857,-0.263893 1.240122,-0.593879 2.037109,-0.859375 0.796044,-0.265181 1.502232,-0.464372 1.503906,-0.464844 -1.06e-4,0.0018 -0.0328,0.573482 -0.140625,1.210938 0.107834,-0.637514 0.142472,-1.20912 0.142579,-1.210938 0,-3e-6 0,-0.002 0,-0.002 z m -3.541015,1.326172 c -2.89e-4,2.15e-4 -0.0017,-2.15e-4 -0.002,0 -0.374723,0.288672 -0.465266,0.921044 -0.462891,1.480469 -0.0024,-0.559324 0.09057,-1.192141 0.464844,-1.480469 z m -0.464844,1.480469 c 0.0024,0.55839 0.0973,1.043124 0.09766,1.044922 l -0.0039,0.002 a 0.001,0.001 0 0 0 0,0.002 c 0,0 0.0058,-0.0019 0.0059,-0.002 0.0055,-9.57e-4 0.615781,-0.107108 1.31836,-0.289063 -0.703776,0.182415 -1.312793,0.28615 -1.31836,0.28711 -3.53e-4,-0.0018 -0.09724,-0.486632 -0.09961,-1.044922 z m -10.154297,-0.002 c -0.0025,0.559448 -0.101562,1.046875 -0.101562,1.046875 a 0.001,0.001 0 0 0 0.002,0 c 0,0 0.09711,-0.487324 0.09961,-1.046875 z m -0.101562,1.046875 h -0.0039 c 0,0 -0.616287,-0.104365 -1.322265,-0.28711 0.70602,0.182756 1.322265,0.289063 1.322265,0.289063 z m 15.53125,1.298828 c -1.782053,1.827173 -4.303305,3.185735 -7.261719,3.761719 2.959226,-0.576142 5.479459,-1.933792 7.261719,-3.761719 z m -7.261719,3.761719 a 0.001,0.001 0 0 0 -0.002,0 c -0.5905,0.894499 -1.031066,1.565688 -1.142578,2.544921 0.111487,-0.979014 0.554032,-1.650423 1.144531,-2.544921 z m -1.144531,2.544921 c -0.111513,0.979234 0.106429,2.265601 0.835937,4.390625 0.230528,0.555068 0.758373,1.436388 1.359375,2.400391 -0.600996,-0.963995 -1.12695,-1.845459 -1.357422,-2.400391 -0.72949,-2.124971 -0.949378,-3.41161 -0.83789,-4.390625 z m -1.992188,7.541016 c -2.372104,0.01799 -4.131715,0.789595 -5.960937,2.142578 -2.83e-4,4.66e-4 2.83e-4,0.0015 0,0.002 1.829953,-1.353965 3.588036,-2.124578 5.960937,-2.142578 l 0.0098,0.03711 a 0.001,0.001 0 0 0 0.002,0 v -0.0039 l -0.0098,-0.03516 a 0.001,0.001 0 0 0 -0.002,0 z m 0.01172,0.03516 0.0098,-0.0332 c 1.18595,0.009 2.217893,0.206784 3.183593,0.572266 -0.965797,-0.365517 -1.997546,-0.565219 -3.183593,-0.574219 a 0.001,0.001 0 0 0 -0.002,0 z m 3.193359,0.539063 c 0.965701,0.365482 1.865273,0.898282 2.78125,1.572265 l 0.0039,-0.002 c -2.56e-4,-4.29e-4 2.56e-4,-0.0015 0,-0.002 l -0.0039,0.002 c -0.916021,-0.674015 -1.815452,-1.204795 -2.78125,-1.570312 z"
         id="path101" /><path
         style="color:#fad028;fill:url(#linearGradient7);stroke:#000000;stroke-linecap:round;stroke-linejoin:round;stroke-opacity:1;-inkscape-stroke:none;paint-order:stroke fill markers"
         d="m 32.025,42.38 c -1.053,-1.766 -2.7,-4.184 -3.161,-5.294 -1.459,-4.25 -0.874,-5.147 0.307,-6.936 5.917,-1.152 10.087,-5.428 10.087,-10.342 -0.05,-0.336 -0.125,-0.653 -0.182,-0.975 0.192,-0.94 2.144,-10.78 0.902,-10.574 -0.95,0.173 -3.209,3.014 -4.34,4.52 -5.07,-4.564 -13.988,-3.872 -19.02,0.143 -1.089,-1.458 -3.46,-4.496 -4.445,-4.66 -1.163,-0.192 0.5,8.5 0.864,10.321 -0.07,0.394 -0.134,0.807 -0.144,1.227 0,4.892 4.13,9.154 10.014,10.328 2.979662,4.369158 -0.563367,8.504755 -2.834,12.243 1.83,-1.354 3.59,-2.126 5.963,-2.144 l 0.01,0.039 0.01,-0.039 c 2.372,0.018 4.133,0.797 5.965,2.145 z M 31.257,25.091 c 0,0 -0.384,-1.949 0.365,-2.526 0.71,-0.528 3.543,-1.326 3.543,-1.326 0,0 -0.134,2.294 -0.73,2.814 -0.71,0.614 -3.183,1.04 -3.183,1.04 z m -10.358,0 c 0,0 -2.464,-0.422 -3.184,-1.04 -0.614,-0.527 -0.73,-2.813 -0.73,-2.813 0,0 2.832,0.787 3.544,1.326 0.768,0.576 0.374,2.526 0.374,2.526 z m 5.2,-6.256 h -0.106 c -4.021101,0 -10.175421,-2.144133 -11.979,-2.107 l 0.912,-0.95 c 1.802377,-0.03735 6.833418,2.031253 11.058,2.029 4.035454,0 8.428024,-2.085947 11.219,-2.03 l 0.912,0.95 c -2.94519,-0.05702 -8.062306,2.077255 -12.04,2.108 z"
         id="path102" /></g></g></svg>
