<?xml version="1.0" encoding="UTF-8" standalone="no"?>
<svg
   height="100mm"
   width="100mm"
   version="1.1"
   id="svg3"
   xml:space="preserve"
   xmlns:xlink="http://www.w3.org/1999/xlink"
   xmlns="http://www.w3.org/2000/svg"
   xmlns:svg="http://www.w3.org/2000/svg"><defs
     id="defs3"><linearGradient
       id="linearGradient60"><stop
         style="stop-color:#fad028;stop-opacity:1;"
         offset="0"
         id="stop60" /><stop
         style="stop-color:#856a02;stop-opacity:1;"
         offset="1"
         id="stop61" /></linearGradient><linearGradient
       xlink:href="#linearGradient60"
       id="linearGradient96"
       gradientUnits="userSpaceOnUse"
       x1="17.405699"
       y1="24.834688"
       x2="34.749138"
       y2="24.834688" /><linearGradient
       xlink:href="#linearGradient60"
       id="linearGradient6"
       gradientUnits="userSpaceOnUse"
       x1="17.405699"
       y1="24.834688"
       x2="34.749138"
       y2="24.834688" /></defs><g
     id="g40"
     transform="matrix(8.6652569,0,0,-8.6652569,-36.99122,404.17535)"
     style="fill:url(#linearGradient96);stroke:#000000;stroke-width:0.0009;stroke-dasharray:none;stroke-opacity:1"><path
       d="m 32.213,42.29 c 1.095,-0.413 1.684,-1.643 2.088,-2.677 0.566,-1.48 0.614,-3.12 0.04,-4.607 -0.297,-1.04 -1.001,-1.904 -1.544,-2.798 1.025,-1.76 1.852,-3.816 1.611,-5.891 -0.441,-1.087 -1.217,-2.03 -1.131,-3.282 -0.375,-2.665 -0.855,-5.424 -2.34,-7.717 -0.174,-1.107 0.854,-2.175 0.47,-3.364 C 30.917,10.179 30.03,8.139 28.14,7.515 27.285,7.304 26.995,7.361 26.32,7.431 c -1.276,0 -2.753,-0.125 -3.68,0.96 -1.359,1.572 -2.392,3.869 -1.517,5.924 0.538,1.296 -0.922,2.47 -1.14,3.757 -0.74,2.133 -0.96,4.394 -1.312,6.608 -0.902,1.012 -1.12,2.394 -0.797,3.694 0.25,1.385 0.874,2.668 1.514,3.904 -1.366,1.868 -2.518,4.305 -1.72,6.645 0.346,1.235 0.964,2.513 2.013,3.288 1.187,0.307 1.34,-1.37 1.97,-2.014 0.777,-1.13 1.864,-2.133 2.02,-3.578 0.183,-0.749 -0.059,-1.866 1.087,-1.21 1.196,0.24 2.433,0.05 3.617,-0.174 -0.009,1.574 0.528,3.16 1.678,4.266 0.883,0.806 0.99,2.414 2.162,2.801 z M 19.856,39.948 c -0.662,-1.134 -1.047,-2.553 -0.624,-3.842 0.24,-0.634 0.855,-2.869 1.599,-2.31 -0.032,1.043 0.03,2.343 -0.365,3.013 -0.75,0.567 -0.115,1.68 0.509,0.71 0.652,-0.594 1.175,-2.648 1.246,-2.666 0.03,1.294 -0.327,2.617 -1.287,3.535 -0.365,0.518 -0.797,0.976 -1.072,1.555 z m 12.5,-0.003 c -0.73,-1.381 -2.27,-2.404 -2.287,-4.094 -0.106,-0.663 -0.05,-1.687 0.23,-0.461 0.183,0.98 0.615,2.019 1.434,2.623 0.864,-0.49 -0.538,-1.802 -0.26,-2.752 -0.06,-0.49 -0.124,-0.985 -0.172,-1.477 0.681,-0.672 1.1,1.202 1.489,1.695 0.547,1.454 0.345,3.135 -0.432,4.465 z m -6.238,-6.113 c -0.883,-0.024 -2.25,-0.004 -2.779,-0.653 -0.02,-1.317 -0.04,-2.885 1.184,-3.712 1.19,-1.448 1.086,1.24 2.044,1.707 0.605,0.662 3.213,2.021 1.428,2.477 -0.614,0.183 -1.25,0.183 -1.877,0.192 z m 4.092,-1.305 c -0.643,-1.68 -2.955,-2.11 -3.266,-3.983 0.403,-1.573 -1.215,-1.949 -2.225,-1.125 -1.634,0.758 -2.933,2.33 -2.964,4.188 -0.02,1.529 -1.48,-1.047 -1.7,-1.697 -0.212,-0.806 -1.09,-2.527 -0.5,-2.875 1.739,0.413 3.187,-1.11 3.645,-2.65 0.547,-0.529 0.403,-2.96 -0.422,-1.562 -0.346,1.123 -1.238,1.888 -2.405,1.967 0.04,-1.072 0.298,-2.506 0.518,-3.707 a 14.553,14.553 0 0 1 1.813,-5.073 c 0.893,-0.997 -0.182,-2.13 -0.269,-3.214 -0.06,-1.305 0.73,-2.6 1.634,-3.495 1.256,-0.394 2.763,-0.365 4.04,-0.034 0.739,0.595 1.02,1.225 1.404,2.078 0.71,1.154 -0.05,2.399 -0.355,3.566 0.09,1.308 1.236,2.384 1.542,3.692 0.7,2.009 0.883,4.139 1.184,6.232 -1.09,-0.183 -2.02,-0.701 -2.374,-1.827 -1.095,-1.511 -0.883,1.403 -0.297,1.945 0.566,1.275 1.829,2.46 3.314,2.077 0.854,-0.307 -0.01,1.539 -0.135,2.16 -0.326,1.343 -1.163,2.454 -2.198,3.339 z M 25.52,28.83 c 0.005,-0.003 0.03,-0.013 0,0 z m 7.543,-2.107 c -0.02,0.002 0.031,-0.022 0,0 z M 20.09,24.966 c -0.005,-0.023 0.06,-0.015 0,0 z m 8.254,-11.117 c 1.713,-0.423 0.758,-2.634 -0.605,-2.919 -0.73,-1.576 -1.857,0.922 -0.586,1.392 0.997,0.327 0.5,1.251 1.19,1.525 z m -4.486,-0.005 c 0.71,-0.21 0.297,-1.215 1.19,-1.446 1.11,-0.432 0.346,-2.972 -0.48,-1.561 -0.806,0.499 -2.36,1.467 -1.419,2.594 0.182,0.201 0.413,0.422 0.7,0.412 z m 6.016,-1.634 c -0.01,-0.005 -0.04,-0.033 0,0 z"
       style="color:#fad028;fill:url(#linearGradient6);fill-opacity:1;stroke:#000000;stroke-width:0.0009;stroke-dasharray:none;stroke-opacity:1"
       id="path2" /></g></svg>
