<?xml version="1.0" encoding="UTF-8" standalone="no"?>
<svg
   height="100mm"
   width="100mm"
   version="1.1"
   id="svg3"
   xml:space="preserve"
   xmlns:xlink="http://www.w3.org/1999/xlink"
   xmlns="http://www.w3.org/2000/svg"
   xmlns:svg="http://www.w3.org/2000/svg"><defs
     id="defs3"><linearGradient
       id="linearGradient106"><stop
         style="stop-color:#fad028;stop-opacity:1;"
         offset="0"
         id="stop107" /><stop
         style="stop-color:#856a02;stop-opacity:1;"
         offset="1"
         id="stop106" /></linearGradient><linearGradient
       xlink:href="#linearGradient106"
       id="linearGradient107"
       x1="934.40729"
       y1="967.09869"
       x2="1011.772"
       y2="967.09869"
       gradientUnits="userSpaceOnUse"
       gradientTransform="translate(-783.28471,-784.48865)" /></defs><path
     style="fill:url(#linearGradient107);stroke:#000000;stroke-width:11.3386"
     d="m 188.91568,331.37615 c -6.6606,-0.3861 -8.976,2.641 -20.9825,-0.3609 -17.5488,-12.4746 -20.5294,-42.9338 -14.6231,-58.3848 -11.5404,-27.3083 -21.5702,-52.6861 -22.2002,-79.57032 l -12.2882,-20.66739 c 2.8369,-23.46001 14.2024,-35.64874 20.5168,-49.63626 -27.7436,-32.16168 -21.8551,-56.38373 -10.1856,-83.09571 12.2456,20.76747 35.7468,46.27031 34.5714,65.09668 l 25.1914,-1.85261 25.19137,1.85261 c -1.17547,-18.82637 22.3256,-44.32921 34.5712,-65.09668 11.6695,26.71198 17.558,50.93403 -10.1856,83.09571 6.3144,13.98752 17.6799,26.17625 20.5168,49.63626 l -12.2882,20.66739 c -0.63,26.88422 -10.6598,52.26202 -22.2002,79.57032 5.9063,15.451 2.9257,45.9102 -14.62297,58.3848 -12.0065,3.0019 -14.3219,-0.025 -20.9824,0.3609 z"
     id="path103" /><g
     id="g106"
     transform="translate(-783.28471,-784.48865)"><path
       style="fill:none;stroke:#000000;stroke-width:11.3386"
       d="m 950.21065,993.45258 c -8.48354,-21.12556 -19.29458,-40.42155 -40.63378,-30.74188 11.32262,0.62994 30.05817,10.06456 34.19317,15.95548 m 50.40249,14.7864 c 8.48357,-21.12556 19.29457,-40.42155 40.63377,-30.74188 -11.3226,0.62994 -30.0582,10.06456 -34.1932,15.95548"
       id="path104" /><path
       style="fill:none;stroke:#000000;stroke-width:11.3386"
       d="m 954.79856,1076.5294 -4.71488,-1.6587 -2.65864,6.3315 c 4.73563,4.7898 11.83136,14.4542 15.12407,10.5196 0.22542,-3.7712 -7.71904,-8.432 -10.81928,-12.1072 m 37.85479,-3.0852 4.71488,-1.6587 2.65864,6.3315 c -4.73563,4.7898 -11.83136,14.4542 -15.12407,10.5196 -0.22542,-3.7712 7.71904,-8.432 10.81928,-12.1072"
       id="path105" /><path
       style="fill:none;stroke:#000000;stroke-width:11.3386"
       d="m 919.71534,867.4322 c 9.00916,11.41908 11.14332,28.43191 8.26081,44.23975 8.25457,-5.9917 17.17654,-13.98053 26.21474,-22.56596 m 70.47691,-21.67379 c -9.0091,11.41908 -11.1433,28.43191 -8.2608,44.23975 -8.2545,-5.9917 -17.17651,-13.98053 -26.21471,-22.56596"
       id="path106" /></g></svg>
