<?xml version="1.0" encoding="UTF-8" standalone="no"?>
<svg
   id="svg3"
   width="100mm"
   height="100mm"
   version="1.1"
   xml:space="preserve"
   sodipodi:docname="ws.svg"
   xmlns:inkscape="http://www.inkscape.org/namespaces/inkscape"
   xmlns:sodipodi="http://sodipodi.sourceforge.net/DTD/sodipodi-0.dtd"
   xmlns="http://www.w3.org/2000/svg"
   xmlns:svg="http://www.w3.org/2000/svg"><defs
     id="defs1" /><sodipodi:namedview
     id="namedview1"
     pagecolor="#ffffff"
     bordercolor="#000000"
     borderopacity="0.25"
     inkscape:showpageshadow="2"
     inkscape:pageopacity="0.0"
     inkscape:pagecheckerboard="0"
     inkscape:deskcolor="#d1d1d1"
     inkscape:document-units="mm" /><g
     id="g40"
     transform="matrix(-9.0855 0 0 -9.0855 408.14 436.02)"><g
       id="g4"
       transform="matrix(-.84551 0 0 -.84551 48.616 54.344)"><path
         id="path2"
         d="m 35.03878,48.325147 2.5424,0.4767 -1.4936,-1.4619 c 1.8675,-5.918 0.93668,-11.582 -3.7182,-16.907 -0.94935,-4.8449 -0.79084,-9.4305 2.2246,-13.347 -3.8864,2.5393 -4.0678,5.6627 -4.1314,8.9619 l 0.1589,-1.8114 c -0.52966,-0.79132 -1.0593,-0.94808 -1.589,-0.98517 l 0.0636,1.6525 c -1.2092,-3.3283 -0.7688,-6.4626 -0.60381,-9.6292 -1.6205,4.1234 -2.2457,8.3349 1.2394,19.386 0,0 -0.88347,3.6909 -0.63559,5.5297 0.40579,3.01 0.78295,6.9127 3.4004,8.4534 0.73601,0.43322 1.6316,0.48452 2.5423,-0.3178 z"
         fill="#1c566a" /><ellipse
         id="ellipse2"
         cx="-32.784779"
         cy="-46.060146"
         rx="0.97042"
         ry="0.90572"
         transform="scale(-1)" /><path
         id="path3"
         d="m 32.36878,30.433147 c -0.95281,-0.31332 -1.8716,-0.49073 -2.6836,-0.24066 1.3919,4.2942 4.3114,12.485 7.1117,14.06 0.64889,-3.6993 -0.09048,-9.2213 -4.4281,-13.819 z"
         fill="#ababab" /><path
         id="path4"
         d="m 34.27578,41.937147 c -1.0524,-7.1636 -7.1971,-17 -12.79,-19.274 l 0.41672,1.8737 -1.5459,-0.71419 c 0.58178,5.0793 5.5048,15.281 9.2142,19.496"
         fill="#1c566a" /></g></g></svg>
