<?xml version="1.0" encoding="UTF-8" standalone="no"?>
<svg
   height="100mm"
   width="100mm"
   version="1.1"
   id="svg3"
   xml:space="preserve"
   xmlns="http://www.w3.org/2000/svg"
   xmlns:svg="http://www.w3.org/2000/svg"><defs
     id="defs3" /><g
     id="use49"
     transform="matrix(7.9685779,0,0,-7.9685779,-15.238579,404.60351)"><path
       d="m 21.088994,20.914958 c -0.573207,-0.832746 -1.575237,-1.899579 -1.521956,-2.960139 1.177998,0.318935 2.212062,1.067204 3.050025,1.499484 z"
       fill="#c29771"
       id="path58" /><path
       d="m 22.648843,19.231845 c -0.573207,-0.832746 -1.607017,-1.677121 -1.553736,-2.737681 1.177998,0.318935 2.243842,0.844746 3.081805,1.277026 z"
       fill="#c29771"
       id="path59" /><g
       fill="none"
       stroke="#c29771"
       stroke-width="0.8"
       transform="matrix(0.97175288,0.23600073,0.23600073,-0.97175288,-9.490746,53.785197)"
       id="g61"><path
         d="m 21.364778,42.962441 -4.600954,3.374818 -2.292105,-0.988751"
         id="path60" /><path
         d="m 14.381833,47.595669 2.381991,-1.25841 -0.584262,2.516821"
         id="path61" /></g><path
       d="m 31.561708,17.301855 c -2.104362,-0.175063 -3.976086,-0.768873 -6.634701,0.05372 -6.80708,4.414013 -4.814603,10.343114 -1.414952,18.09333 0.372066,0.474047 1.006782,1.481639 0.984217,3.065953 -0.01537,1.079182 0.133729,4.430259 0.152933,5.479058 1.572504,-0.355841 1.347914,-2.433736 2.33542,-2.945258 1.550334,-0.803064 2.557387,-2.50602 2.40535,-3.937932 l -0.585333,-5.512787 c 4.056474,-3.601111 6.160434,-7.802853 7.162295,-12.469528 l 2.874142,-4.566394 c -2.526784,0.79419 -4.955662,1.436296 -7.279369,2.739835 z"
       fill="#c29771"
       id="path62"
       style="fill:#895f3c;fill-opacity:1" /><ellipse
       cx="27.118547"
       cy="-38.722008"
       rx="0.98594201"
       ry="0.92794502"
       transform="scale(1,-1)"
       id="ellipse62" /><path
       d="m 21.911328,31.631191 c 0.611907,-5.738911 4.025269,-11.097028 9.65038,-14.329336 -1.756037,-0.207738 -4.694647,-0.758679 -6.422178,-0.0389 -3.124271,1.16762 -4.143686,2.863371 -4.703149,6.210303 -0.379837,3.346068 0.716966,6.20253 1.474947,8.157937 z"
       fill="#dac4ae"
       id="path63"
       style="fill:#ccad90;fill-opacity:1" /><g
       fill="none"
       stroke="#c29771"
       stroke-width="0.8"
       transform="matrix(1,0,0,-1,-1.780999,60.629204)"
       id="g65"><path
         d="m 21.977238,42.022709 -5.213414,4.31455 -2.292105,-0.988751"
         id="path64" /><path
         d="m 14.381833,47.595669 2.381991,-1.25841 -0.584262,2.516821"
         id="path65" /></g></g></svg>
