<?xml version="1.0" encoding="UTF-8" standalone="no"?>
<svg
   height="100mm"
   width="100mm"
   version="1.1"
   id="svg3"
   xml:space="preserve"
   xmlns="http://www.w3.org/2000/svg"
   xmlns:svg="http://www.w3.org/2000/svg"><defs
     id="defs3" /><g
     id="g40"
     transform="matrix(-9.085542,0,0,-9.085542,408.14277,436.02048)"><g
       transform="matrix(-0.84550743,0,0,-0.84550743,48.615996,54.344366)"
       id="g4"><path
         d="m 22.899018,15.90341 -2.54237,-0.476695 1.49365,1.461865 c -1.8675,5.918039 -0.93668,11.581686 3.71822,16.906779 0.94935,4.84489 0.79084,9.430494 -2.22458,13.347458 3.886379,-2.539298 4.067774,-5.662667 4.13136,-8.961865 l -0.1589,1.811441 c 0.52966,0.791317 1.05932,0.948081 1.58898,0.985169 l -0.0636,-1.652542 c 1.20924,3.32833 0.7688,6.462581 0.60381,9.629237 1.620512,-4.12337 2.245732,-8.334916 -1.2394,-19.385593 0,0 0.88347,-3.690938 0.63559,-5.529661 -0.40579,-3.009996 -0.78295,-6.912744 -3.40042,-8.453389 -0.73601,-0.433216 -1.63159,-0.484521 -2.54234,0.317796 z"
         fill="#1c566a"
         id="path2" /><ellipse
         cx="25.152849"
         cy="18.168337"
         rx="0.970415"
         ry="0.90572"
         id="ellipse2" /><path
         d="m 25.568518,33.795359 c 0.952809,0.313321 1.87164,0.49073 2.6836,0.240658 -1.3919,-4.29423 -4.31137,-12.485409 -7.111663,-14.059692 -0.64889,3.699314 0.09048,9.221339 4.428063,13.819034 z"
         fill="#ffffff"
         id="path3"
         style="fill:#ababab;fill-opacity:1" /><path
         d="m 23.661733,22.291122 c 1.052431,7.163555 7.197142,17.00001 12.790299,19.273895 l -0.416718,-1.873675 1.545911,0.714186 C 36.999449,35.326221 32.076431,25.12476 28.36705,20.909505"
         fill="#1c566a"
         id="path4" /></g></g></svg>
